<svg width="20" height="16" viewBox="0 0 20 16" fill="none" xmlns="http://www.w3.org/2000/svg">
<path fill-rule="evenodd" clip-rule="evenodd" d="M20 0.556641C20 0.832783 19.7761 1.05664 19.5 1.05664H0.5C0.223858 1.05664 0 0.832783 0 0.556641C0 0.280498 0.223857 0.0566406 0.5 0.0566406H19.5C19.7761 0.0566406 20 0.280498 20 0.556641Z" fill="#333333"/>
<path fill-rule="evenodd" clip-rule="evenodd" d="M20 7.55664C20 7.83278 19.7761 8.05664 19.5 8.05664H0.5C0.223858 8.05664 0 7.83278 0 7.55664C0 7.2805 0.223857 7.05664 0.5 7.05664H19.5C19.7761 7.05664 20 7.2805 20 7.55664Z" fill="#333333"/>
<path fill-rule="evenodd" clip-rule="evenodd" d="M20 14.5566C20 14.8328 19.7761 15.0566 19.5 15.0566H0.5C0.223858 15.0566 0 14.8328 0 14.5566C0 14.2805 0.223857 14.0566 0.5 14.0566H19.5C19.7761 14.0566 20 14.2805 20 14.5566Z" fill="#333333"/>
</svg>
