<svg width="378" height="349" viewBox="0 0 378 349" fill="none" xmlns="http://www.w3.org/2000/svg">
<path d="M288.145 49.9589C300.423 36.2189 322.543 35.5377 334.696 50.8982C352.272 73.1112 365.051 98.703 371.965 125.924C381.753 164.458 379.296 204.318 364.941 239.897C350.585 275.475 325.053 304.98 291.936 324.262C258.82 343.544 219.786 351.632 180.326 347.387C140.866 343.143 102.967 326.78 71.9592 300.601C40.9518 274.422 18.3973 239.744 7.46883 201.447C-3.45959 163.149 -2.2119 123.159 11.0364 87.1024C24.2846 51.0461 48.8667 20.7384 81.3241 0.443246L188.976 160.937L288.145 49.9589Z" fill="url(#paint0_linear_340_69)"/>
<defs>
<linearGradient id="paint0_linear_340_69" x1="323.094" y1="55.9324" x2="48.5266" y2="288.143" gradientUnits="userSpaceOnUse">
<stop stop-color="#6430DB"/>
<stop offset="1" stop-color="#2E47DB"/>
</linearGradient>
</defs>
</svg>
