<svg width="17" height="17" viewBox="0 0 17 17" fill="none" xmlns="http://www.w3.org/2000/svg">
<g clip-path="url(#clip0_4004_25574)">
<path d="M8.50098 3.6147C9.68709 3.6147 10.7749 4.03998 11.6219 4.74438L13.8611 2.5605C12.4426 1.27987 10.5629 0.5 8.50098 0.5C5.37049 0.5 2.6629 2.29814 1.34863 4.91689L3.86215 6.97257C4.5043 5.02471 6.33972 3.6147 8.50098 3.6147Z" fill="#F83D2C"/>
<path d="M8.50098 13.3853C6.36004 13.3853 4.5378 12.0004 3.87888 10.0801L1.35938 12.1058C2.67843 14.7126 5.38004 16.5 8.50098 16.5C10.5209 16.5 12.3659 15.75 13.7736 14.5137L11.2289 12.5503C10.449 13.0774 9.51092 13.3853 8.50098 13.3853Z" fill="#32AE51"/>
<path d="M3.61494 8.5001C3.61494 7.96701 3.70239 7.45428 3.86054 6.9727L1.34822 4.91699C0.806701 5.99516 0.5 7.21109 0.5 8.5001C0.5 9.79749 0.810295 11.0218 1.35901 12.106L3.87851 10.0802C3.70838 9.58426 3.61494 9.05356 3.61494 8.5001Z" fill="#FFC100"/>
<path d="M16.3641 7.03369H16.1653H13.1606H8.89551V10.0801H13.121C12.7724 11.0948 12.1015 11.9609 11.2269 12.5515L13.7716 14.5149C15.4429 13.0487 16.4996 10.8983 16.4996 8.50119C16.5008 7.99925 16.4528 7.50928 16.3641 7.03369Z" fill="#4284F9"/>
</g>
<defs>
<clipPath id="clip0_4004_25574">
<rect width="16" height="16" fill="white" transform="translate(0.5 0.5)"/>
</clipPath>
</defs>
</svg>
