<svg width="39" height="36" viewBox="0 0 39 36" fill="none"
  xmlns="http://www.w3.org/2000/svg">
  <path d="M3.4416 27.9594C3.35726 27.9117 3.27902 27.8497 3.21196 27.7724C1.42769 25.7523 1.14216 22.839 2.50069 20.5241L12.0754 4.20864C12.3244 3.7849 12.8751 3.63958 13.3059 3.88448C13.7367 4.12937 13.8841 4.67099 13.6361 5.09575L4.06142 21.4113C3.08698 23.0717 3.29223 25.1609 4.57252 26.6099C4.89869 26.9798 4.85906 27.5397 4.4831 27.8608C4.18538 28.1159 3.76472 28.1433 3.4416 27.9594ZM1.49881 19.2733L11.3154 2.54518C11.6588 1.95987 12.113 1.46296 12.6647 1.06869C12.933 0.876637 12.9929 0.50777 12.7979 0.243568C12.6028 -0.0206348 12.2268 -0.0785561 11.9586 0.112483C11.2696 0.604305 10.7027 1.22416 10.2749 1.95377L0.458328 18.6818C0.292703 18.9643 0.391265 19.3261 0.677805 19.4887C0.964346 19.6513 1.33217 19.5547 1.49881 19.2722V19.2733ZM16.1012 26.6262L19.6484 20.5811C20.063 19.8748 19.8171 18.9704 19.0987 18.563C18.3803 18.1545 17.4618 18.3973 17.0472 19.1036L13.5 25.1487C12.8365 26.2787 11.3621 26.6679 10.2139 26.0155C9.0647 25.3631 8.66944 23.912 9.33295 22.7821L17.1417 9.47643C17.5563 8.77019 17.3104 7.86581 16.592 7.45832C15.8736 7.04983 14.955 7.29269 14.5405 7.99892L6.73173 21.3046C5.2401 23.846 6.12817 27.1069 8.71211 28.5742C11.295 30.0415 14.6106 29.1676 16.1012 26.6262ZM34.3758 8.13915C33.9998 8.46026 33.9602 9.02017 34.2864 9.39005C35.5666 10.8391 35.7719 12.9283 34.7974 14.5887L25.2227 30.9043C24.9738 31.328 25.1211 31.8706 25.553 32.1155C25.9838 32.3604 26.5345 32.2151 26.7835 31.7914L36.3582 15.4759C37.7167 13.16 37.4312 10.2477 35.6469 8.22756C35.5798 8.15135 35.5016 8.08936 35.4173 8.04059C35.0931 7.85666 34.6735 7.88511 34.3758 8.13915ZM37.3601 16.7267L27.5435 33.4548C27.2001 34.0401 26.7459 34.537 26.1941 34.9313C25.9259 35.1234 25.8659 35.4922 26.061 35.7564C26.2561 36.0206 26.6321 36.0786 26.9003 35.8875C27.5892 35.3957 28.1562 34.7758 28.584 34.0462L38.4005 17.3182C38.5662 17.0357 38.4676 16.6739 38.1811 16.5113C37.8935 16.3477 37.5267 16.4453 37.3601 16.7278V16.7267ZM22.7577 9.37379L19.2105 15.4189C18.7959 16.1252 19.0418 17.0296 19.7602 17.437C20.4786 17.8455 21.3971 17.6027 21.8117 16.8964L25.3589 10.8513C26.0224 9.72132 27.4968 9.33213 28.645 9.98451C29.7942 10.6369 30.1894 12.088 29.5259 13.2179L21.7172 26.5236C21.3026 27.2298 21.5485 28.1342 22.2669 28.5417C22.9853 28.9502 23.9038 28.7073 24.3184 28.0011L32.1271 14.6954C33.6188 12.154 32.7307 8.89315 30.1468 7.42581C27.5638 5.95847 24.2483 6.83237 22.7577 9.37379Z" fill="url(#paint0_linear_502_11736)"/>
  <defs>
    <linearGradient id="paint0_linear_502_11736" x1="5.9397" y1="9.35721" x2="33.2797" y2="26.8722" gradientUnits="userSpaceOnUse">
      <stop stop-color="#0048FF"/>
      <stop offset="0.328125" stop-color="#0C81ED"/>
      <stop offset="0.65" stop-color="#029DCE"/>
      <stop offset="0.88" stop-color="#00BBB0"/>
      <stop offset="0.963542" stop-color="#00C5A8"/>
    </linearGradient>
  </defs>
</svg>
