<svg width="232" height="73" viewBox="0 0 232 73" fill="none" xmlns="http://www.w3.org/2000/svg">
  <path d="M95.2628 29.4222L75.0722 32.3269C73.624 32.5362 72.5107 31.0629 73.105 29.7319L84.7406 3.63145C85.7953 1.26248 82.673 -0.713129 80.982 1.25404L44.9954 43.1757C43.8821 44.4648 44.9536 46.4487 46.6445 46.2311L69.3632 43.3095C70.7528 43.1338 71.8326 44.4983 71.3471 45.8042L62.5241 69.4017C61.6201 71.8126 64.8178 73.5955 66.3999 71.5698L96.9956 32.4023C98.0252 31.0881 96.9286 29.1795 95.2628 29.4222Z" fill="url(#paint0_linear_113_218)" />
  <path d="M98.6444 26.7348C100.637 26.7348 102.252 25.1194 102.252 23.1269C102.252 21.1343 100.637 19.519 98.6444 19.519C96.6518 19.519 95.0365 21.1343 95.0365 23.1269C95.0365 25.1194 96.6518 26.7348 98.6444 26.7348Z" fill="url(#paint1_linear_113_218)" />
  <path d="M9.40854 30.4857H19.5541C21.1027 30.4857 22.1407 32.0845 21.5129 33.4992L16.8419 43.9545C16.8419 43.9545 13.9707 49.9648 19.5876 49.9648C25.2045 49.9648 26.1588 49.9564 26.1588 49.9564C26.1588 49.9564 31.6836 50.4671 35.0989 41.8116L39.6694 31.4316C39.9289 30.854 40.4981 30.4773 41.1343 30.4773H43.6289C44.7841 30.4773 45.5626 31.666 45.0938 32.7291L40.3726 43.4103C40.3726 43.4103 36.3629 53.4973 24.6101 54.0247L9.36669 54.0415C9.36669 54.0415 -4.06027 55.2887 3.08013 41.6525L7.44138 31.7581C7.79295 30.9879 8.56308 30.4857 9.40854 30.4857Z" fill="white" />
  <path d="M103.363 32.2432L114.103 52.5093C114.614 53.4719 115.618 54.0746 116.706 54.0662L117.937 54.0579C118.523 54.0495 119.101 53.8737 119.578 53.5389L150.324 32.2098C151.086 31.6824 150.709 30.4937 149.788 30.4937H146.574C146.381 30.4937 146.197 30.5523 146.038 30.6611L125.136 45.0256L118.356 31.9335C117.895 31.0545 116.991 30.4937 115.995 30.4937H104.418C103.522 30.4853 102.945 31.448 103.363 32.2432Z" fill="white" />
  <path d="M187.265 30.4854H163.115C163.115 30.4854 148.5 31.8916 146.306 45.9213C146.306 45.9213 145.026 54.1081 154.987 54.0747L178.007 54.0495C178.518 54.0495 178.978 53.7481 179.187 53.2794L179.874 51.714C180.25 50.8602 179.623 49.9058 178.693 49.9058H163.869C163.869 49.9058 159.809 50.5338 161.29 46.2311C161.29 46.2311 163.584 40.6392 164.655 38.513C164.655 38.513 165.961 35.9014 167.569 35.1145C169.176 34.3276 171.327 34.5201 172.089 34.5201C172.742 34.5201 183.507 34.5201 186.612 34.5201C187.123 34.5201 187.575 34.2272 187.784 33.7584L188.446 32.2935C188.822 31.448 188.194 30.4854 187.265 30.4854Z" fill="white" />
  <path d="M167.426 39.1917H183.113C184.059 39.1917 184.679 40.171 184.277 41.0248L183.59 42.4897C183.381 42.9418 182.921 43.2348 182.427 43.2348H166.698C165.869 43.2348 165.308 42.3894 165.635 41.6276L166.363 39.8948C166.547 39.4679 166.966 39.1917 167.426 39.1917Z" fill="white" />
  <path d="M193.771 32.9547C194.432 31.4563 195.914 30.4853 197.554 30.4853H226.459C226.459 30.4853 232.319 30.3262 231.13 36.2445C229.941 42.1627 221.026 43.1672 221.026 43.1672L225.354 51.4042C225.982 52.6096 225.111 54.0494 223.755 54.0494H214.104C213.057 54.0494 212.086 53.4718 211.601 52.5426L206.344 42.5562C205.992 41.8865 205.984 41.0912 206.327 40.4216C206.721 39.6431 207.524 39.1492 208.395 39.1492H213.76C215.577 39.1492 217.05 37.6759 217.05 35.8594C217.05 35.0977 216.431 34.4782 215.669 34.4782H206.838L198.902 52.392C198.45 53.4133 197.437 54.0746 196.315 54.0746H187.241C185.936 54.0746 185.065 52.7352 185.592 51.5465L193.771 32.9547Z" fill="white" />
  <defs>
    <linearGradient id="paint0_linear_113_218" x1="44.545" y1="36.4468" x2="97.3972" y2="36.4468" gradientUnits="userSpaceOnUse">
      <stop stop-color="#FFE26A" />
      <stop offset="0.9954" stop-color="#FF6400" />
    </linearGradient>
    <linearGradient id="paint1_linear_113_218" x1="95.0361" y1="23.1267" x2="102.253" y2="23.1267" gradientUnits="userSpaceOnUse">
      <stop stop-color="#FFE26A" />
      <stop offset="0.9954" stop-color="#FF6400" />
    </linearGradient>
  </defs>
</svg>
