<svg width="72" height="73" viewBox="0 0 72 73" fill="none" xmlns="http://www.w3.org/2000/svg">
<rect x="0.000488281" y="0.735352" width="72" height="72" rx="16" fill="#FE4B4B"/>
<path fill-rule="evenodd" clip-rule="evenodd" d="M36.0004 16.2417C36.746 16.2417 37.3504 16.8461 37.3504 17.5917V22.8537L50.776 30.5254C50.79 30.5334 50.8038 30.5416 50.8175 30.5501C50.8365 30.5619 50.8552 30.5741 50.8737 30.5868C50.9372 30.6307 50.9973 30.6802 51.0532 30.7353C51.0718 30.7536 51.0899 30.7725 51.1075 30.792C51.2437 30.9426 51.3444 31.1224 51.4016 31.3175C51.4078 31.3385 51.4135 31.3596 51.4186 31.3808C51.4374 31.4584 51.449 31.5369 51.4537 31.6154C51.4546 31.6307 51.4553 31.6461 51.4557 31.6614C51.456 31.6734 51.4562 31.6854 51.4562 31.6975C51.4562 31.6975 51.4562 31.6975 51.4562 31.6975V46.9842L56.7553 49.6338C57.4221 49.9672 57.6924 50.7781 57.359 51.445C57.0256 52.1119 56.2147 52.3822 55.5478 52.0487L50.1487 49.3492L36.6867 57.0417C36.5306 57.1341 36.3542 57.1959 36.1659 57.2189C36.0489 57.2334 35.9305 57.2324 35.8137 57.2162C35.6357 57.1915 35.4688 57.1322 35.3201 57.0453L21.8518 49.3491L16.4526 52.0487C15.7857 52.3822 14.9748 52.1119 14.6414 51.445C14.3079 50.7781 14.5782 49.9672 15.2451 49.6338L20.5444 46.9841V31.7327C20.538 31.4939 20.5949 31.2504 20.722 31.0279C20.8502 30.8035 21.033 30.63 21.2441 30.5143L34.6504 22.8536V17.5917C34.6504 16.8461 35.2548 16.2417 36.0004 16.2417ZM23.2444 34.0241V47.0352L34.6504 53.5527V40.5418L23.2444 34.0241ZM37.3504 53.5526V40.5414L48.7562 34.0238V47.0352L37.3504 53.5526ZM47.3851 31.6976L36 38.2033L24.6153 31.6977L36.0003 25.192L47.3851 31.6976Z" fill="white"/>
</svg>
