<svg width="50" height="44" viewBox="0 0 50 44" fill="none" xmlns="http://www.w3.org/2000/svg">
<path d="M4.15843 34.1726C4.05535 34.1142 3.95972 34.0385 3.87776 33.9441C1.69698 31.475 1.348 27.9143 3.00842 25.0851L14.7109 5.14389C15.0151 4.62598 15.6882 4.44838 16.2148 4.7477C16.7414 5.04701 16.9214 5.70899 16.6184 6.22813L4.91599 26.1693C3.725 28.1987 3.97587 30.7522 5.54066 32.5233C5.93931 32.9754 5.89088 33.6597 5.43137 34.0521C5.0675 34.3639 4.55335 34.3974 4.15843 34.1726ZM1.78391 23.5562L13.7819 3.11077C14.2017 2.39539 14.7568 1.78807 15.4312 1.30618C15.759 1.07145 15.8323 0.620608 15.5938 0.297694C15.3554 -0.0252203 14.8959 -0.096013 14.568 0.137479C13.726 0.738596 13.033 1.4962 12.5102 2.38794L0.512204 22.8334C0.309775 23.1786 0.430239 23.6208 0.780455 23.8195C1.13067 24.0182 1.58024 23.9002 1.78391 23.555V23.5562ZM19.6313 32.5431L23.9667 25.1546C24.4734 24.2914 24.1729 23.1861 23.2949 22.6881C22.4169 22.1888 21.2942 22.4856 20.7875 23.3488L16.452 30.7373C15.641 32.1184 13.839 32.5941 12.4357 31.7967C11.0311 30.9994 10.548 29.2258 11.359 27.8447L20.903 11.5823C21.4097 10.7191 21.1091 9.61376 20.2311 9.11573C19.3531 8.61646 18.2304 8.91329 17.7237 9.77646L8.1797 26.0389C6.35659 29.1451 7.44201 33.1306 10.6002 34.924C13.7571 36.7174 17.8094 35.6493 19.6313 32.5431ZM41.9669 9.94785C41.5074 10.3403 41.4589 11.0246 41.8576 11.4767C43.4224 13.2478 43.6732 15.8013 42.4822 17.8307L30.7798 37.7719C30.4755 38.2898 30.6556 38.953 31.1834 39.2523C31.71 39.5516 32.3831 39.374 32.6874 38.8561L44.3898 18.9149C46.0502 16.0845 45.7013 12.525 43.5205 10.0559C43.4385 9.96276 43.3429 9.887 43.2398 9.82738C42.8436 9.60258 42.3307 9.63736 41.9669 9.94785ZM45.6143 20.4438L33.6163 40.8892C33.1966 41.6046 32.6414 42.2119 31.9671 42.6938C31.6392 42.9286 31.5659 43.3794 31.8044 43.7023C32.0428 44.0252 32.5023 44.096 32.8302 43.8625C33.6722 43.2614 34.3652 42.5038 34.888 41.6121L46.886 21.1666C47.0885 20.8214 46.968 20.3792 46.6178 20.1805C46.2663 19.9805 45.818 20.0998 45.6143 20.445V20.4438ZM27.767 11.4569L23.4315 18.8454C22.9248 19.7086 23.2253 20.8139 24.1034 21.3119C24.9814 21.8112 26.1041 21.5144 26.6108 20.6512L30.9462 13.2627C31.7572 11.8816 33.5592 11.4059 34.9625 12.2033C36.3671 13.0006 36.8502 14.7742 36.0393 16.1553L26.4953 32.4177C25.9886 33.2809 26.2891 34.3862 27.1671 34.8843C28.0451 35.3835 29.1678 35.0867 29.6745 34.2235L39.2185 17.9611C41.0416 14.8549 39.9562 10.8694 36.7981 9.07599C33.6412 7.28257 29.5888 8.35067 27.767 11.4569Z" fill="url(#paint0_linear_2536_8783)"/>
<defs>
<linearGradient id="paint0_linear_2536_8783" x1="7.21166" y1="11.4366" x2="40.6272" y2="32.8438" gradientUnits="userSpaceOnUse">
<stop stop-color="#0048FF"/>
<stop offset="0.328125" stop-color="#0C81ED"/>
<stop offset="0.65" stop-color="#029DCE"/>
<stop offset="0.88" stop-color="#00BBB0"/>
<stop offset="1" stop-color="#00C5A8"/>
</linearGradient>
</defs>
</svg>
