<svg width="150" height="44" viewBox="0 0 150 44" fill="none" xmlns="http://www.w3.org/2000/svg">
<path d="M4.15843 34.1726C4.05535 34.1142 3.95972 34.0385 3.87776 33.9441C1.69698 31.475 1.348 27.9143 3.00842 25.0851L14.7109 5.14389C15.0151 4.62598 15.6882 4.44838 16.2148 4.7477C16.7414 5.04701 16.9214 5.70899 16.6184 6.22813L4.91599 26.1693C3.725 28.1987 3.97587 30.7522 5.54066 32.5233C5.93931 32.9754 5.89088 33.6597 5.43137 34.0521C5.0675 34.3639 4.55335 34.3974 4.15843 34.1726ZM1.78391 23.5562L13.7819 3.11077C14.2017 2.39539 14.7568 1.78807 15.4312 1.30618C15.759 1.07145 15.8323 0.620608 15.5938 0.297694C15.3554 -0.0252203 14.8959 -0.096013 14.568 0.137479C13.726 0.738596 13.033 1.4962 12.5102 2.38794L0.512204 22.8334C0.309775 23.1786 0.430239 23.6208 0.780455 23.8195C1.13067 24.0182 1.58024 23.9002 1.78391 23.555V23.5562ZM19.6313 32.5431L23.9667 25.1546C24.4734 24.2914 24.1729 23.1861 23.2949 22.6881C22.4169 22.1888 21.2942 22.4856 20.7875 23.3488L16.452 30.7373C15.641 32.1184 13.839 32.5941 12.4357 31.7967C11.0311 30.9994 10.548 29.2258 11.359 27.8447L20.903 11.5823C21.4097 10.7191 21.1091 9.61376 20.2311 9.11573C19.3531 8.61646 18.2304 8.91329 17.7237 9.77646L8.1797 26.0389C6.35659 29.1451 7.44201 33.1306 10.6002 34.924C13.7571 36.7174 17.8094 35.6493 19.6313 32.5431ZM41.9669 9.94785C41.5074 10.3403 41.4589 11.0246 41.8576 11.4767C43.4224 13.2478 43.6732 15.8013 42.4822 17.8307L30.7798 37.7719C30.4755 38.2898 30.6556 38.953 31.1834 39.2523C31.71 39.5516 32.3831 39.374 32.6874 38.8561L44.3898 18.9149C46.0502 16.0845 45.7013 12.525 43.5205 10.0559C43.4385 9.96276 43.3429 9.887 43.2398 9.82738C42.8436 9.60258 42.3307 9.63736 41.9669 9.94785ZM45.6143 20.4438L33.6163 40.8892C33.1966 41.6046 32.6414 42.2119 31.9671 42.6938C31.6392 42.9286 31.5659 43.3794 31.8044 43.7023C32.0428 44.0252 32.5023 44.096 32.8302 43.8625C33.6722 43.2614 34.3652 42.5038 34.888 41.6121L46.886 21.1666C47.0885 20.8214 46.968 20.3792 46.6178 20.1805C46.2663 19.9805 45.818 20.0998 45.6143 20.445V20.4438ZM27.767 11.4569L23.4315 18.8454C22.9248 19.7086 23.2253 20.8139 24.1034 21.3119C24.9814 21.8112 26.1041 21.5144 26.6108 20.6512L30.9462 13.2627C31.7572 11.8816 33.5592 11.4059 34.9625 12.2033C36.3671 13.0006 36.8502 14.7742 36.0393 16.1553L26.4953 32.4177C25.9886 33.2809 26.2891 34.3862 27.1671 34.8843C28.0451 35.3835 29.1678 35.0867 29.6745 34.2235L39.2185 17.9611C41.0416 14.8549 39.9562 10.8694 36.7981 9.07599C33.6412 7.28257 29.5888 8.35067 27.767 11.4569Z" fill="url(#paint0_linear_2536_8783)"/>
<path d="M130.365 33.7181C125.767 33.7181 122.026 29.7877 122.026 24.9571C122.026 20.1265 125.767 16.1961 130.365 16.1961C134.278 16.1961 137.62 18.9904 138.493 22.9902C138.633 23.6267 138.704 24.2876 138.704 24.9554C138.704 24.9762 138.704 24.9952 138.704 25.0161C138.701 25.4809 138.318 25.8538 137.851 25.8538H125.705C125.528 25.8538 125.362 25.9353 125.256 26.0741C125.148 26.2129 125.114 26.3933 125.16 26.5615C125.851 29.021 127.911 30.7399 130.416 30.7399C131.782 30.7399 133.102 30.2335 134.129 29.3124C134.306 29.1563 134.474 28.9846 134.632 28.8042C134.759 28.6585 134.946 28.577 135.138 28.577H137.161C137.705 28.577 138.031 29.1841 137.73 29.6385C136.743 31.1181 135.204 32.3391 133.525 33.0624C132.525 33.4961 131.462 33.7146 130.365 33.7146V33.7181ZM130.416 19.0268C128.201 19.0268 126.201 20.4161 125.322 22.5669C125.251 22.7421 125.268 22.9416 125.372 23.0994C125.474 23.2573 125.648 23.3527 125.833 23.3527H135C135.185 23.3527 135.359 23.2573 135.461 23.0994C135.563 22.9416 135.582 22.7404 135.511 22.5669C134.63 20.4161 132.63 19.0268 130.416 19.0268Z" fill="#0F172A"/>
<path d="M91.1004 32.6789V23.6699C91.1004 21.6007 89.4943 19.8367 87.4269 19.7586C85.2537 19.6771 83.4586 21.4203 83.4586 23.5763V32.6807C83.4586 33.0571 83.1534 33.3623 82.777 33.3623H80.5986C80.2222 33.3623 79.917 33.0571 79.917 32.6807V23.5763C79.917 22.5217 80.1355 21.5018 80.5674 20.5443C81.7572 17.9131 84.3917 16.2133 87.2778 16.2133C90.1638 16.2133 92.7984 17.9131 93.9882 20.5443C94.42 21.5018 94.6386 22.5217 94.6386 23.5763V32.6807C94.6386 33.0571 94.3333 33.3623 93.957 33.3623H91.7785C91.4022 33.3623 91.0969 33.0571 91.0969 32.6807L91.1004 32.6789Z" fill="#0F172A"/>
<path d="M112.178 33.7814C109.091 33.7814 107.05 31.5768 106.108 27.2319C105.648 25.1106 104.604 20.0233 104.084 17.4874C103.997 17.0642 104.32 16.6705 104.752 16.6705H106.845C107.176 16.6705 107.461 16.9081 107.516 17.2359C107.919 19.574 108.899 25.2494 109.298 27.4504C109.632 29.3012 110.602 30.2395 112.177 30.2395C114.131 30.2395 114.643 28.7479 114.87 27.447C115.271 25.1644 116.365 19.5237 116.816 17.2203C116.879 16.8994 117.16 16.6688 117.486 16.6688H119.598C120.03 16.6688 120.353 17.066 120.266 17.4892L118.245 27.2354C117.977 28.7843 116.752 33.7797 112.177 33.7797L112.178 33.7814Z" fill="#0F172A"/>
<path d="M68.0052 33.7298C67.9133 33.7298 67.8214 33.7298 67.7312 33.7246C66.8241 33.6968 65.9378 33.532 65.0914 33.232C64.5832 33.0516 64.0924 32.8261 63.6345 32.559C62.3008 31.7906 61.1925 30.6823 60.4259 29.3502C60.1588 28.887 59.9316 28.3962 59.7529 27.8897C59.4217 26.9565 59.2534 25.9748 59.2534 24.9688V10.6817C59.2534 10.3053 59.5587 10 59.935 10H62.1134C62.4898 10 62.7951 10.3053 62.7951 10.6817V24.8578C62.7951 27.6972 65.0168 30.1012 67.856 30.1862C70.8063 30.2729 73.2327 27.9001 73.2327 24.9688V10.6817C73.2327 10.3053 73.5379 10 73.9143 10H76.0927C76.4691 10 76.7743 10.3053 76.7743 10.6817V24.9688C76.7743 25.9679 76.6061 26.9513 76.2748 27.8897C76.0962 28.3962 75.869 28.887 75.6019 29.3467C74.8335 30.6788 73.7253 31.7871 72.395 32.5538C71.9354 32.8226 71.4445 33.0499 70.9346 33.2302C70.0899 33.5303 69.2037 33.6951 68.3018 33.7228C68.2047 33.7263 68.111 33.728 68.0156 33.728H68.0087L68.0052 33.7298Z" fill="#0F172A"/>
<path d="M142.057 33.3573C141.681 33.3573 141.375 33.052 141.375 32.6756V22.6242C141.375 21.8957 141.495 21.1811 141.733 20.5011C141.736 20.4942 141.738 20.4873 141.74 20.4803C142.381 18.666 143.847 17.2004 145.661 16.5586C145.665 16.5586 145.668 16.5569 145.671 16.5551C146.327 16.3244 147.014 16.2048 147.711 16.1961H148.904C149.281 16.1961 149.586 16.5014 149.586 16.8778V19.058C149.586 19.4327 149.282 19.738 148.908 19.7397L147.817 19.7449C147.779 19.7449 147.741 19.7484 147.704 19.757C147.413 19.7674 147.128 19.8229 146.856 19.9201C146.041 20.2063 145.382 20.8654 145.094 21.6823C144.997 21.9564 144.943 22.2391 144.931 22.5253C144.922 22.5635 144.917 22.6051 144.917 22.6467V32.6791C144.917 33.0555 144.612 33.3608 144.235 33.3608H142.057V33.3573Z" fill="#0F172A"/>
<path d="M97.8092 20.5191V32.678C97.8092 33.0544 98.1145 33.3597 98.4908 33.3597H100.666C101.042 33.3597 101.347 33.0544 101.347 32.678V20.5156C101.347 20.3456 101.184 20.2242 101.021 20.2711C100.562 20.4046 100.074 20.4757 99.5713 20.4757C99.0684 20.4757 98.5914 20.4046 98.1353 20.2745C97.9722 20.2277 97.8092 20.3491 97.8092 20.5191Z" fill="#0F172A"/>
<path d="M97.8092 17.3487V19.3173C97.8092 19.6313 98.0243 19.9053 98.3295 19.9817C98.7284 20.0788 99.143 20.1326 99.5713 20.1326C99.9997 20.1326 100.426 20.0788 100.829 19.9782C101.134 19.9019 101.347 19.6296 101.347 19.3156V17.3504C101.347 16.974 101.042 16.6688 100.666 16.6688H98.4908C98.1145 16.6688 97.8092 16.974 97.8092 17.3487Z" fill="#0F172A"/>
<defs>
<linearGradient id="paint0_linear_2536_8783" x1="7.21166" y1="11.4366" x2="40.6272" y2="32.8438" gradientUnits="userSpaceOnUse">
<stop stop-color="#0048FF"/>
<stop offset="0.328125" stop-color="#0C81ED"/>
<stop offset="0.65" stop-color="#029DCE"/>
<stop offset="0.88" stop-color="#00BBB0"/>
<stop offset="1" stop-color="#00C5A8"/>
</linearGradient>
</defs>
</svg>
