<svg width="60" height="60" viewBox="0 0 60 60" fill="none" xmlns="http://www.w3.org/2000/svg">
<rect width="60" height="60" rx="14" fill="#ECEFFF"/>
<path d="M26.6667 23.7461C26.6667 23.2221 27.1145 22.7972 27.6667 22.7972H35.6667C36.219 22.7972 36.6667 23.2221 36.6667 23.7461C36.6667 24.2702 36.219 24.695 35.6667 24.695H27.6667C27.1145 24.695 26.6667 24.2702 26.6667 23.7461Z" fill="#2B4DFF"/>
<path d="M25.0002 23.746C25.0002 24.4448 24.4033 25.0112 23.6667 25.0112C22.9304 25.0112 22.3335 24.4448 22.3335 23.746C22.3335 23.0472 22.9304 22.4808 23.6667 22.4808C24.4033 22.4808 25.0002 23.0472 25.0002 23.746Z" fill="#2B4DFF"/>
<path d="M26.6667 29.5068C26.6667 28.9828 27.1145 28.558 27.6667 28.558H35.6667C36.219 28.558 36.6667 28.9828 36.6667 29.5068C36.6667 30.0309 36.219 30.4557 35.6667 30.4557H27.6667C27.1145 30.4557 26.6667 30.0309 26.6667 29.5068Z" fill="#2B4DFF"/>
<path d="M25.0002 29.5069C25.0002 30.2057 24.4033 30.7721 23.6667 30.7721C22.9304 30.7721 22.3335 30.2057 22.3335 29.5069C22.3335 28.8082 22.9304 28.2417 23.6667 28.2417C24.4033 28.2417 25.0002 28.8082 25.0002 29.5069Z" fill="#2B4DFF"/>
<path d="M26.6667 35.2673C26.6667 34.7433 27.1145 34.3185 27.6667 34.3185H35.6667C36.219 34.3185 36.6667 34.7433 36.6667 35.2673C36.6667 35.7914 36.219 36.2162 35.6667 36.2162H27.6667C27.1145 36.2162 26.6667 35.7914 26.6667 35.2673Z" fill="#2B4DFF"/>
<path d="M25.0002 35.2674C25.0002 35.9662 24.4033 36.5326 23.6667 36.5326C22.9304 36.5326 22.3335 35.9662 22.3335 35.2674C22.3335 34.5686 22.9304 34.0022 23.6667 34.0022C24.4033 34.0022 25.0002 34.5686 25.0002 35.2674Z" fill="#2B4DFF"/>
<path fill-rule="evenodd" clip-rule="evenodd" d="M18 20.0047C18 18.744 19.2217 18 20.3333 18H39C40.1116 18 41.3333 18.744 41.3333 20.0047V39.0088C41.3333 40.2695 40.1116 41.0135 39 41.0135H20.3333C19.2217 41.0135 18 40.2695 18 39.0088V20.0047ZM20 20.0172C20.0044 20.0111 20.0134 20.0007 20.0312 19.9867C20.0837 19.9451 20.1873 19.8978 20.3333 19.8978H39C39.0923 19.8978 39.1677 19.9167 39.2239 19.9411C39.2566 19.9553 39.2827 19.9714 39.302 19.9867C39.3198 20.0007 39.3289 20.0111 39.3333 20.0172V38.9962C39.3289 39.0024 39.3198 39.0127 39.302 39.0268C39.2498 39.0683 39.146 39.1157 39 39.1157H20.3333C20.1873 39.1157 20.0837 39.0683 20.0312 39.0268C20.0134 39.0127 20.0044 39.0024 20 38.9962V20.0172Z" fill="#2B4DFF"/>
</svg>
