<svg width="24" height="24" viewBox="0 0 24 24" fill="none" xmlns="http://www.w3.org/2000/svg">
<path d="M15 6.5H9C5.13401 6.5 2 9.63401 2 13.5C2 17.366 5.13401 20.5 9 20.5H15C18.866 20.5 22 17.366 22 13.5C22 9.63401 18.866 6.5 15 6.5Z" stroke="url(#paint0_linear_1568_243)" stroke-width="2" stroke-linejoin="round"/>
<path d="M15.5 12C16.0523 12 16.5 11.5523 16.5 11C16.5 10.4477 16.0523 10 15.5 10C14.9477 10 14.5 10.4477 14.5 11C14.5 11.5523 14.9477 12 15.5 12Z" fill="url(#paint1_linear_1568_243)"/>
<path d="M17.5 14.5C18.0523 14.5 18.5 14.0523 18.5 13.5C18.5 12.9477 18.0523 12.5 17.5 12.5C16.9477 12.5 16.5 12.9477 16.5 13.5C16.5 14.0523 16.9477 14.5 17.5 14.5Z" fill="url(#paint2_linear_1568_243)"/>
<path d="M6 13.5H11" stroke="url(#paint3_linear_1568_243)" stroke-width="2" stroke-linecap="round" stroke-linejoin="round"/>
<path d="M12 3.5V6.5" stroke="url(#paint4_linear_1568_243)" stroke-width="2" stroke-linecap="round" stroke-linejoin="round"/>
<path d="M8.5 11V16" stroke="url(#paint5_linear_1568_243)" stroke-width="2" stroke-linecap="round" stroke-linejoin="round"/>
<defs>
<linearGradient id="paint0_linear_1568_243" x1="4.91934" y1="10.1389" x2="16.5006" y2="20.153" gradientUnits="userSpaceOnUse">
<stop stop-color="#0048FF"/>
<stop offset="0.328125" stop-color="#0C81ED"/>
<stop offset="0.65" stop-color="#029DCE"/>
<stop offset="0.88" stop-color="#00BBB0"/>
<stop offset="0.963542" stop-color="#00C5A8"/>
</linearGradient>
<linearGradient id="paint1_linear_1568_243" x1="14.7919" y1="10.5198" x2="16.2733" y2="11.4165" gradientUnits="userSpaceOnUse">
<stop stop-color="#0048FF"/>
<stop offset="0.328125" stop-color="#0C81ED"/>
<stop offset="0.65" stop-color="#029DCE"/>
<stop offset="0.88" stop-color="#00BBB0"/>
<stop offset="0.963542" stop-color="#00C5A8"/>
</linearGradient>
<linearGradient id="paint2_linear_1568_243" x1="16.7919" y1="13.0198" x2="18.2733" y2="13.9165" gradientUnits="userSpaceOnUse">
<stop stop-color="#0048FF"/>
<stop offset="0.328125" stop-color="#0C81ED"/>
<stop offset="0.65" stop-color="#029DCE"/>
<stop offset="0.88" stop-color="#00BBB0"/>
<stop offset="0.963542" stop-color="#00C5A8"/>
</linearGradient>
<linearGradient id="paint3_linear_1568_243" x1="6.72983" y1="13.7599" x2="7.22792" y2="15.2673" gradientUnits="userSpaceOnUse">
<stop stop-color="#0048FF"/>
<stop offset="0.328125" stop-color="#0C81ED"/>
<stop offset="0.65" stop-color="#029DCE"/>
<stop offset="0.88" stop-color="#00BBB0"/>
<stop offset="0.963542" stop-color="#00C5A8"/>
</linearGradient>
<linearGradient id="paint4_linear_1568_243" x1="12.146" y1="4.27977" x2="13.1184" y2="4.47596" gradientUnits="userSpaceOnUse">
<stop stop-color="#0048FF"/>
<stop offset="0.328125" stop-color="#0C81ED"/>
<stop offset="0.65" stop-color="#029DCE"/>
<stop offset="0.88" stop-color="#00BBB0"/>
<stop offset="0.963542" stop-color="#00C5A8"/>
</linearGradient>
<linearGradient id="paint5_linear_1568_243" x1="8.64597" y1="12.2996" x2="9.64336" y2="12.4204" gradientUnits="userSpaceOnUse">
<stop stop-color="#0048FF"/>
<stop offset="0.328125" stop-color="#0C81ED"/>
<stop offset="0.65" stop-color="#029DCE"/>
<stop offset="0.88" stop-color="#00BBB0"/>
<stop offset="0.963542" stop-color="#00C5A8"/>
</linearGradient>
</defs>
</svg>
