<svg width="24" height="24" viewBox="0 0 24 24" fill="none" xmlns="http://www.w3.org/2000/svg">
<g id="ferris-wheel-single">
<path id="Union" fill-rule="evenodd" clip-rule="evenodd" d="M12.0002 1.2002C10.8988 1.2002 9.9782 1.97438 9.75292 3.00826C8.72609 3.29647 7.78026 3.77698 6.95671 4.40791C6.66544 4.27454 6.3415 4.2002 6.0002 4.2002C4.72994 4.2002 3.7002 5.22994 3.7002 6.5002C3.7002 7.07427 3.91052 7.59922 4.25831 8.0022C3.89771 8.93294 3.7002 9.94427 3.7002 11C3.7002 11.1978 3.70713 11.3941 3.72078 11.5886C3.1053 12.0014 2.7002 12.7035 2.7002 13.5002C2.7002 14.7705 3.72994 15.8002 5.0002 15.8002C5.07465 15.8002 5.14828 15.7967 5.22093 15.7897C5.63853 16.3797 6.13132 16.9129 6.68546 17.3752L4.07752 21.2002H3.0002C2.55837 21.2002 2.2002 21.5584 2.2002 22.0002C2.2002 22.442 2.55837 22.8002 3.0002 22.8002H4.48382C4.49431 22.8004 4.50481 22.8004 4.51529 22.8002H7.0002C7.44202 22.8002 7.8002 22.442 7.8002 22.0002C7.8002 21.5584 7.44202 21.2002 7.0002 21.2002H6.01404L8.00681 18.2775C8.554 18.5783 9.13891 18.8192 9.75278 18.9915C9.97781 20.0257 10.8986 20.8002 12.0002 20.8002C13.1017 20.8002 14.0223 20.0259 14.2475 18.9919C14.8615 18.8195 15.4465 18.5785 15.9938 18.2775L17.9865 21.2002H17.0002C16.5584 21.2002 16.2002 21.5584 16.2002 22.0002C16.2002 22.442 16.5584 22.8002 17.0002 22.8002H19.4853C19.4919 22.8003 19.4985 22.8004 19.5051 22.8003C19.509 22.8003 19.5129 22.8003 19.5167 22.8002H21.0002C21.442 22.8002 21.8002 22.442 21.8002 22.0002C21.8002 21.5584 21.442 21.2002 21.0002 21.2002H19.923L17.315 17.3751C17.869 16.9128 18.3617 16.3796 18.7792 15.7897C18.8519 15.7966 18.9257 15.8002 19.0002 15.8002C20.2705 15.8002 21.3002 14.7705 21.3002 13.5002C21.3002 12.7033 20.8949 12.0011 20.2793 11.5884C20.2929 11.3938 20.2999 11.1975 20.2999 10.9996C20.2999 9.94389 20.1024 8.93282 19.7419 8.00236C20.0898 7.59936 20.3002 7.07435 20.3002 6.5002C20.3002 5.22994 19.2705 4.2002 18.0002 4.2002C17.6589 4.2002 17.3349 4.27455 17.0436 4.40794C16.2201 3.77701 15.2743 3.29651 14.2475 3.00829C14.0222 1.9744 13.1016 1.2002 12.0002 1.2002ZM11.3002 3.5002C11.3002 3.1136 11.6136 2.8002 12.0002 2.8002C12.3868 2.8002 12.7002 3.1136 12.7002 3.5002C12.7002 3.88679 12.3868 4.2002 12.0002 4.2002C11.6136 4.2002 11.3002 3.88679 11.3002 3.5002ZM16.4084 16.0455C16.7437 15.7522 17.0496 15.4261 17.3211 15.072C16.936 14.6608 16.7002 14.108 16.7002 13.5002C16.7002 12.333 17.5697 11.3688 18.6963 11.2201C18.6987 11.1469 18.6999 11.0734 18.6999 10.9996C18.6999 10.2198 18.567 9.47236 18.3229 8.77774C18.2174 8.79254 18.1097 8.8002 18.0002 8.8002C16.7299 8.8002 15.7002 7.77045 15.7002 6.5002C15.7002 6.16288 15.7728 5.84253 15.9033 5.55391C15.334 5.1451 14.6984 4.82362 14.016 4.6086C13.6246 5.31894 12.8686 5.8002 12.0002 5.8002C11.1318 5.8002 10.3758 5.31893 9.98439 4.60857C9.30198 4.82358 8.6664 5.14506 8.09711 5.55386C8.22757 5.84249 8.3002 6.16286 8.3002 6.5002C8.3002 7.77045 7.27045 8.8002 6.0002 8.8002C5.89061 8.8002 5.78281 8.79253 5.67731 8.77771C5.43319 9.47233 5.3002 10.22 5.3002 11C5.3002 11.0737 5.30138 11.147 5.30373 11.22C6.43052 11.3686 7.3002 12.3328 7.3002 13.5002C7.3002 14.1081 7.06437 14.6609 6.67922 15.0721C6.95071 15.4262 7.25668 15.7524 7.59205 16.0456L10.3065 12.0644C10.1123 11.7562 10 11.3912 10 11C10 9.89543 10.8954 9 12 9C13.1046 9 14 9.89543 14 11C14 11.391 13.8878 11.7558 13.6938 12.064L16.4084 16.0455ZM8.91334 16.9479C9.25442 17.1253 9.61259 17.2741 9.98468 17.3913C10.3762 16.6812 11.132 16.2002 12.0002 16.2002C12.8685 16.2002 13.6244 16.6814 14.0159 17.3916C14.388 17.2743 14.7462 17.1254 15.0873 16.948L12.3719 12.9655C12.2514 12.9881 12.1271 13 12 13C11.8731 13 11.7489 12.9882 11.6286 12.9656L8.91334 16.9479ZM17.3002 6.5002C17.3002 6.1136 17.6136 5.8002 18.0002 5.8002C18.3868 5.8002 18.7002 6.1136 18.7002 6.5002C18.7002 6.88679 18.3868 7.2002 18.0002 7.2002C17.6136 7.2002 17.3002 6.88679 17.3002 6.5002ZM18.3002 13.5002C18.3002 13.1136 18.6136 12.8002 19.0002 12.8002C19.3868 12.8002 19.7002 13.1136 19.7002 13.5002C19.7002 13.8868 19.3868 14.2002 19.0002 14.2002C18.6136 14.2002 18.3002 13.8868 18.3002 13.5002ZM12.0002 17.8002C11.6136 17.8002 11.3002 18.1136 11.3002 18.5002C11.3002 18.8868 11.6136 19.2002 12.0002 19.2002C12.3868 19.2002 12.7002 18.8868 12.7002 18.5002C12.7002 18.1136 12.3868 17.8002 12.0002 17.8002ZM5.3002 6.5002C5.3002 6.1136 5.6136 5.8002 6.0002 5.8002C6.38679 5.8002 6.7002 6.1136 6.7002 6.5002C6.7002 6.88679 6.38679 7.2002 6.0002 7.2002C5.6136 7.2002 5.3002 6.88679 5.3002 6.5002ZM4.3002 13.5002C4.3002 13.1136 4.6136 12.8002 5.0002 12.8002C5.38679 12.8002 5.7002 13.1136 5.7002 13.5002C5.7002 13.8868 5.38679 14.2002 5.0002 14.2002C4.6136 14.2002 4.3002 13.8868 4.3002 13.5002Z" fill="url(#paint0_linear_3691_269)"/>
</g>
<defs>
<linearGradient id="paint0_linear_3691_269" x1="5.06114" y1="6.81456" x2="20.2998" y2="15.1841" gradientUnits="userSpaceOnUse">
<stop stop-color="#0048FF"/>
<stop offset="0.328125" stop-color="#0C81ED"/>
<stop offset="0.65" stop-color="#029DCE"/>
<stop offset="0.88" stop-color="#00BBB0"/>
<stop offset="1" stop-color="#00C5A8"/>
</linearGradient>
</defs>
</svg>
