<svg width="60" height="60" viewBox="0 0 60 60" fill="none" xmlns="http://www.w3.org/2000/svg">
<rect width="60" height="60" rx="14" fill="#ECEFFF"/>
<path d="M27.959 23.3957C28.3496 23.0251 28.9827 23.0251 29.3732 23.3957L32.7066 26.5586C33.0971 26.9292 33.0971 27.53 32.7066 27.9006L29.3732 31.0635C28.9827 31.4341 28.3496 31.4341 27.959 31.0635C27.5685 30.693 27.5685 30.0922 27.959 29.7216L30.5853 27.2296L27.959 24.7376C27.5685 24.3671 27.5685 23.7663 27.959 23.3957Z" fill="#2B4DFF"/>
<path fill-rule="evenodd" clip-rule="evenodd" d="M16.666 18.6963C16.1137 18.6963 15.666 19.1211 15.666 19.6452C15.666 20.1692 16.1137 20.5941 16.666 20.5941H18.3328L18.3328 34.8934C18.3328 35.145 18.4381 35.3864 18.6257 35.5643C18.8132 35.7423 19.0675 35.8422 19.3328 35.8422H28.0074L23.959 39.6836C23.5685 40.0542 23.5685 40.655 23.959 41.0256C24.3496 41.3961 24.9827 41.3961 25.3732 41.0256L29.9995 36.6358L34.6257 41.0256C35.0162 41.3961 35.6494 41.3961 36.0399 41.0256C36.4304 40.655 36.4304 40.0542 36.0399 39.6836L31.9916 35.8422H40.6661C41.2184 35.8422 41.6661 35.4174 41.6661 34.8934L41.6661 20.5941H43.3327C43.885 20.5941 44.3327 20.1692 44.3327 19.6452C44.3327 19.1211 43.885 18.6963 43.3327 18.6963H16.666ZM39.6661 20.5941H20.3328L20.3328 33.9445H39.6661L39.6661 20.5941Z" fill="#2B4DFF"/>
</svg>
