<svg width="40" height="40" viewBox="0 0 40 40" fill="none" xmlns="http://www.w3.org/2000/svg">
<g id="Frame">
<path id="Vector" d="M10 10L15.8333 15.8333M30 30L24.1667 24.1667" stroke="#F93131" stroke-width="3.33333" stroke-linecap="round" stroke-linejoin="round"/>
<path id="Vector_2" d="M30 10L24.1667 15.8333M10 30L15.8333 24.1667" stroke="#F93131" stroke-width="3.33333" stroke-linecap="round" stroke-linejoin="round"/>
<path id="Vector_3" d="M24.1663 15.833H15.833V24.1663H24.1663V15.833Z" fill="#F93131" stroke="#F93131" stroke-width="3.33333" stroke-linecap="round" stroke-linejoin="round"/>
<path id="Vector_4" d="M30.0003 15.8337C31.1541 15.8337 32.2818 15.4916 33.2412 14.8506C34.2004 14.2096 34.9481 13.2986 35.3897 12.2327C35.8312 11.1667 35.9467 9.99383 35.7216 8.86233C35.4965 7.73074 34.9409 6.69134 34.1251 5.87554C33.3093 5.05973 32.2699 4.50416 31.1383 4.27908C30.0068 4.054 28.8339 4.16952 27.768 4.61103C26.7021 5.05254 25.7911 5.80022 25.1501 6.7595C24.5091 7.71878 24.167 8.84657 24.167 10.0003" stroke="#F93131" stroke-width="3.33333" stroke-linecap="round" stroke-linejoin="round"/>
<path id="Vector_5" d="M30.0003 24.167C31.1541 24.167 32.2818 24.5091 33.2412 25.1501C34.2004 25.7911 34.9481 26.7021 35.3897 27.768C35.8312 28.8339 35.9467 30.0068 35.7216 31.1383C35.4965 32.2699 34.9409 33.3093 34.1251 34.1251C33.3093 34.9409 32.2699 35.4965 31.1383 35.7216C30.0068 35.9467 28.8339 35.8312 27.768 35.3897C26.7021 34.9481 25.7911 34.2004 25.1501 33.2412C24.5091 32.2818 24.167 31.1541 24.167 30.0003" stroke="#F93131" stroke-width="3.33333" stroke-linecap="round" stroke-linejoin="round"/>
<path id="Vector_6" d="M10.0003 24.167C8.84657 24.167 7.71879 24.5091 6.7595 25.1501C5.80022 25.7911 5.05254 26.7021 4.61103 27.768C4.16952 28.8339 4.054 30.0068 4.27908 31.1383C4.50416 32.2699 5.05973 33.3093 5.87554 34.1251C6.69134 34.9409 7.73074 35.4965 8.86233 35.7216C9.99383 35.9467 11.1667 35.8312 12.2327 35.3897C13.2986 34.9481 14.2096 34.2004 14.8506 33.2412C15.4916 32.2818 15.8337 31.1541 15.8337 30.0003" stroke="#F93131" stroke-width="3.33333" stroke-linecap="round" stroke-linejoin="round"/>
<path id="Vector_7" d="M10.0003 15.8337C8.84657 15.8337 7.71879 15.4916 6.7595 14.8506C5.80022 14.2096 5.05254 13.2986 4.61103 12.2327C4.16952 11.1667 4.054 9.99383 4.27908 8.86233C4.50416 7.73074 5.05973 6.69134 5.87554 5.87554C6.69134 5.05973 7.73074 4.50416 8.86233 4.27908C9.99383 4.054 11.1667 4.16952 12.2327 4.61103C13.2986 5.05254 14.2096 5.80022 14.8506 6.7595C15.4916 7.71878 15.8337 8.84657 15.8337 10.0003" stroke="#F93131" stroke-width="3.33333" stroke-linecap="round" stroke-linejoin="round"/>
</g>
</svg>
