<svg width="40" height="40" viewBox="0 0 40 40" fill="none" xmlns="http://www.w3.org/2000/svg">
<g id="Frame">
<path id="Vector" d="M19.9997 36.6663C24.9664 36.6663 21.9463 29.2797 24.9997 25.833C27.605 22.8921 36.6663 24.2377 36.6663 19.9997C36.6663 10.7949 29.2044 3.33301 19.9997 3.33301C10.7949 3.33301 3.33301 10.7949 3.33301 19.9997C3.33301 29.2044 10.7949 36.6663 19.9997 36.6663Z" fill="#FF984D" stroke="#FF984D" stroke-width="3.33333" stroke-linejoin="round"/>
<path id="Vector_2" d="M23.333 14.167C24.7138 14.167 25.833 13.0477 25.833 11.667C25.833 10.2862 24.7138 9.16699 23.333 9.16699C21.9523 9.16699 20.833 10.2862 20.833 11.667C20.833 13.0477 21.9523 14.167 23.333 14.167Z" fill="white" stroke="white" stroke-width="3.33333" stroke-linejoin="round"/>
<path id="Vector_3" d="M13.333 17.5C14.7138 17.5 15.833 16.3807 15.833 15C15.833 13.6192 14.7138 12.5 13.333 12.5C11.9523 12.5 10.833 13.6192 10.833 15C10.833 16.3807 11.9523 17.5 13.333 17.5Z" fill="white" stroke="white" stroke-width="3.33333" stroke-linejoin="round"/>
<path id="Vector_4" d="M14.167 28.333C15.5477 28.333 16.667 27.2138 16.667 25.833C16.667 24.4523 15.5477 23.333 14.167 23.333C12.7862 23.333 11.667 24.4523 11.667 25.833C11.667 27.2138 12.7862 28.333 14.167 28.333Z" fill="white" stroke="white" stroke-width="3.33333" stroke-linejoin="round"/>
</g>
</svg>
