<svg width="864" height="44" viewBox="0 0 864 44" fill="none" xmlns="http://www.w3.org/2000/svg">
<rect width="864" height="44" fill="url(#paint0_linear_1094_44)"/>
<path d="M83.972 16.768L83.588 18.928H79.012L78.596 21.344H82.02L81.636 23.424H78.212L77.412 28H74.676L76.66 16.768H83.972ZM87.506 28.128C86.738 28.128 86.0553 27.9733 85.458 27.664C84.8607 27.3547 84.3967 26.9173 84.066 26.352C83.746 25.7867 83.586 25.1307 83.586 24.384C83.586 23.3707 83.826 22.448 84.306 21.616C84.786 20.784 85.4473 20.1333 86.29 19.664C87.1327 19.184 88.0713 18.944 89.106 18.944C89.874 18.944 90.5567 19.104 91.154 19.424C91.762 19.7333 92.2313 20.1707 92.562 20.736C92.8927 21.3013 93.058 21.9573 93.058 22.704C93.058 23.728 92.8127 24.656 92.322 25.488C91.842 26.3093 91.1753 26.9547 90.322 27.424C89.4793 27.8933 88.5407 28.128 87.506 28.128ZM87.89 25.776C88.338 25.776 88.738 25.6427 89.09 25.376C89.4527 25.0987 89.73 24.7467 89.922 24.32C90.1247 23.8827 90.226 23.4293 90.226 22.96C90.226 22.4267 90.082 22.016 89.794 21.728C89.506 21.44 89.1433 21.296 88.706 21.296C88.2473 21.296 87.842 21.4347 87.49 21.712C87.1487 21.9787 86.882 22.3307 86.69 22.768C86.498 23.2053 86.402 23.664 86.402 24.144C86.402 24.6667 86.5407 25.072 86.818 25.36C87.0953 25.6373 87.4527 25.776 87.89 25.776ZM97.6295 20.688C98.0455 20.1547 98.5202 19.7387 99.0535 19.44C99.5975 19.1307 100.163 18.976 100.75 18.976L100.238 21.872H99.4855C98.8028 21.872 98.2642 22.0213 97.8695 22.32C97.4748 22.608 97.2135 23.12 97.0855 23.856L96.3495 28H93.6135L95.1815 19.072H97.9175L97.6295 20.688ZM104.416 23.52C104.576 22.6027 104.891 21.7973 105.36 21.104C105.83 20.4107 106.395 19.8773 107.056 19.504C107.718 19.1307 108.416 18.944 109.152 18.944C109.739 18.944 110.251 19.0667 110.688 19.312C111.136 19.5573 111.462 19.888 111.664 20.304L112.4 16.16H115.136L113.04 28H110.304L110.528 26.72C110.187 27.1467 109.76 27.488 109.248 27.744C108.736 28 108.166 28.128 107.536 28.128C106.907 28.128 106.347 27.984 105.856 27.696C105.376 27.408 104.998 26.9973 104.72 26.464C104.454 25.9307 104.32 25.3067 104.32 24.592C104.32 24.2613 104.352 23.904 104.416 23.52ZM111.104 23.536C111.136 23.344 111.152 23.168 111.152 23.008C111.152 22.4853 110.998 22.0747 110.688 21.776C110.39 21.4773 110.006 21.328 109.536 21.328C108.992 21.328 108.496 21.5253 108.048 21.92C107.6 22.304 107.318 22.8373 107.2 23.52C107.168 23.712 107.152 23.888 107.152 24.048C107.152 24.5707 107.302 24.9867 107.6 25.296C107.91 25.5947 108.294 25.744 108.752 25.744C109.296 25.744 109.792 25.5467 110.24 25.152C110.688 24.7573 110.976 24.2187 111.104 23.536ZM120.588 18.944C121.74 18.944 122.652 19.2587 123.324 19.888C124.006 20.5067 124.348 21.3547 124.348 22.432C124.348 22.784 124.321 23.0987 124.268 23.376C124.225 23.6213 124.161 23.8827 124.076 24.16H117.884C117.873 24.224 117.868 24.3253 117.868 24.464C117.868 24.9333 117.996 25.2907 118.252 25.536C118.508 25.7813 118.849 25.904 119.276 25.904C119.958 25.904 120.481 25.616 120.844 25.04H123.756C123.372 25.9467 122.748 26.688 121.884 27.264C121.02 27.84 120.049 28.128 118.972 28.128C117.82 28.128 116.897 27.808 116.204 27.168C115.521 26.528 115.18 25.6587 115.18 24.56C115.18 24.2293 115.212 23.888 115.276 23.536C115.436 22.608 115.766 21.7973 116.268 21.104C116.769 20.4107 117.393 19.8773 118.14 19.504C118.886 19.1307 119.702 18.944 120.588 18.944ZM121.58 22.768C121.601 22.6187 121.612 22.5173 121.612 22.464C121.612 22.0373 121.478 21.712 121.212 21.488C120.945 21.2533 120.593 21.136 120.156 21.136C119.686 21.136 119.27 21.28 118.908 21.568C118.556 21.8453 118.3 22.2453 118.14 22.768H121.58ZM128.591 24.928C128.58 24.9813 128.575 25.0507 128.575 25.136C128.575 25.328 128.628 25.4667 128.735 25.552C128.852 25.6373 129.039 25.68 129.295 25.68H130.271L129.855 28H128.463C126.671 28 125.775 27.248 125.775 25.744C125.775 25.52 125.802 25.2373 125.855 24.896L126.495 21.344H125.407L125.807 19.072H126.895L127.279 16.896H130.015L129.631 19.072H131.423L131.023 21.344H129.231L128.591 24.928ZM131.635 23.52C131.795 22.6027 132.11 21.7973 132.579 21.104C133.048 20.4107 133.614 19.8773 134.275 19.504C134.936 19.1307 135.635 18.944 136.371 18.944C137 18.944 137.528 19.072 137.955 19.328C138.382 19.584 138.691 19.92 138.883 20.336L139.107 19.072H141.843L140.259 28H137.523L137.763 26.736C137.422 27.152 136.99 27.488 136.467 27.744C135.944 28 135.368 28.128 134.739 28.128C134.11 28.128 133.55 27.984 133.059 27.696C132.579 27.408 132.206 27.0027 131.939 26.48C131.672 25.9467 131.539 25.3227 131.539 24.608C131.539 24.2667 131.571 23.904 131.635 23.52ZM138.323 23.536C138.355 23.344 138.371 23.168 138.371 23.008C138.371 22.4853 138.216 22.0747 137.907 21.776C137.608 21.4773 137.224 21.328 136.755 21.328C136.211 21.328 135.715 21.5253 135.267 21.92C134.819 22.304 134.536 22.8373 134.419 23.52C134.387 23.712 134.371 23.888 134.371 24.048C134.371 24.5707 134.52 24.9867 134.819 25.296C135.128 25.5947 135.512 25.744 135.971 25.744C136.515 25.744 137.011 25.5467 137.459 25.152C137.907 24.7573 138.195 24.2187 138.323 23.536ZM145.359 18.144C144.932 18.144 144.591 18.032 144.335 17.808C144.089 17.5733 143.967 17.28 143.967 16.928C143.967 16.448 144.153 16.0373 144.527 15.696C144.9 15.3547 145.353 15.184 145.887 15.184C146.313 15.184 146.649 15.3013 146.895 15.536C147.14 15.76 147.263 16.0533 147.263 16.416C147.263 16.8853 147.076 17.2907 146.703 17.632C146.329 17.9733 145.881 18.144 145.359 18.144ZM146.543 19.072L144.975 28H142.239L143.807 19.072H146.543ZM151.789 16.16L149.693 28H146.957L149.053 16.16H151.789ZM157.244 18.944C158.396 18.944 159.308 19.2587 159.98 19.888C160.663 20.5067 161.004 21.3547 161.004 22.432C161.004 22.784 160.977 23.0987 160.924 23.376C160.881 23.6213 160.817 23.8827 160.732 24.16H154.54C154.529 24.224 154.524 24.3253 154.524 24.464C154.524 24.9333 154.652 25.2907 154.908 25.536C155.164 25.7813 155.505 25.904 155.932 25.904C156.615 25.904 157.137 25.616 157.5 25.04H160.412C160.028 25.9467 159.404 26.688 158.54 27.264C157.676 27.84 156.705 28.128 155.628 28.128C154.476 28.128 153.553 27.808 152.86 27.168C152.177 26.528 151.836 25.6587 151.836 24.56C151.836 24.2293 151.868 23.888 151.932 23.536C152.092 22.608 152.423 21.7973 152.924 21.104C153.425 20.4107 154.049 19.8773 154.796 19.504C155.543 19.1307 156.359 18.944 157.244 18.944ZM158.236 22.768C158.257 22.6187 158.268 22.5173 158.268 22.464C158.268 22.0373 158.135 21.712 157.868 21.488C157.601 21.2533 157.249 21.136 156.812 21.136C156.343 21.136 155.927 21.28 155.564 21.568C155.212 21.8453 154.956 22.2453 154.796 22.768H158.236ZM161.791 23.52C161.951 22.6027 162.266 21.7973 162.735 21.104C163.205 20.4107 163.77 19.8773 164.431 19.504C165.093 19.1307 165.791 18.944 166.527 18.944C167.114 18.944 167.626 19.0667 168.063 19.312C168.511 19.5573 168.837 19.888 169.039 20.304L169.775 16.16H172.511L170.415 28H167.679L167.903 26.72C167.562 27.1467 167.135 27.488 166.623 27.744C166.111 28 165.541 28.128 164.911 28.128C164.282 28.128 163.722 27.984 163.231 27.696C162.751 27.408 162.373 26.9973 162.095 26.464C161.829 25.9307 161.695 25.3067 161.695 24.592C161.695 24.2613 161.727 23.904 161.791 23.52ZM168.479 23.536C168.511 23.344 168.527 23.168 168.527 23.008C168.527 22.4853 168.373 22.0747 168.063 21.776C167.765 21.4773 167.381 21.328 166.911 21.328C166.367 21.328 165.871 21.5253 165.423 21.92C164.975 22.304 164.693 22.8373 164.575 23.52C164.543 23.712 164.527 23.888 164.527 24.048C164.527 24.5707 164.677 24.9867 164.975 25.296C165.285 25.5947 165.669 25.744 166.127 25.744C166.671 25.744 167.167 25.5467 167.615 25.152C168.063 24.7573 168.351 24.2187 168.479 23.536ZM179.218 18.144C178.791 18.144 178.45 18.032 178.194 17.808C177.949 17.5733 177.826 17.28 177.826 16.928C177.826 16.448 178.013 16.0373 178.386 15.696C178.759 15.3547 179.213 15.184 179.746 15.184C180.173 15.184 180.509 15.3013 180.754 15.536C180.999 15.76 181.122 16.0533 181.122 16.416C181.122 16.8853 180.935 17.2907 180.562 17.632C180.189 17.9733 179.741 18.144 179.218 18.144ZM180.402 19.072L178.834 28H176.098L177.666 19.072H180.402ZM187.841 18.976C188.737 18.976 189.441 19.2267 189.953 19.728C190.465 20.2293 190.721 20.928 190.721 21.824C190.721 22.1227 190.689 22.4427 190.625 22.784L189.697 28H186.977L187.841 23.152C187.873 22.9707 187.889 22.8107 187.889 22.672C187.889 22.224 187.761 21.8773 187.505 21.632C187.259 21.3867 186.913 21.264 186.465 21.264C185.931 21.264 185.483 21.4293 185.121 21.76C184.758 22.0907 184.523 22.5547 184.417 23.152V23.072L183.553 28H180.817L182.385 19.072H185.121L184.913 20.272C185.265 19.8773 185.691 19.5627 186.193 19.328C186.705 19.0933 187.254 18.976 187.841 18.976ZM197.838 17.792C197.315 17.76 196.931 17.8347 196.686 18.016C196.451 18.1973 196.291 18.5227 196.206 18.992L196.19 19.072H197.662L197.262 21.344H195.79L194.622 28H191.87L193.038 21.344H192.046L192.446 19.072H193.438L193.486 18.816C193.689 17.7173 194.153 16.8853 194.878 16.32C195.614 15.744 196.59 15.456 197.806 15.456C197.998 15.456 198.142 15.4613 198.238 15.472L197.838 17.792ZM201.444 28.128C200.676 28.128 199.993 27.9733 199.396 27.664C198.798 27.3547 198.334 26.9173 198.004 26.352C197.684 25.7867 197.524 25.1307 197.524 24.384C197.524 23.3707 197.764 22.448 198.243 21.616C198.724 20.784 199.385 20.1333 200.228 19.664C201.07 19.184 202.009 18.944 203.044 18.944C203.812 18.944 204.494 19.104 205.092 19.424C205.7 19.7333 206.169 20.1707 206.5 20.736C206.83 21.3013 206.996 21.9573 206.996 22.704C206.996 23.728 206.75 24.656 206.26 25.488C205.78 26.3093 205.113 26.9547 204.26 27.424C203.417 27.8933 202.478 28.128 201.444 28.128ZM201.828 25.776C202.276 25.776 202.676 25.6427 203.028 25.376C203.39 25.0987 203.668 24.7467 203.86 24.32C204.062 23.8827 204.164 23.4293 204.164 22.96C204.164 22.4267 204.02 22.016 203.732 21.728C203.444 21.44 203.081 21.296 202.644 21.296C202.185 21.296 201.78 21.4347 201.428 21.712C201.086 21.9787 200.82 22.3307 200.628 22.768C200.436 23.2053 200.34 23.664 200.34 24.144C200.34 24.6667 200.478 25.072 200.756 25.36C201.033 25.6373 201.39 25.776 201.828 25.776ZM211.567 20.688C211.983 20.1547 212.458 19.7387 212.991 19.44C213.535 19.1307 214.1 18.976 214.687 18.976L214.175 21.872H213.423C212.74 21.872 212.202 22.0213 211.807 22.32C211.412 22.608 211.151 23.12 211.023 23.856L210.287 28H207.551L209.119 19.072H211.855L211.567 20.688ZM227.387 18.976C228.347 18.976 229.093 19.232 229.627 19.744C230.171 20.2453 230.443 20.9493 230.443 21.856C230.443 22.1333 230.411 22.4427 230.347 22.784L229.419 28H226.699L227.563 23.152C227.584 23.0453 227.595 22.9013 227.595 22.72C227.595 22.272 227.467 21.9307 227.211 21.696C226.965 21.4613 226.619 21.344 226.171 21.344C225.637 21.344 225.189 21.504 224.827 21.824C224.464 22.1333 224.235 22.576 224.139 23.152L223.275 28H220.555L221.419 23.152C221.44 23.0453 221.451 22.9013 221.451 22.72C221.451 22.272 221.323 21.9307 221.067 21.696C220.821 21.4613 220.475 21.344 220.027 21.344C219.493 21.344 219.045 21.504 218.683 21.824C218.32 22.1333 218.091 22.576 217.995 23.152V23.072L217.131 28H214.395L215.963 19.072H218.699L218.507 20.208C218.848 19.824 219.259 19.5253 219.739 19.312C220.229 19.088 220.757 18.976 221.323 18.976C222.005 18.976 222.581 19.12 223.051 19.408C223.531 19.696 223.872 20.112 224.075 20.656C224.469 20.1547 224.96 19.7493 225.547 19.44C226.133 19.1307 226.747 18.976 227.387 18.976ZM231.588 23.52C231.748 22.6027 232.063 21.7973 232.532 21.104C233.002 20.4107 233.567 19.8773 234.228 19.504C234.89 19.1307 235.588 18.944 236.324 18.944C236.954 18.944 237.482 19.072 237.908 19.328C238.335 19.584 238.644 19.92 238.836 20.336L239.06 19.072H241.796L240.212 28H237.476L237.716 26.736C237.375 27.152 236.943 27.488 236.42 27.744C235.898 28 235.322 28.128 234.692 28.128C234.063 28.128 233.503 27.984 233.012 27.696C232.532 27.408 232.159 27.0027 231.892 26.48C231.626 25.9467 231.492 25.3227 231.492 24.608C231.492 24.2667 231.524 23.904 231.588 23.52ZM238.276 23.536C238.308 23.344 238.324 23.168 238.324 23.008C238.324 22.4853 238.17 22.0747 237.86 21.776C237.562 21.4773 237.178 21.328 236.708 21.328C236.164 21.328 235.668 21.5253 235.22 21.92C234.772 22.304 234.49 22.8373 234.372 23.52C234.34 23.712 234.324 23.888 234.324 24.048C234.324 24.5707 234.474 24.9867 234.772 25.296C235.082 25.5947 235.466 25.744 235.924 25.744C236.468 25.744 236.964 25.5467 237.412 25.152C237.86 24.7573 238.148 24.2187 238.276 23.536ZM245.904 24.928C245.893 24.9813 245.888 25.0507 245.888 25.136C245.888 25.328 245.941 25.4667 246.048 25.552C246.165 25.6373 246.352 25.68 246.608 25.68H247.584L247.168 28H245.776C243.984 28 243.088 27.248 243.088 25.744C243.088 25.52 243.114 25.2373 243.168 24.896L243.808 21.344H242.72L243.12 19.072H244.208L244.592 16.896H247.328L246.944 19.072H248.736L248.336 21.344H246.544L245.904 24.928ZM251.812 18.144C251.385 18.144 251.044 18.032 250.788 17.808C250.542 17.5733 250.42 17.28 250.42 16.928C250.42 16.448 250.606 16.0373 250.98 15.696C251.353 15.3547 251.806 15.184 252.34 15.184C252.766 15.184 253.102 15.3013 253.348 15.536C253.593 15.76 253.716 16.0533 253.716 16.416C253.716 16.8853 253.529 17.2907 253.156 17.632C252.782 17.9733 252.334 18.144 251.812 18.144ZM252.996 19.072L251.428 28H248.692L250.26 19.072H252.996ZM257.49 28.128C256.722 28.128 256.04 27.9733 255.442 27.664C254.845 27.3547 254.381 26.9173 254.05 26.352C253.73 25.7867 253.57 25.1307 253.57 24.384C253.57 23.3707 253.81 22.448 254.29 21.616C254.77 20.784 255.432 20.1333 256.274 19.664C257.117 19.184 258.056 18.944 259.09 18.944C259.858 18.944 260.541 19.104 261.138 19.424C261.746 19.7333 262.216 20.1707 262.546 20.736C262.877 21.3013 263.042 21.9573 263.042 22.704C263.042 23.728 262.797 24.656 262.306 25.488C261.826 26.3093 261.16 26.9547 260.306 27.424C259.464 27.8933 258.525 28.128 257.49 28.128ZM257.874 25.776C258.322 25.776 258.722 25.6427 259.074 25.376C259.437 25.0987 259.714 24.7467 259.906 24.32C260.109 23.8827 260.21 23.4293 260.21 22.96C260.21 22.4267 260.066 22.016 259.778 21.728C259.49 21.44 259.128 21.296 258.69 21.296C258.232 21.296 257.826 21.4347 257.474 21.712C257.133 21.9787 256.866 22.3307 256.674 22.768C256.482 23.2053 256.386 23.664 256.386 24.144C256.386 24.6667 256.525 25.072 256.802 25.36C257.08 25.6373 257.437 25.776 257.874 25.776ZM270.622 18.976C271.518 18.976 272.222 19.2267 272.734 19.728C273.246 20.2293 273.502 20.928 273.502 21.824C273.502 22.1227 273.47 22.4427 273.406 22.784L272.478 28H269.758L270.622 23.152C270.654 22.9707 270.67 22.8107 270.67 22.672C270.67 22.224 270.542 21.8773 270.286 21.632C270.041 21.3867 269.694 21.264 269.246 21.264C268.713 21.264 268.265 21.4293 267.902 21.76C267.539 22.0907 267.305 22.5547 267.198 23.152V23.072L266.334 28H263.598L265.166 19.072H267.902L267.694 20.272C268.046 19.8773 268.473 19.5627 268.974 19.328C269.486 19.0933 270.035 18.976 270.622 18.976ZM282.162 28.128C281.394 28.128 280.712 27.9733 280.114 27.664C279.517 27.3547 279.053 26.9173 278.722 26.352C278.402 25.7867 278.242 25.1307 278.242 24.384C278.242 23.3707 278.482 22.448 278.962 21.616C279.442 20.784 280.104 20.1333 280.946 19.664C281.789 19.184 282.728 18.944 283.762 18.944C284.53 18.944 285.213 19.104 285.81 19.424C286.418 19.7333 286.888 20.1707 287.218 20.736C287.549 21.3013 287.714 21.9573 287.714 22.704C287.714 23.728 287.469 24.656 286.978 25.488C286.498 26.3093 285.832 26.9547 284.978 27.424C284.136 27.8933 283.197 28.128 282.162 28.128ZM282.546 25.776C282.994 25.776 283.394 25.6427 283.746 25.376C284.109 25.0987 284.386 24.7467 284.578 24.32C284.781 23.8827 284.882 23.4293 284.882 22.96C284.882 22.4267 284.738 22.016 284.45 21.728C284.162 21.44 283.8 21.296 283.362 21.296C282.904 21.296 282.498 21.4347 282.146 21.712C281.805 21.9787 281.538 22.3307 281.346 22.768C281.154 23.2053 281.058 23.664 281.058 24.144C281.058 24.6667 281.197 25.072 281.474 25.36C281.752 25.6373 282.109 25.776 282.546 25.776ZM295.294 18.976C296.19 18.976 296.894 19.2267 297.406 19.728C297.918 20.2293 298.174 20.928 298.174 21.824C298.174 22.1227 298.142 22.4427 298.078 22.784L297.15 28H294.43L295.294 23.152C295.326 22.9707 295.342 22.8107 295.342 22.672C295.342 22.224 295.214 21.8773 294.958 21.632C294.712 21.3867 294.366 21.264 293.918 21.264C293.384 21.264 292.936 21.4293 292.574 21.76C292.211 22.0907 291.976 22.5547 291.87 23.152V23.072L291.006 28H288.27L289.838 19.072H292.574L292.366 20.272C292.718 19.8773 293.144 19.5627 293.646 19.328C294.158 19.0933 294.707 18.976 295.294 18.976ZM303.01 23.52C303.17 22.6027 303.485 21.7973 303.954 21.104C304.423 20.4107 304.989 19.8773 305.65 19.504C306.311 19.1307 307.01 18.944 307.746 18.944C308.375 18.944 308.903 19.072 309.33 19.328C309.757 19.584 310.066 19.92 310.258 20.336L310.482 19.072H313.218L311.634 28H308.898L309.138 26.736C308.797 27.152 308.365 27.488 307.842 27.744C307.319 28 306.743 28.128 306.114 28.128C305.485 28.128 304.925 27.984 304.434 27.696C303.954 27.408 303.581 27.0027 303.314 26.48C303.047 25.9467 302.914 25.3227 302.914 24.608C302.914 24.2667 302.946 23.904 303.01 23.52ZM309.698 23.536C309.73 23.344 309.746 23.168 309.746 23.008C309.746 22.4853 309.591 22.0747 309.282 21.776C308.983 21.4773 308.599 21.328 308.13 21.328C307.586 21.328 307.09 21.5253 306.642 21.92C306.194 22.304 305.911 22.8373 305.794 23.52C305.762 23.712 305.746 23.888 305.746 24.048C305.746 24.5707 305.895 24.9867 306.194 25.296C306.503 25.5947 306.887 25.744 307.346 25.744C307.89 25.744 308.386 25.5467 308.834 25.152C309.282 24.7573 309.57 24.2187 309.698 23.536ZM318.446 16.16L316.35 28H313.614L315.71 16.16H318.446ZM323.164 16.16L321.068 28H318.332L320.428 16.16H323.164ZM327.01 23.52C327.17 22.6027 327.485 21.7973 327.954 21.104C328.423 20.4107 328.989 19.8773 329.65 19.504C330.311 19.1307 331.01 18.944 331.746 18.944C332.375 18.944 332.903 19.072 333.33 19.328C333.757 19.584 334.066 19.92 334.258 20.336L334.482 19.072H337.218L335.634 28H332.898L333.138 26.736C332.797 27.152 332.365 27.488 331.842 27.744C331.319 28 330.743 28.128 330.114 28.128C329.485 28.128 328.925 27.984 328.434 27.696C327.954 27.408 327.581 27.0027 327.314 26.48C327.047 25.9467 326.914 25.3227 326.914 24.608C326.914 24.2667 326.946 23.904 327.01 23.52ZM333.698 23.536C333.73 23.344 333.746 23.168 333.746 23.008C333.746 22.4853 333.591 22.0747 333.282 21.776C332.983 21.4773 332.599 21.328 332.13 21.328C331.586 21.328 331.09 21.5253 330.642 21.92C330.194 22.304 329.911 22.8373 329.794 23.52C329.762 23.712 329.746 23.888 329.746 24.048C329.746 24.5707 329.895 24.9867 330.194 25.296C330.503 25.5947 330.887 25.744 331.346 25.744C331.89 25.744 332.386 25.5467 332.834 25.152C333.282 24.7573 333.57 24.2187 333.698 23.536ZM342.078 25.44L345.15 19.072H348.078L343.326 28H339.934L338.35 19.072H341.262L342.078 25.44ZM347.885 23.52C348.045 22.6027 348.36 21.7973 348.829 21.104C349.298 20.4107 349.864 19.8773 350.525 19.504C351.186 19.1307 351.885 18.944 352.621 18.944C353.25 18.944 353.778 19.072 354.205 19.328C354.632 19.584 354.941 19.92 355.133 20.336L355.357 19.072H358.093L356.509 28H353.773L354.013 26.736C353.672 27.152 353.24 27.488 352.717 27.744C352.194 28 351.618 28.128 350.989 28.128C350.36 28.128 349.8 27.984 349.309 27.696C348.829 27.408 348.456 27.0027 348.189 26.48C347.922 25.9467 347.789 25.3227 347.789 24.608C347.789 24.2667 347.821 23.904 347.885 23.52ZM354.573 23.536C354.605 23.344 354.621 23.168 354.621 23.008C354.621 22.4853 354.466 22.0747 354.157 21.776C353.858 21.4773 353.474 21.328 353.005 21.328C352.461 21.328 351.965 21.5253 351.517 21.92C351.069 22.304 350.786 22.8373 350.669 23.52C350.637 23.712 350.621 23.888 350.621 24.048C350.621 24.5707 350.77 24.9867 351.069 25.296C351.378 25.5947 351.762 25.744 352.221 25.744C352.765 25.744 353.261 25.5467 353.709 25.152C354.157 24.7573 354.445 24.2187 354.573 23.536ZM361.609 18.144C361.182 18.144 360.841 18.032 360.585 17.808C360.339 17.5733 360.217 17.28 360.217 16.928C360.217 16.448 360.403 16.0373 360.777 15.696C361.15 15.3547 361.603 15.184 362.137 15.184C362.563 15.184 362.899 15.3013 363.145 15.536C363.39 15.76 363.513 16.0533 363.513 16.416C363.513 16.8853 363.326 17.2907 362.953 17.632C362.579 17.9733 362.131 18.144 361.609 18.144ZM362.793 19.072L361.225 28H358.489L360.057 19.072H362.793ZM368.039 16.16L365.943 28H363.207L365.303 16.16H368.039ZM368.182 23.52C368.342 22.6027 368.657 21.7973 369.126 21.104C369.595 20.4107 370.161 19.8773 370.822 19.504C371.483 19.1307 372.182 18.944 372.918 18.944C373.547 18.944 374.075 19.072 374.502 19.328C374.929 19.584 375.238 19.92 375.43 20.336L375.654 19.072H378.39L376.806 28H374.07L374.31 26.736C373.969 27.152 373.537 27.488 373.014 27.744C372.491 28 371.915 28.128 371.286 28.128C370.657 28.128 370.097 27.984 369.606 27.696C369.126 27.408 368.753 27.0027 368.486 26.48C368.219 25.9467 368.086 25.3227 368.086 24.608C368.086 24.2667 368.118 23.904 368.182 23.52ZM374.87 23.536C374.902 23.344 374.918 23.168 374.918 23.008C374.918 22.4853 374.763 22.0747 374.454 21.776C374.155 21.4773 373.771 21.328 373.302 21.328C372.758 21.328 372.262 21.5253 371.814 21.92C371.366 22.304 371.083 22.8373 370.966 23.52C370.934 23.712 370.918 23.888 370.918 24.048C370.918 24.5707 371.067 24.9867 371.366 25.296C371.675 25.5947 372.059 25.744 372.518 25.744C373.062 25.744 373.558 25.5467 374.006 25.152C374.454 24.7573 374.742 24.2187 374.87 23.536ZM382.865 20.336C383.207 19.92 383.639 19.584 384.161 19.328C384.684 19.072 385.255 18.944 385.873 18.944C386.833 18.944 387.607 19.2587 388.193 19.888C388.791 20.5067 389.089 21.3547 389.089 22.432C389.089 22.7733 389.057 23.136 388.993 23.52C388.833 24.4373 388.519 25.248 388.049 25.952C387.58 26.6453 387.015 27.184 386.353 27.568C385.692 27.9413 384.993 28.128 384.257 28.128C383.628 28.128 383.1 28.0053 382.673 27.76C382.247 27.504 381.937 27.168 381.745 26.752L381.521 28H378.785L380.881 16.16H383.617L382.865 20.336ZM386.225 23.52C386.257 23.3387 386.273 23.1733 386.273 23.024C386.273 22.4907 386.119 22.0747 385.809 21.776C385.511 21.4773 385.127 21.328 384.657 21.328C384.113 21.328 383.617 21.5253 383.169 21.92C382.721 22.3147 382.433 22.8533 382.305 23.536C382.273 23.728 382.257 23.904 382.257 24.064C382.257 24.5867 382.407 24.9973 382.705 25.296C383.004 25.5947 383.388 25.744 383.857 25.744C384.401 25.744 384.897 25.5467 385.345 25.152C385.804 24.7467 386.097 24.2027 386.225 23.52ZM394.477 16.16L392.381 28H389.645L391.741 16.16H394.477ZM399.932 18.944C401.084 18.944 401.996 19.2587 402.668 19.888C403.35 20.5067 403.692 21.3547 403.692 22.432C403.692 22.784 403.665 23.0987 403.612 23.376C403.569 23.6213 403.505 23.8827 403.42 24.16H397.228C397.217 24.224 397.212 24.3253 397.212 24.464C397.212 24.9333 397.34 25.2907 397.596 25.536C397.852 25.7813 398.193 25.904 398.62 25.904C399.302 25.904 399.825 25.616 400.188 25.04H403.1C402.716 25.9467 402.092 26.688 401.228 27.264C400.364 27.84 399.393 28.128 398.316 28.128C397.164 28.128 396.241 27.808 395.548 27.168C394.865 26.528 394.524 25.6587 394.524 24.56C394.524 24.2293 394.556 23.888 394.62 23.536C394.78 22.608 395.11 21.7973 395.612 21.104C396.113 20.4107 396.737 19.8773 397.484 19.504C398.23 19.1307 399.046 18.944 399.932 18.944ZM400.924 22.768C400.945 22.6187 400.956 22.5173 400.956 22.464C400.956 22.0373 400.822 21.712 400.556 21.488C400.289 21.2533 399.937 21.136 399.5 21.136C399.03 21.136 398.614 21.28 398.252 21.568C397.9 21.8453 397.644 22.2453 397.484 22.768H400.924ZM415.27 26.016H411.078L410.054 28H407.19L413.238 16.768H416.406L418.486 28H415.59L415.27 26.016ZM414.95 23.936L414.294 19.776L412.15 23.936H414.95ZM429.627 20.384C429.52 21.0347 429.27 21.632 428.875 22.176C428.48 22.7093 427.942 23.1413 427.259 23.472C426.587 23.8027 425.792 23.968 424.875 23.968H423.179L422.459 28H419.723L421.707 16.768H426.139C427.312 16.768 428.198 17.0293 428.795 17.552C429.392 18.064 429.691 18.7627 429.691 19.648C429.691 19.9147 429.67 20.16 429.627 20.384ZM425.035 21.824C426.059 21.824 426.662 21.344 426.843 20.384C426.864 20.2133 426.875 20.0907 426.875 20.016C426.875 19.6747 426.763 19.4133 426.539 19.232C426.326 19.04 425.995 18.944 425.547 18.944H424.059L423.563 21.824H425.035ZM434.427 16.768L432.443 28H429.707L431.691 16.768H434.427ZM438.138 28.128C437.434 28.128 436.799 28.016 436.234 27.792C435.679 27.568 435.242 27.2587 434.922 26.864C434.602 26.4587 434.442 25.9947 434.442 25.472C434.442 25.3973 434.453 25.264 434.474 25.072H437.114C437.093 25.4027 437.189 25.6693 437.402 25.872C437.626 26.064 437.941 26.16 438.346 26.16C438.687 26.16 438.97 26.096 439.194 25.968C439.418 25.84 439.53 25.6587 439.53 25.424C439.53 25.2 439.407 25.024 439.162 24.896C438.927 24.7573 438.533 24.592 437.978 24.4C437.402 24.208 436.917 24.0213 436.522 23.84C436.138 23.648 435.807 23.376 435.53 23.024C435.253 22.672 435.114 22.2293 435.114 21.696C435.114 21.1733 435.269 20.704 435.578 20.288C435.887 19.8613 436.319 19.5307 436.874 19.296C437.439 19.0613 438.09 18.944 438.826 18.944C439.562 18.944 440.202 19.0667 440.746 19.312C441.29 19.5467 441.711 19.8773 442.01 20.304C442.309 20.7307 442.458 21.2107 442.458 21.744L442.442 21.984H439.962C439.983 21.664 439.887 21.408 439.674 21.216C439.461 21.024 439.157 20.928 438.762 20.928C438.453 20.928 438.197 20.992 437.994 21.12C437.802 21.248 437.706 21.424 437.706 21.648C437.706 21.8827 437.834 22.08 438.09 22.24C438.357 22.3893 438.767 22.56 439.322 22.752C439.898 22.944 440.373 23.136 440.746 23.328C441.13 23.5093 441.455 23.7707 441.722 24.112C441.999 24.4427 442.138 24.8587 442.138 25.36C442.138 25.936 441.962 26.432 441.61 26.848C441.269 27.264 440.794 27.584 440.186 27.808C439.589 28.0213 438.906 28.128 438.138 28.128ZM446.916 25.408L444.324 30.048H442.532L444.132 25.408H446.916ZM455.772 20.336C456.113 19.92 456.54 19.584 457.052 19.328C457.574 19.072 458.15 18.944 458.78 18.944C459.74 18.944 460.513 19.2587 461.1 19.888C461.697 20.5173 461.996 21.3707 461.996 22.448C461.996 22.7787 461.964 23.136 461.9 23.52C461.74 24.4373 461.425 25.248 460.956 25.952C460.486 26.6453 459.921 27.184 459.26 27.568C458.598 27.9413 457.9 28.128 457.164 28.128C456.545 28.128 456.022 28 455.596 27.744C455.169 27.488 454.854 27.1573 454.652 26.752L453.676 32.256H450.94L453.26 19.072H455.996L455.772 20.336ZM459.132 23.52C459.164 23.3387 459.18 23.1733 459.18 23.024C459.18 22.4907 459.025 22.0747 458.716 21.776C458.417 21.4773 458.033 21.328 457.564 21.328C457.02 21.328 456.524 21.5253 456.076 21.92C455.628 22.3147 455.34 22.8533 455.212 23.536C455.18 23.728 455.164 23.904 455.164 24.064C455.164 24.5867 455.313 24.9973 455.612 25.296C455.91 25.5947 456.294 25.744 456.764 25.744C457.308 25.744 457.804 25.5467 458.252 25.152C458.71 24.7467 459.004 24.2027 459.132 23.52ZM467.383 16.16L465.287 28H462.551L464.647 16.16H467.383ZM472.838 18.944C473.99 18.944 474.902 19.2587 475.574 19.888C476.256 20.5067 476.598 21.3547 476.598 22.432C476.598 22.784 476.571 23.0987 476.518 23.376C476.475 23.6213 476.411 23.8827 476.326 24.16H470.134C470.123 24.224 470.118 24.3253 470.118 24.464C470.118 24.9333 470.246 25.2907 470.502 25.536C470.758 25.7813 471.099 25.904 471.526 25.904C472.208 25.904 472.731 25.616 473.094 25.04H476.006C475.622 25.9467 474.998 26.688 474.134 27.264C473.27 27.84 472.299 28.128 471.222 28.128C470.07 28.128 469.147 27.808 468.454 27.168C467.771 26.528 467.43 25.6587 467.43 24.56C467.43 24.2293 467.462 23.888 467.526 23.536C467.686 22.608 468.016 21.7973 468.518 21.104C469.019 20.4107 469.643 19.8773 470.39 19.504C471.136 19.1307 471.952 18.944 472.838 18.944ZM473.83 22.768C473.851 22.6187 473.862 22.5173 473.862 22.464C473.862 22.0373 473.728 21.712 473.462 21.488C473.195 21.2533 472.843 21.136 472.406 21.136C471.936 21.136 471.52 21.28 471.158 21.568C470.806 21.8453 470.55 22.2453 470.39 22.768H473.83ZM477.385 23.52C477.545 22.6027 477.86 21.7973 478.329 21.104C478.798 20.4107 479.364 19.8773 480.025 19.504C480.686 19.1307 481.385 18.944 482.121 18.944C482.75 18.944 483.278 19.072 483.705 19.328C484.132 19.584 484.441 19.92 484.633 20.336L484.857 19.072H487.593L486.009 28H483.273L483.513 26.736C483.172 27.152 482.74 27.488 482.217 27.744C481.694 28 481.118 28.128 480.489 28.128C479.86 28.128 479.3 27.984 478.809 27.696C478.329 27.408 477.956 27.0027 477.689 26.48C477.422 25.9467 477.289 25.3227 477.289 24.608C477.289 24.2667 477.321 23.904 477.385 23.52ZM484.073 23.536C484.105 23.344 484.121 23.168 484.121 23.008C484.121 22.4853 483.966 22.0747 483.657 21.776C483.358 21.4773 482.974 21.328 482.505 21.328C481.961 21.328 481.465 21.5253 481.017 21.92C480.569 22.304 480.286 22.8373 480.169 23.52C480.137 23.712 480.121 23.888 480.121 24.048C480.121 24.5707 480.27 24.9867 480.569 25.296C480.878 25.5947 481.262 25.744 481.721 25.744C482.265 25.744 482.761 25.5467 483.209 25.152C483.657 24.7573 483.945 24.2187 484.073 23.536ZM491.701 28.128C490.997 28.128 490.362 28.016 489.797 27.792C489.242 27.568 488.805 27.2587 488.485 26.864C488.165 26.4587 488.005 25.9947 488.005 25.472C488.005 25.3973 488.015 25.264 488.037 25.072H490.677C490.655 25.4027 490.751 25.6693 490.965 25.872C491.189 26.064 491.503 26.16 491.909 26.16C492.25 26.16 492.533 26.096 492.757 25.968C492.981 25.84 493.093 25.6587 493.093 25.424C493.093 25.2 492.97 25.024 492.725 24.896C492.49 24.7573 492.095 24.592 491.541 24.4C490.965 24.208 490.479 24.0213 490.085 23.84C489.701 23.648 489.37 23.376 489.093 23.024C488.815 22.672 488.677 22.2293 488.677 21.696C488.677 21.1733 488.831 20.704 489.141 20.288C489.45 19.8613 489.882 19.5307 490.437 19.296C491.002 19.0613 491.653 18.944 492.389 18.944C493.125 18.944 493.765 19.0667 494.309 19.312C494.853 19.5467 495.274 19.8773 495.573 20.304C495.871 20.7307 496.021 21.2107 496.021 21.744L496.005 21.984H493.525C493.546 21.664 493.45 21.408 493.237 21.216C493.023 21.024 492.719 20.928 492.325 20.928C492.015 20.928 491.759 20.992 491.557 21.12C491.365 21.248 491.269 21.424 491.269 21.648C491.269 21.8827 491.397 22.08 491.653 22.24C491.919 22.3893 492.33 22.56 492.885 22.752C493.461 22.944 493.935 23.136 494.309 23.328C494.693 23.5093 495.018 23.7707 495.285 24.112C495.562 24.4427 495.701 24.8587 495.701 25.36C495.701 25.936 495.525 26.432 495.173 26.848C494.831 27.264 494.357 27.584 493.749 27.808C493.151 28.0213 492.469 28.128 491.701 28.128ZM502.478 18.944C503.63 18.944 504.542 19.2587 505.214 19.888C505.897 20.5067 506.238 21.3547 506.238 22.432C506.238 22.784 506.212 23.0987 506.158 23.376C506.116 23.6213 506.052 23.8827 505.966 24.16H499.774C499.764 24.224 499.758 24.3253 499.758 24.464C499.758 24.9333 499.886 25.2907 500.142 25.536C500.398 25.7813 500.74 25.904 501.166 25.904C501.849 25.904 502.372 25.616 502.734 25.04H505.646C505.262 25.9467 504.638 26.688 503.774 27.264C502.91 27.84 501.94 28.128 500.862 28.128C499.71 28.128 498.788 27.808 498.094 27.168C497.412 26.528 497.07 25.6587 497.07 24.56C497.07 24.2293 497.102 23.888 497.166 23.536C497.326 22.608 497.657 21.7973 498.158 21.104C498.66 20.4107 499.284 19.8773 500.03 19.504C500.777 19.1307 501.593 18.944 502.478 18.944ZM503.47 22.768C503.492 22.6187 503.502 22.5173 503.502 22.464C503.502 22.0373 503.369 21.712 503.102 21.488C502.836 21.2533 502.484 21.136 502.046 21.136C501.577 21.136 501.161 21.28 500.798 21.568C500.446 21.8453 500.19 22.2453 500.03 22.768H503.47ZM514.489 20.688C514.905 20.1547 515.38 19.7387 515.913 19.44C516.457 19.1307 517.022 18.976 517.609 18.976L517.097 21.872H516.345C515.662 21.872 515.124 22.0213 514.729 22.32C514.334 22.608 514.073 23.12 513.945 23.856L513.209 28H510.473L512.041 19.072H514.777L514.489 20.688ZM522.885 18.944C524.037 18.944 524.949 19.2587 525.621 19.888C526.303 20.5067 526.645 21.3547 526.645 22.432C526.645 22.784 526.618 23.0987 526.565 23.376C526.522 23.6213 526.458 23.8827 526.373 24.16H520.181C520.17 24.224 520.165 24.3253 520.165 24.464C520.165 24.9333 520.293 25.2907 520.549 25.536C520.805 25.7813 521.146 25.904 521.573 25.904C522.255 25.904 522.778 25.616 523.141 25.04H526.053C525.669 25.9467 525.045 26.688 524.181 27.264C523.317 27.84 522.346 28.128 521.269 28.128C520.117 28.128 519.194 27.808 518.501 27.168C517.818 26.528 517.477 25.6587 517.477 24.56C517.477 24.2293 517.509 23.888 517.573 23.536C517.733 22.608 518.063 21.7973 518.565 21.104C519.066 20.4107 519.69 19.8773 520.437 19.504C521.183 19.1307 521.999 18.944 522.885 18.944ZM523.877 22.768C523.898 22.6187 523.909 22.5173 523.909 22.464C523.909 22.0373 523.775 21.712 523.509 21.488C523.242 21.2533 522.89 21.136 522.453 21.136C521.983 21.136 521.567 21.28 521.205 21.568C520.853 21.8453 520.597 22.2453 520.437 22.768H523.877ZM533.416 17.792C532.893 17.76 532.509 17.8347 532.264 18.016C532.029 18.1973 531.869 18.5227 531.784 18.992L531.768 19.072H533.24L532.84 21.344H531.368L530.2 28H527.448L528.616 21.344H527.624L528.024 19.072H529.016L529.064 18.816C529.267 17.7173 529.731 16.8853 530.456 16.32C531.192 15.744 532.168 15.456 533.384 15.456C533.576 15.456 533.72 15.4613 533.816 15.472L533.416 17.792ZM538.51 18.944C539.662 18.944 540.574 19.2587 541.246 19.888C541.928 20.5067 542.27 21.3547 542.27 22.432C542.27 22.784 542.243 23.0987 542.19 23.376C542.147 23.6213 542.083 23.8827 541.998 24.16H535.806C535.795 24.224 535.79 24.3253 535.79 24.464C535.79 24.9333 535.918 25.2907 536.174 25.536C536.43 25.7813 536.771 25.904 537.198 25.904C537.88 25.904 538.403 25.616 538.766 25.04H541.678C541.294 25.9467 540.67 26.688 539.806 27.264C538.942 27.84 537.971 28.128 536.894 28.128C535.742 28.128 534.819 27.808 534.126 27.168C533.443 26.528 533.102 25.6587 533.102 24.56C533.102 24.2293 533.134 23.888 533.198 23.536C533.358 22.608 533.688 21.7973 534.19 21.104C534.691 20.4107 535.315 19.8773 536.062 19.504C536.808 19.1307 537.624 18.944 538.51 18.944ZM539.502 22.768C539.523 22.6187 539.534 22.5173 539.534 22.464C539.534 22.0373 539.4 21.712 539.134 21.488C538.867 21.2533 538.515 21.136 538.078 21.136C537.608 21.136 537.192 21.28 536.83 21.568C536.478 21.8453 536.222 22.2453 536.062 22.768H539.502ZM546.817 20.688C547.233 20.1547 547.708 19.7387 548.241 19.44C548.785 19.1307 549.35 18.976 549.937 18.976L549.425 21.872H548.673C547.99 21.872 547.452 22.0213 547.057 22.32C546.662 22.608 546.401 23.12 546.273 23.856L545.537 28H542.801L544.369 19.072H547.105L546.817 20.688ZM557.06 24.928C557.049 24.9813 557.044 25.0507 557.044 25.136C557.044 25.328 557.097 25.4667 557.204 25.552C557.321 25.6373 557.508 25.68 557.764 25.68H558.74L558.324 28H556.932C555.14 28 554.244 27.248 554.244 25.744C554.244 25.52 554.271 25.2373 554.324 24.896L554.964 21.344H553.876L554.276 19.072H555.364L555.748 16.896H558.484L558.1 19.072H559.892L559.492 21.344H557.7L557.06 24.928ZM563.928 28.128C563.16 28.128 562.477 27.9733 561.88 27.664C561.283 27.3547 560.819 26.9173 560.488 26.352C560.168 25.7867 560.008 25.1307 560.008 24.384C560.008 23.3707 560.248 22.448 560.728 21.616C561.208 20.784 561.869 20.1333 562.712 19.664C563.555 19.184 564.493 18.944 565.528 18.944C566.296 18.944 566.979 19.104 567.576 19.424C568.184 19.7333 568.653 20.1707 568.984 20.736C569.315 21.3013 569.48 21.9573 569.48 22.704C569.48 23.728 569.235 24.656 568.744 25.488C568.264 26.3093 567.597 26.9547 566.744 27.424C565.901 27.8933 564.963 28.128 563.928 28.128ZM564.312 25.776C564.76 25.776 565.16 25.6427 565.512 25.376C565.875 25.0987 566.152 24.7467 566.344 24.32C566.547 23.8827 566.648 23.4293 566.648 22.96C566.648 22.4267 566.504 22.016 566.216 21.728C565.928 21.44 565.565 21.296 565.128 21.296C564.669 21.296 564.264 21.4347 563.912 21.712C563.571 21.9787 563.304 22.3307 563.112 22.768C562.92 23.2053 562.824 23.664 562.824 24.144C562.824 24.6667 562.963 25.072 563.24 25.36C563.517 25.6373 563.875 25.776 564.312 25.776ZM577.451 24.928C577.44 24.9813 577.435 25.0507 577.435 25.136C577.435 25.328 577.488 25.4667 577.595 25.552C577.712 25.6373 577.899 25.68 578.155 25.68H579.131L578.715 28H577.323C575.531 28 574.635 27.248 574.635 25.744C574.635 25.52 574.661 25.2373 574.715 24.896L575.355 21.344H574.267L574.667 19.072H575.755L576.139 16.896H578.875L578.491 19.072H580.283L579.883 21.344H578.091L577.451 24.928ZM587.311 18.976C588.185 18.976 588.873 19.2267 589.375 19.728C589.887 20.2293 590.143 20.928 590.143 21.824C590.143 22.1227 590.111 22.4427 590.047 22.784L589.119 28H586.399L587.263 23.152C587.295 22.9707 587.311 22.8107 587.311 22.672C587.311 22.224 587.183 21.8773 586.927 21.632C586.681 21.3867 586.335 21.264 585.887 21.264C585.353 21.264 584.905 21.4293 584.543 21.76C584.18 22.0907 583.945 22.5547 583.839 23.152V23.12L582.975 28H580.239L582.335 16.16H585.071L584.351 20.256C584.703 19.8613 585.135 19.552 585.647 19.328C586.159 19.0933 586.713 18.976 587.311 18.976ZM596.588 18.944C597.74 18.944 598.652 19.2587 599.324 19.888C600.006 20.5067 600.348 21.3547 600.348 22.432C600.348 22.784 600.321 23.0987 600.268 23.376C600.225 23.6213 600.161 23.8827 600.076 24.16H593.884C593.873 24.224 593.868 24.3253 593.868 24.464C593.868 24.9333 593.996 25.2907 594.252 25.536C594.508 25.7813 594.849 25.904 595.276 25.904C595.958 25.904 596.481 25.616 596.844 25.04H599.756C599.372 25.9467 598.748 26.688 597.884 27.264C597.02 27.84 596.049 28.128 594.972 28.128C593.82 28.128 592.897 27.808 592.204 27.168C591.521 26.528 591.18 25.6587 591.18 24.56C591.18 24.2293 591.212 23.888 591.276 23.536C591.436 22.608 591.766 21.7973 592.268 21.104C592.769 20.4107 593.393 19.8773 594.14 19.504C594.886 19.1307 595.702 18.944 596.588 18.944ZM597.58 22.768C597.601 22.6187 597.612 22.5173 597.612 22.464C597.612 22.0373 597.478 21.712 597.212 21.488C596.945 21.2533 596.593 21.136 596.156 21.136C595.686 21.136 595.27 21.28 594.908 21.568C594.556 21.8453 594.3 22.2453 594.14 22.768H597.58ZM611.926 26.016H607.734L606.71 28H603.846L609.894 16.768H613.062L615.142 28H612.246L611.926 26.016ZM611.606 23.936L610.95 19.776L608.806 23.936H611.606ZM626.283 20.384C626.176 21.0347 625.926 21.632 625.531 22.176C625.136 22.7093 624.598 23.1413 623.915 23.472C623.243 23.8027 622.448 23.968 621.531 23.968H619.835L619.115 28H616.379L618.363 16.768H622.795C623.968 16.768 624.854 17.0293 625.451 17.552C626.048 18.064 626.347 18.7627 626.347 19.648C626.347 19.9147 626.326 20.16 626.283 20.384ZM621.691 21.824C622.715 21.824 623.318 21.344 623.499 20.384C623.52 20.2133 623.531 20.0907 623.531 20.016C623.531 19.6747 623.419 19.4133 623.195 19.232C622.982 19.04 622.651 18.944 622.203 18.944H620.715L620.219 21.824H621.691ZM631.084 16.768L629.1 28H626.364L628.348 16.768H631.084ZM638.801 20.688C639.217 20.1547 639.692 19.7387 640.225 19.44C640.769 19.1307 641.335 18.976 641.921 18.976L641.409 21.872H640.657C639.975 21.872 639.436 22.0213 639.041 22.32C638.647 22.608 638.385 23.12 638.257 23.856L637.521 28H634.785L636.353 19.072H639.089L638.801 20.688ZM647.197 18.944C648.349 18.944 649.261 19.2587 649.933 19.888C650.616 20.5067 650.957 21.3547 650.957 22.432C650.957 22.784 650.93 23.0987 650.877 23.376C650.834 23.6213 650.77 23.8827 650.685 24.16H644.493C644.482 24.224 644.477 24.3253 644.477 24.464C644.477 24.9333 644.605 25.2907 644.861 25.536C645.117 25.7813 645.458 25.904 645.885 25.904C646.568 25.904 647.09 25.616 647.453 25.04H650.365C649.981 25.9467 649.357 26.688 648.493 27.264C647.629 27.84 646.658 28.128 645.581 28.128C644.429 28.128 643.506 27.808 642.813 27.168C642.13 26.528 641.789 25.6587 641.789 24.56C641.789 24.2293 641.821 23.888 641.885 23.536C642.045 22.608 642.376 21.7973 642.877 21.104C643.378 20.4107 644.002 19.8773 644.749 19.504C645.496 19.1307 646.312 18.944 647.197 18.944ZM648.189 22.768C648.21 22.6187 648.221 22.5173 648.221 22.464C648.221 22.0373 648.088 21.712 647.821 21.488C647.554 21.2533 647.202 21.136 646.765 21.136C646.296 21.136 645.88 21.28 645.517 21.568C645.165 21.8453 644.909 22.2453 644.749 22.768H648.189ZM657.729 17.792C657.206 17.76 656.822 17.8347 656.577 18.016C656.342 18.1973 656.182 18.5227 656.097 18.992L656.081 19.072H657.553L657.153 21.344H655.681L654.513 28H651.761L652.929 21.344H651.937L652.337 19.072H653.329L653.377 18.816C653.579 17.7173 654.043 16.8853 654.769 16.32C655.505 15.744 656.481 15.456 657.697 15.456C657.889 15.456 658.033 15.4613 658.129 15.472L657.729 17.792ZM662.822 18.944C663.974 18.944 664.886 19.2587 665.558 19.888C666.241 20.5067 666.582 21.3547 666.582 22.432C666.582 22.784 666.555 23.0987 666.502 23.376C666.459 23.6213 666.395 23.8827 666.31 24.16H660.118C660.107 24.224 660.102 24.3253 660.102 24.464C660.102 24.9333 660.23 25.2907 660.486 25.536C660.742 25.7813 661.083 25.904 661.51 25.904C662.193 25.904 662.715 25.616 663.078 25.04H665.99C665.606 25.9467 664.982 26.688 664.118 27.264C663.254 27.84 662.283 28.128 661.206 28.128C660.054 28.128 659.131 27.808 658.438 27.168C657.755 26.528 657.414 25.6587 657.414 24.56C657.414 24.2293 657.446 23.888 657.51 23.536C657.67 22.608 658.001 21.7973 658.502 21.104C659.003 20.4107 659.627 19.8773 660.374 19.504C661.121 19.1307 661.937 18.944 662.822 18.944ZM663.814 22.768C663.835 22.6187 663.846 22.5173 663.846 22.464C663.846 22.0373 663.713 21.712 663.446 21.488C663.179 21.2533 662.827 21.136 662.39 21.136C661.921 21.136 661.505 21.28 661.142 21.568C660.79 21.8453 660.534 22.2453 660.374 22.768H663.814ZM671.13 20.688C671.546 20.1547 672.02 19.7387 672.554 19.44C673.098 19.1307 673.663 18.976 674.25 18.976L673.738 21.872H672.986C672.303 21.872 671.764 22.0213 671.37 22.32C670.975 22.608 670.714 23.12 670.586 23.856L669.85 28H667.114L668.682 19.072H671.418L671.13 20.688ZM679.525 18.944C680.677 18.944 681.589 19.2587 682.261 19.888C682.944 20.5067 683.285 21.3547 683.285 22.432C683.285 22.784 683.259 23.0987 683.205 23.376C683.163 23.6213 683.099 23.8827 683.013 24.16H676.821C676.811 24.224 676.805 24.3253 676.805 24.464C676.805 24.9333 676.933 25.2907 677.189 25.536C677.445 25.7813 677.787 25.904 678.213 25.904C678.896 25.904 679.419 25.616 679.781 25.04H682.693C682.309 25.9467 681.685 26.688 680.821 27.264C679.957 27.84 678.987 28.128 677.909 28.128C676.757 28.128 675.835 27.808 675.141 27.168C674.459 26.528 674.117 25.6587 674.117 24.56C674.117 24.2293 674.149 23.888 674.213 23.536C674.373 22.608 674.704 21.7973 675.205 21.104C675.707 20.4107 676.331 19.8773 677.077 19.504C677.824 19.1307 678.64 18.944 679.525 18.944ZM680.517 22.768C680.539 22.6187 680.549 22.5173 680.549 22.464C680.549 22.0373 680.416 21.712 680.149 21.488C679.883 21.2533 679.531 21.136 679.093 21.136C678.624 21.136 678.208 21.28 677.845 21.568C677.493 21.8453 677.237 22.2453 677.077 22.768H680.517ZM690.841 18.976C691.737 18.976 692.441 19.2267 692.953 19.728C693.465 20.2293 693.721 20.928 693.721 21.824C693.721 22.1227 693.689 22.4427 693.625 22.784L692.697 28H689.977L690.841 23.152C690.873 22.9707 690.889 22.8107 690.889 22.672C690.889 22.224 690.761 21.8773 690.505 21.632C690.259 21.3867 689.913 21.264 689.465 21.264C688.931 21.264 688.483 21.4293 688.121 21.76C687.758 22.0907 687.523 22.5547 687.417 23.152V23.072L686.553 28H683.817L685.385 19.072H688.121L687.913 20.272C688.265 19.8773 688.691 19.5627 689.193 19.328C689.705 19.0933 690.254 18.976 690.841 18.976ZM694.854 23.536C695.014 22.608 695.345 21.7973 695.846 21.104C696.347 20.4107 696.966 19.8773 697.702 19.504C698.449 19.1307 699.259 18.944 700.134 18.944C701.254 18.944 702.139 19.2373 702.79 19.824C703.441 20.4107 703.787 21.2373 703.83 22.304H700.918C700.801 21.6213 700.385 21.28 699.67 21.28C699.169 21.28 698.737 21.4773 698.374 21.872C698.011 22.256 697.766 22.8107 697.638 23.536C697.595 23.76 697.574 23.9947 697.574 24.24C697.574 24.7413 697.691 25.1253 697.926 25.392C698.161 25.6587 698.481 25.792 698.886 25.792C699.59 25.792 700.118 25.4507 700.47 24.768H703.398C702.982 25.8133 702.342 26.6347 701.478 27.232C700.614 27.8293 699.627 28.128 698.518 28.128C697.366 28.128 696.449 27.8133 695.766 27.184C695.094 26.544 694.758 25.6747 694.758 24.576C694.758 24.2453 694.79 23.8987 694.854 23.536ZM709.853 18.944C711.005 18.944 711.917 19.2587 712.589 19.888C713.272 20.5067 713.613 21.3547 713.613 22.432C713.613 22.784 713.587 23.0987 713.533 23.376C713.491 23.6213 713.427 23.8827 713.341 24.16H707.149C707.139 24.224 707.133 24.3253 707.133 24.464C707.133 24.9333 707.261 25.2907 707.517 25.536C707.773 25.7813 708.115 25.904 708.541 25.904C709.224 25.904 709.747 25.616 710.109 25.04H713.021C712.637 25.9467 712.013 26.688 711.149 27.264C710.285 27.84 709.315 28.128 708.237 28.128C707.085 28.128 706.163 27.808 705.469 27.168C704.787 26.528 704.445 25.6587 704.445 24.56C704.445 24.2293 704.477 23.888 704.541 23.536C704.701 22.608 705.032 21.7973 705.533 21.104C706.035 20.4107 706.659 19.8773 707.405 19.504C708.152 19.1307 708.968 18.944 709.853 18.944ZM710.845 22.768C710.867 22.6187 710.877 22.5173 710.877 22.464C710.877 22.0373 710.744 21.712 710.477 21.488C710.211 21.2533 709.859 21.136 709.421 21.136C708.952 21.136 708.536 21.28 708.173 21.568C707.821 21.8453 707.565 22.2453 707.405 22.768H710.845ZM721.928 20.336C722.269 19.92 722.696 19.584 723.208 19.328C723.731 19.072 724.307 18.944 724.936 18.944C725.896 18.944 726.669 19.2587 727.256 19.888C727.853 20.5173 728.152 21.3707 728.152 22.448C728.152 22.7787 728.12 23.136 728.056 23.52C727.896 24.4373 727.581 25.248 727.112 25.952C726.643 26.6453 726.077 27.184 725.416 27.568C724.755 27.9413 724.056 28.128 723.32 28.128C722.701 28.128 722.179 28 721.752 27.744C721.325 27.488 721.011 27.1573 720.808 26.752L719.832 32.256H717.096L719.416 19.072H722.152L721.928 20.336ZM725.288 23.52C725.32 23.3387 725.336 23.1733 725.336 23.024C725.336 22.4907 725.181 22.0747 724.872 21.776C724.573 21.4773 724.189 21.328 723.72 21.328C723.176 21.328 722.68 21.5253 722.232 21.92C721.784 22.3147 721.496 22.8533 721.368 23.536C721.336 23.728 721.32 23.904 721.32 24.064C721.32 24.5867 721.469 24.9973 721.768 25.296C722.067 25.5947 722.451 25.744 722.92 25.744C723.464 25.744 723.96 25.5467 724.408 25.152C724.867 24.7467 725.16 24.2027 725.288 23.52ZM728.963 23.52C729.123 22.6027 729.438 21.7973 729.907 21.104C730.377 20.4107 730.942 19.8773 731.603 19.504C732.265 19.1307 732.963 18.944 733.699 18.944C734.329 18.944 734.857 19.072 735.283 19.328C735.71 19.584 736.019 19.92 736.211 20.336L736.435 19.072H739.171L737.587 28H734.851L735.091 26.736C734.75 27.152 734.318 27.488 733.795 27.744C733.273 28 732.697 28.128 732.067 28.128C731.438 28.128 730.878 27.984 730.387 27.696C729.907 27.408 729.534 27.0027 729.267 26.48C729.001 25.9467 728.867 25.3227 728.867 24.608C728.867 24.2667 728.899 23.904 728.963 23.52ZM735.651 23.536C735.683 23.344 735.699 23.168 735.699 23.008C735.699 22.4853 735.545 22.0747 735.235 21.776C734.937 21.4773 734.553 21.328 734.083 21.328C733.539 21.328 733.043 21.5253 732.595 21.92C732.147 22.304 731.865 22.8373 731.747 23.52C731.715 23.712 731.699 23.888 731.699 24.048C731.699 24.5707 731.849 24.9867 732.147 25.296C732.457 25.5947 732.841 25.744 733.299 25.744C733.843 25.744 734.339 25.5467 734.787 25.152C735.235 24.7573 735.523 24.2187 735.651 23.536ZM744.559 18.944C745.188 18.944 745.721 19.072 746.159 19.328C746.596 19.584 746.9 19.92 747.071 20.336L747.295 19.072H750.031L748.463 27.984C748.313 28.8053 748.015 29.5467 747.567 30.208C747.129 30.88 746.537 31.4133 745.791 31.808C745.055 32.2027 744.196 32.4 743.215 32.4C741.892 32.4 740.873 32.0853 740.159 31.456C739.444 30.8373 739.124 29.9947 739.199 28.928H741.903C741.935 29.2693 742.089 29.536 742.367 29.728C742.655 29.9307 743.033 30.032 743.503 30.032C744.068 30.032 744.548 29.8667 744.943 29.536C745.337 29.216 745.599 28.6987 745.727 27.984L745.951 26.72C745.609 27.136 745.177 27.4773 744.655 27.744C744.143 28 743.572 28.128 742.943 28.128C742.313 28.128 741.753 27.984 741.263 27.696C740.783 27.408 740.404 26.9973 740.127 26.464C739.86 25.9307 739.727 25.3067 739.727 24.592C739.727 24.2613 739.759 23.904 739.823 23.52C739.983 22.6027 740.297 21.7973 740.767 21.104C741.236 20.4107 741.801 19.8773 742.463 19.504C743.124 19.1307 743.823 18.944 744.559 18.944ZM746.511 23.536C746.543 23.344 746.559 23.168 746.559 23.008C746.559 22.4853 746.404 22.0747 746.095 21.776C745.796 21.4773 745.412 21.328 744.943 21.328C744.399 21.328 743.903 21.5253 743.455 21.92C743.007 22.304 742.724 22.8373 742.607 23.52C742.575 23.712 742.559 23.888 742.559 24.048C742.559 24.5707 742.708 24.9867 743.007 25.296C743.316 25.5947 743.7 25.744 744.159 25.744C744.703 25.744 745.199 25.5467 745.647 25.152C746.095 24.7573 746.383 24.2187 746.511 23.536ZM755.994 18.944C757.146 18.944 758.058 19.2587 758.73 19.888C759.413 20.5067 759.754 21.3547 759.754 22.432C759.754 22.784 759.727 23.0987 759.674 23.376C759.631 23.6213 759.567 23.8827 759.482 24.16H753.29C753.279 24.224 753.274 24.3253 753.274 24.464C753.274 24.9333 753.402 25.2907 753.658 25.536C753.914 25.7813 754.255 25.904 754.682 25.904C755.365 25.904 755.887 25.616 756.25 25.04H759.162C758.778 25.9467 758.154 26.688 757.29 27.264C756.426 27.84 755.455 28.128 754.378 28.128C753.226 28.128 752.303 27.808 751.61 27.168C750.927 26.528 750.586 25.6587 750.586 24.56C750.586 24.2293 750.618 23.888 750.682 23.536C750.842 22.608 751.173 21.7973 751.674 21.104C752.175 20.4107 752.799 19.8773 753.546 19.504C754.293 19.1307 755.109 18.944 755.994 18.944ZM756.986 22.768C757.007 22.6187 757.018 22.5173 757.018 22.464C757.018 22.0373 756.885 21.712 756.618 21.488C756.351 21.2533 755.999 21.136 755.562 21.136C755.093 21.136 754.677 21.28 754.314 21.568C753.962 21.8453 753.706 22.2453 753.546 22.768H756.986ZM761.549 28.128C761.123 28.128 760.781 28.016 760.525 27.792C760.28 27.5573 760.157 27.264 760.157 26.912C760.157 26.4213 760.339 26.0053 760.701 25.664C761.075 25.3227 761.533 25.152 762.077 25.152C762.493 25.152 762.824 25.2693 763.069 25.504C763.315 25.728 763.437 26.0213 763.437 26.384C763.437 26.864 763.251 27.2747 762.877 27.616C762.515 27.9573 762.072 28.128 761.549 28.128Z" fill="white"/>
<path d="M789.351 21.3973L786.169 18.2154C785.837 17.8834 785.299 17.8834 784.967 18.2154C784.635 18.5473 784.635 19.0855 784.967 19.4174L786.698 21.1484H774.25C773.781 21.1484 773.4 21.5289 773.4 21.9984C773.4 22.4678 773.781 22.8484 774.25 22.8484H786.698L784.967 24.5793C784.635 24.9113 784.635 25.4495 784.967 25.7814C785.299 26.1134 785.837 26.1134 786.169 25.7814L789.351 22.5994C789.683 22.2675 789.683 21.7293 789.351 21.3973Z" fill="white" stroke="white" stroke-width="0.7"/>
<defs>
<linearGradient id="paint0_linear_1094_44" x1="0" y1="22" x2="902.118" y2="22" gradientUnits="userSpaceOnUse">
<stop stop-color="#5357ED"/>
<stop offset="1" stop-color="#40B9FF"/>
</linearGradient>
</defs>
</svg>
