<svg width="960" height="448" viewBox="0 0 960 448" fill="none" xmlns="http://www.w3.org/2000/svg">
<mask id="mask0_1119_3166" style="mask-type:alpha" maskUnits="userSpaceOnUse" x="0" y="0" width="960" height="448">
<rect opacity="0.28" width="960" height="448" rx="32" fill="url(#paint0_linear_1119_3166)"/>
</mask>
<g mask="url(#mask0_1119_3166)">
<path d="M415.918 109.211V449.211" stroke="#E0E2E5"/>
<path d="M447.918 109.211V449.211" stroke="#E0E2E5"/>
<path d="M479.918 109.211V449.211" stroke="#E0E2E5"/>
<path d="M511.918 109.211V449.211" stroke="#E0E2E5"/>
<path d="M543.918 109.211V449.211" stroke="#E0E2E5"/>
<path d="M575.918 109.211V449.211" stroke="#E0E2E5"/>
<path d="M607.918 109.211V449.211" stroke="#E0E2E5"/>
<path d="M639.918 109.211V449.211" stroke="#E0E2E5"/>
<path d="M671.918 109.211V449.211" stroke="#E0E2E5"/>
<path d="M703.918 109.211V449.211" stroke="#E0E2E5"/>
<path d="M735.918 109.211V449.211" stroke="#E0E2E5"/>
<path d="M767.918 109.211V449.211" stroke="#E0E2E5"/>
<path d="M799.918 109.211V449.211" stroke="#E0E2E5"/>
<path d="M831.918 109.211V449.211" stroke="#E0E2E5"/>
<path d="M863.918 109.211V449.211" stroke="#E0E2E5"/>
<path d="M895.918 109.211V449.211" stroke="#E0E2E5"/>
<path d="M927.918 109.211V449.211" stroke="#E0E2E5"/>
<path d="M959.918 109.211V449.211" stroke="#E0E2E5"/>
<path d="M415.918 132.211H1021.92" stroke="#E0E2E5"/>
<path d="M415.918 164.211H1021.92" stroke="#E0E2E5"/>
<path d="M415.918 196.211H1021.92" stroke="#E0E2E5"/>
<path d="M415.918 228.211H1021.92" stroke="#E0E2E5"/>
<path d="M415.918 260.211H1021.92" stroke="#E0E2E5"/>
<path d="M415.918 292.211H1021.92" stroke="#E0E2E5"/>
<path d="M415.918 324.211H1021.92" stroke="#E0E2E5"/>
<path d="M415.918 356.211H1021.92" stroke="#E0E2E5"/>
<path d="M415.918 388.211H1021.92" stroke="#E0E2E5"/>
<path d="M415.918 420.211H1021.92" stroke="#E0E2E5"/>
</g>
<defs>
<linearGradient id="paint0_linear_1119_3166" x1="454.222" y1="115.5" x2="963.9" y2="422.608" gradientUnits="userSpaceOnUse">
<stop offset="0.00198117" stop-color="white" stop-opacity="0"/>
<stop offset="1" stop-color="white"/>
</linearGradient>
</defs>
</svg>
