<svg width="136" height="40" viewBox="0 0 136 40" fill="none" xmlns="http://www.w3.org/2000/svg">
<path d="M4.09706 31.0479C4.00377 30.9951 3.91722 30.9265 3.84303 30.8411C1.86926 28.6064 1.55341 25.3836 3.05622 22.8229L13.6478 4.77461C13.9232 4.30587 14.5324 4.14512 15.009 4.41603C15.4856 4.68693 15.6486 5.28607 15.3743 5.75594L4.78271 23.8043C3.70478 25.641 3.93183 27.9522 5.34809 29.5551C5.7089 29.9643 5.66506 30.5836 5.24918 30.9388C4.91984 31.221 4.4545 31.2513 4.09706 31.0479ZM1.94794 21.4392L12.8071 2.93448C13.187 2.28701 13.6894 1.73733 14.2998 1.30118C14.5965 1.08873 14.6628 0.680687 14.447 0.388424C14.2312 0.0961616 13.8153 0.0320887 13.5186 0.243417C12.7565 0.787475 12.1293 1.47317 11.6561 2.28026L0.796944 20.785C0.61373 21.0975 0.722759 21.4976 1.03973 21.6775C1.35671 21.8574 1.7636 21.7506 1.94794 21.4381V21.4392ZM18.1012 29.5731L22.0251 22.8859C22.4837 22.1047 22.2117 21.1042 21.417 20.6535C20.6224 20.2016 19.6063 20.4702 19.1477 21.2515L15.2237 27.9387C14.4897 29.1886 12.8588 29.6192 11.5886 28.8975C10.3174 28.1758 9.88013 26.5706 10.6141 25.3207L19.2522 10.6019C19.7108 9.82063 19.4388 8.8202 18.6441 8.36944C17.8494 7.91756 16.8333 8.18621 16.3747 8.96745L7.73663 23.6862C6.08657 26.4976 7.06896 30.1048 9.92734 31.728C12.7846 33.3511 16.4523 32.3844 18.1012 29.5731ZM38.3167 9.12258C37.9008 9.47779 37.8569 10.0972 38.2177 10.5063C39.634 12.1093 39.861 14.4204 38.7831 16.2572L28.1915 34.3055C27.9161 34.7742 28.0791 35.3745 28.5568 35.6454C29.0334 35.9163 29.6426 35.7556 29.918 35.2868L40.5096 17.2385C42.0124 14.6767 41.6966 11.4551 39.7228 9.22037C39.6486 9.13607 39.5621 9.0675 39.4688 9.01354C39.1102 8.81008 38.646 8.84155 38.3167 9.12258ZM41.6179 18.6222L30.7588 37.1269C30.3788 37.7744 29.8764 38.3241 29.2661 38.7602C28.9693 38.9727 28.903 39.3807 29.1188 39.673C29.3346 39.9653 29.7505 40.0293 30.0473 39.818C30.8093 39.274 31.4365 38.5883 31.9097 37.7812L42.7689 19.2764C42.9521 18.964 42.8431 18.5638 42.5261 18.3839C42.208 18.2029 41.8022 18.3109 41.6179 18.6234V18.6222ZM25.4646 10.4883L21.5407 17.1755C21.0821 17.9568 21.3541 18.9572 22.1488 19.408C22.9435 19.8599 23.9596 19.5912 24.4182 18.81L28.3421 12.1228C29.0761 10.8728 30.7071 10.4423 31.9772 11.1639C33.2485 11.8856 33.6857 13.4908 32.9517 14.7408L24.3136 29.4596C23.855 30.2408 24.1271 31.2412 24.9217 31.692C25.7164 32.1439 26.7325 31.8752 27.1911 31.094L35.8292 16.3752C37.4793 13.5638 36.4969 9.95665 33.6385 8.33347C30.7812 6.71029 27.1136 7.677 25.4646 10.4883Z" fill="url(#paint0_linear_181_628)"/>
<path d="M118.323 30.7387C114.161 30.7387 110.775 27.1814 110.775 22.8094C110.775 18.4373 114.161 14.88 118.323 14.88C121.864 14.88 124.889 17.409 125.679 21.0291C125.806 21.6053 125.87 22.2034 125.87 22.8078C125.87 22.8266 125.87 22.8439 125.87 22.8627C125.867 23.2835 125.52 23.621 125.098 23.621H114.105C113.945 23.621 113.794 23.6948 113.698 23.8204C113.601 23.9459 113.57 24.1092 113.612 24.2615C114.237 26.4875 116.102 28.0433 118.368 28.0433C119.605 28.0433 120.8 27.5849 121.729 26.7513C121.889 26.61 122.042 26.4546 122.184 26.2913C122.299 26.1594 122.469 26.0857 122.643 26.0857H124.473C124.966 26.0857 125.261 26.6351 124.988 27.0464C124.095 28.3855 122.702 29.4907 121.183 30.1453C120.277 30.5378 119.315 30.7356 118.323 30.7356V30.7387ZM118.368 17.442C116.364 17.442 114.554 18.6995 113.758 20.6461C113.694 20.8046 113.709 20.9852 113.803 21.128C113.896 21.2709 114.053 21.3572 114.221 21.3572H122.517C122.685 21.3572 122.842 21.2709 122.935 21.128C123.027 20.9852 123.045 20.8031 122.98 20.6461C122.183 18.6995 120.373 17.442 118.368 17.442Z" fill="#ffffff"/>
<path d="M82.7869 29.7937V21.6399C82.7869 19.767 81.3333 18.1705 79.4621 18.0998C77.4952 18.026 75.8705 19.6038 75.8705 21.5551V29.7953C75.8705 30.136 75.5942 30.4123 75.2536 30.4123H73.282C72.9413 30.4123 72.665 30.136 72.665 29.7953V21.5551C72.665 20.6006 72.8628 19.6775 73.2537 18.811C74.3306 16.4295 76.715 14.891 79.3271 14.891C81.9392 14.891 84.3237 16.4295 85.4006 18.811C85.7914 19.6775 85.9892 20.6006 85.9892 21.5551V29.7953C85.9892 30.136 85.7129 30.4123 85.3723 30.4123H83.4007C83.06 30.4123 82.7838 30.136 82.7838 29.7953L82.7869 29.7937Z" fill="#ffffff"/>
<path d="M101.862 30.7921C99.0682 30.7921 97.2206 28.7968 96.3682 24.8643C95.9522 22.9444 95.0072 18.34 94.5363 16.0448C94.4578 15.6618 94.7497 15.3054 95.1406 15.3054H97.0353C97.3352 15.3054 97.5926 15.5205 97.6428 15.8172C98.007 17.9334 98.8939 23.07 99.255 25.0621C99.5579 26.7372 100.435 27.5864 101.861 27.5864C103.63 27.5864 104.093 26.2364 104.299 25.059C104.661 22.993 105.652 17.8878 106.06 15.803C106.116 15.5126 106.371 15.3038 106.666 15.3038H108.578C108.969 15.3038 109.261 15.6633 109.182 16.0464L107.353 24.8674C107.11 26.2693 106.002 30.7905 101.861 30.7905L101.862 30.7921Z" fill="#ffffff"/>
<path d="M61.882 30.7466C61.7988 30.7466 61.7156 30.7466 61.634 30.7419C60.813 30.7168 60.0108 30.5676 59.2448 30.296C58.7848 30.1328 58.3406 29.9287 57.9262 29.6869C56.719 28.9915 55.7159 27.9883 55.0221 26.7827C54.7804 26.3635 54.5747 25.9193 54.413 25.4609C54.1132 24.6163 53.9609 23.7277 53.9609 22.8172V9.88624C53.9609 9.54558 54.2372 9.26929 54.5779 9.26929H56.5495C56.8901 9.26929 57.1664 9.54558 57.1664 9.88624V22.7167C57.1664 25.2866 59.1773 27.4624 61.747 27.5394C64.4172 27.6179 66.6133 25.4703 66.6133 22.8172V9.88624C66.6133 9.54558 66.8896 9.26929 67.2302 9.26929H69.2018C69.5425 9.26929 69.8187 9.54558 69.8187 9.88624V22.8172C69.8187 23.7215 69.6665 24.6116 69.3666 25.4609C69.205 25.9193 68.9993 26.3635 68.7576 26.7796C68.0622 27.9852 67.0591 28.9883 65.8551 29.6822C65.4391 29.9256 64.9948 30.1312 64.5333 30.2945C63.7688 30.5661 62.9667 30.7152 62.1504 30.7403C62.0625 30.7435 61.9777 30.745 61.8914 30.745H61.8851L61.882 30.7466Z" fill="#ffffff"/>
<path d="M128.905 30.4107C128.564 30.4107 128.288 30.1344 128.288 29.7937V20.6963C128.288 20.037 128.396 19.3902 128.611 18.7748C128.615 18.7685 128.616 18.7623 128.618 18.756C129.199 17.1139 130.525 15.7874 132.167 15.2065C132.17 15.2065 132.173 15.205 132.176 15.2034C132.77 14.9946 133.391 14.8863 134.022 14.8784H135.102C135.443 14.8784 135.719 15.1547 135.719 15.4954V17.4687C135.719 17.8078 135.445 18.0841 135.106 18.0857L134.118 18.0904C134.084 18.0904 134.049 18.0935 134.016 18.1013C133.752 18.1108 133.495 18.161 133.249 18.2489C132.511 18.5079 131.914 19.1045 131.654 19.8439C131.566 20.0919 131.517 20.3478 131.506 20.6069C131.498 20.6414 131.494 20.6791 131.494 20.7167V29.7968C131.494 30.1375 131.217 30.4138 130.877 30.4138H128.905V30.4107Z" fill="#ffffff"/>
<path d="M88.8599 18.789V29.7937C88.8599 30.1344 89.1361 30.4107 89.4768 30.4107H91.4453C91.7859 30.4107 92.0622 30.1344 92.0622 29.7937V18.7858C92.0622 18.632 91.9146 18.5221 91.7671 18.5645C91.3511 18.6853 90.91 18.7497 90.4547 18.7497C89.9995 18.7497 89.5678 18.6853 89.155 18.5676C89.0074 18.5252 88.8599 18.6351 88.8599 18.789Z" fill="#ffffff"/>
<path d="M88.8599 15.9224V17.7042C88.8599 17.9883 89.0545 18.2364 89.3308 18.3054C89.6918 18.3934 90.067 18.442 90.4547 18.442C90.8425 18.442 91.2286 18.3934 91.5928 18.3023C91.8691 18.2332 92.0622 17.9868 92.0622 17.7026V15.924C92.0622 15.5833 91.7859 15.307 91.4453 15.307H89.4768C89.1361 15.307 88.8599 15.5833 88.8599 15.9224Z" fill="#ffffff"/>
<defs>
<linearGradient id="paint0_linear_181_628" x1="6.86048" y1="10.47" x2="37.1042" y2="29.8452" gradientUnits="userSpaceOnUse">
<stop stop-color="#ffffff"/>
<stop offset="0.328125" stop-color="#ffffff"/>
<stop offset="0.65" stop-color="#ffffff"/>
<stop offset="0.88" stop-color="#ffffff"/>
<stop offset="0.963542" stop-color="#ffffff"/>
</linearGradient>
</defs>
</svg>
