<svg width="21" height="20" viewBox="0 0 21 20" fill="none" xmlns="http://www.w3.org/2000/svg">
<g id="Frame">
<path id="Vector (Stroke)" fill-rule="evenodd" clip-rule="evenodd" d="M1.41699 10.0003C1.41699 4.98374 5.48374 0.916992 10.5003 0.916992C15.5169 0.916992 19.5837 4.98374 19.5837 10.0003C19.5837 15.0169 15.5169 19.0837 10.5003 19.0837C5.48374 19.0837 1.41699 15.0169 1.41699 10.0003ZM3.21604 7.88469C3.02135 8.55618 2.91699 9.26607 2.91699 10.0003C2.91699 13.0933 4.76871 15.7538 7.42404 16.9337L10.0668 14.4797C8.85697 14.3641 7.78693 13.7694 7.04853 12.8876C7.00722 12.8527 6.96905 12.8128 6.93494 12.7681L3.21604 7.88469ZM3.88594 6.28855L6.07747 9.16628C6.46855 7.07948 8.30001 5.50033 10.5003 5.50033H16.6048C15.2238 3.63 13.0037 2.41699 10.5003 2.41699C7.66057 2.41699 5.18539 3.9779 3.88594 6.28855ZM17.4671 7.00033H13.8545C14.5671 7.79646 15.0003 8.84779 15.0003 10.0003C15.0003 11.4244 14.3388 12.694 13.3063 13.5186L9.07297 17.4495C9.53525 17.5376 10.0124 17.5837 10.5003 17.5837C14.6885 17.5837 18.0837 14.1885 18.0837 10.0003C18.0837 8.9347 17.8639 7.92041 17.4671 7.00033ZM12.4339 12.2942C13.0861 11.7439 13.5003 10.9205 13.5003 10.0003C13.5003 8.34346 12.1572 7.00033 10.5003 7.00033C8.84346 7.00033 7.50033 8.34346 7.50033 10.0003C7.50033 11.6572 8.84346 13.0003 10.5003 13.0003C11.1897 13.0003 11.8247 12.7678 12.3313 12.377L12.3416 12.3674C12.3709 12.3402 12.4017 12.3158 12.4339 12.2942Z" fill="white"/>
</g>
</svg>
