<svg width="240" height="120" viewBox="0 0 240 120" fill="none" xmlns="http://www.w3.org/2000/svg">
<path opacity="0.302" d="M24.5555 32.6788C33.9252 31.156 37.7183 30.0103 46.8658 21.1144C56.0134 12.2185 65.289 25.1978 79.0463 19.9861C92.8036 14.7754 94.0609 8.46598 115.103 27.7925C124.803 36.0063 132.517 32.7544 137.271 36.0063C140.44 38.1734 143.496 43.5178 146.436 52.0367H24.5555C14.8521 48.6289 10 45.7982 10 43.5454C10 40.1662 15.1867 34.2006 24.5555 32.6788Z" fill="url(#paint0_linear_767_172)"/>
<path opacity="0.302" d="M135.688 46.2684C142.938 45.143 145.872 44.2968 152.951 37.721C160.03 31.1451 167.207 40.7388 177.853 36.8868C188.498 33.0356 189.472 28.3725 205.754 42.657C213.259 48.7277 219.229 46.3247 222.907 48.7277C225.36 50.3297 227.725 54.2795 230 60.5769H135.688C128.178 58.0578 124.424 55.9654 124.424 54.3007C124.424 51.8027 128.437 47.393 135.688 46.2684Z" fill="url(#paint1_linear_767_172)"/>
<path d="M81.0137 12.5307C81.0137 9.47623 83.4898 7.00012 86.5442 7.00011L147.34 7C150.394 6.99999 152.87 9.47611 152.87 12.5306V72.27C152.87 77.56 148.581 81.848 143.292 81.848H81.7317C81.5414 81.8478 81.3589 81.772 81.2243 81.6374C81.0896 81.5028 81.0139 81.3203 81.0137 81.13V12.5307Z" fill="url(#paint2_linear_767_172)"/>
<path fill-rule="evenodd" clip-rule="evenodd" d="M99.2344 56.4692H124.925V75.5912H99.7024L99.2344 56.4692Z" fill="#D5DEFF"/>
<path fill-rule="evenodd" clip-rule="evenodd" d="M98.1963 61.4692H121.877V79.0951H98.6277L98.1963 61.4692Z" fill="#E9E9EF"/>
<path d="M132.861 73.2287C132.861 75.4327 133.705 77.5532 135.22 79.1539C136.735 80.7547 138.806 81.7142 141.007 81.8352C140.85 81.8444 140.692 81.8481 140.534 81.8481H74.578C69.288 81.8481 65 77.56 65 72.2701V64.7006H115.666C115.754 62.4982 116.687 60.4142 118.271 58.8815C119.855 57.3488 121.968 56.4852 124.172 56.4702L124.241 56.4692C126.459 56.4694 128.593 57.325 130.197 58.8582C131.801 60.3914 132.752 62.484 132.852 64.7006H132.861V73.2287Z" fill="url(#paint3_linear_767_172)"/>
<path d="M63.562 56.4692H115.691C115.882 56.4692 116.065 56.545 116.2 56.6798C116.334 56.8147 116.41 56.9975 116.41 57.1882V100.833C116.41 102.9 115.589 104.883 114.127 106.345C112.665 107.807 110.682 108.629 108.614 108.629H56.6184C56.4279 108.629 56.2451 108.553 56.1103 108.419C55.9755 108.284 55.8997 108.101 55.8994 107.911V64.1318C55.8994 62.0996 56.7067 60.1506 58.1437 58.7136C59.5808 57.2765 61.5298 56.4692 63.562 56.4692Z" fill="url(#paint4_linear_767_172)"/>
<path d="M100.362 93.9756V101.363C100.362 103.29 101.127 105.138 102.49 106.501C103.852 107.863 105.7 108.629 107.627 108.629H55.9199C48.3633 108.629 42.2373 102.503 42.2373 94.9462V93.9756H100.362Z" fill="url(#paint5_linear_767_172)"/>
<path fill-rule="evenodd" clip-rule="evenodd" d="M170.588 98C171.466 98 172.176 98.7107 172.176 99.5882V112.806C172.176 113.227 172.009 113.631 171.711 113.929C171.413 114.227 171.009 114.394 170.588 114.394C170.167 114.394 169.763 114.227 169.465 113.929C169.167 113.631 169 113.227 169 112.806V99.5882C169 98.7107 169.712 98 170.588 98Z" fill="#E6ECFE"/>
<path fill-rule="evenodd" clip-rule="evenodd" d="M167.273 77.8706C164.322 83.9967 154.164 102.784 168.398 104.887C182.631 106.991 181.996 94.4854 179.5 90.0111C177.004 85.536 174.185 83.0297 174.185 77.8706C174.185 72.7116 170.222 71.7455 167.273 77.8706Z" fill="url(#paint6_linear_767_172)"/>
<path fill-rule="evenodd" clip-rule="evenodd" d="M196.254 91.3533H196.408C196.844 91.3533 197.197 91.7063 197.197 92.1423V100.455C197.197 100.664 197.114 100.865 196.966 101.013C196.818 101.161 196.617 101.244 196.408 101.244H196.254C196.045 101.244 195.844 101.161 195.696 101.013C195.548 100.865 195.465 100.664 195.465 100.455V92.1423C195.465 91.7063 195.818 91.3533 196.254 91.3533Z" fill="#E6ECFE"/>
<path fill-rule="evenodd" clip-rule="evenodd" d="M194.363 76.663C192.437 80.5104 185.804 92.3117 195.098 93.6326C204.393 94.9535 203.978 87.0991 202.348 84.2887C200.718 81.4773 198.877 79.9039 198.877 76.663C198.877 73.4221 196.29 72.8155 194.363 76.663Z" fill="url(#paint7_linear_767_172)"/>
<path d="M104.453 23.5918H93.0836C92.8682 23.5918 92.6616 23.6774 92.5093 23.8296C92.357 23.9819 92.2715 24.1885 92.2715 24.4039V35.7738C92.2714 35.8805 92.2923 35.9861 92.3331 36.0847C92.3738 36.1833 92.4336 36.2728 92.5091 36.3483C92.5845 36.4237 92.6741 36.4835 92.7726 36.5243C92.8712 36.565 92.9769 36.586 93.0836 36.5859H104.453C104.669 36.5859 104.875 36.5003 105.028 36.348C105.18 36.1957 105.266 35.9892 105.266 35.7738V24.4039C105.265 24.1886 105.18 23.9822 105.027 23.8299C104.875 23.6777 104.669 23.592 104.453 23.5918Z" fill="url(#paint8_linear_767_172)"/>
<path d="M112.576 23.5918H138.563C139.012 23.5918 139.375 23.9559 139.375 24.4039V26.8401C139.375 26.9468 139.354 27.0524 139.313 27.151C139.273 27.2496 139.213 27.3391 139.137 27.4146C139.062 27.49 138.972 27.5498 138.874 27.5906C138.775 27.6313 138.67 27.6523 138.563 27.6522H112.576C112.469 27.6523 112.363 27.6313 112.265 27.5906C112.166 27.5498 112.077 27.49 112.001 27.4146C111.926 27.3391 111.866 27.2496 111.825 27.151C111.784 27.0524 111.764 26.9468 111.764 26.8401V24.4039C111.764 23.9559 112.127 23.5918 112.576 23.5918Z" fill="url(#paint9_linear_767_172)"/>
<path d="M112.576 32.5254H138.563C138.67 32.5253 138.775 32.5462 138.874 32.587C138.972 32.6277 139.062 32.6875 139.137 32.763C139.213 32.8384 139.273 32.928 139.313 33.0266C139.354 33.1251 139.375 33.2308 139.375 33.3375V35.7737C139.375 35.8804 139.354 35.986 139.313 36.0846C139.273 36.1832 139.213 36.2727 139.137 36.3482C139.062 36.4236 138.972 36.4834 138.874 36.5242C138.775 36.5649 138.67 36.5859 138.563 36.5857H112.576C112.469 36.5859 112.363 36.5649 112.265 36.5242C112.166 36.4834 112.077 36.4236 112.001 36.3482C111.926 36.2727 111.866 36.1832 111.825 36.0846C111.784 35.986 111.764 35.8804 111.764 35.7737V33.3375C111.764 33.2308 111.784 33.1251 111.825 33.0266C111.866 32.928 111.926 32.8384 112.001 32.763C112.077 32.6875 112.166 32.6277 112.265 32.587C112.363 32.5462 112.469 32.5253 112.576 32.5254Z" fill="url(#paint10_linear_767_172)"/>
<path d="M64.1636 69.208H109.642C110.091 69.208 110.454 69.5721 110.454 70.0201V72.4572C110.454 72.6726 110.369 72.8791 110.217 73.0314C110.064 73.1837 109.858 73.2693 109.642 73.2693H64.1636C63.9483 73.2693 63.7417 73.1837 63.5894 73.0314C63.4371 72.8791 63.3516 72.6726 63.3516 72.4572V70.0201C63.3516 69.5721 63.7147 69.208 64.1636 69.208Z" fill="url(#paint11_linear_767_172)"/>
<path d="M64.1636 79.8191H109.642C110.091 79.8191 110.454 80.1832 110.454 80.6312V83.0683C110.454 83.2837 110.369 83.4902 110.217 83.6425C110.064 83.7948 109.858 83.8804 109.642 83.8804H64.1636C63.9483 83.8804 63.7417 83.7948 63.5894 83.6425C63.4371 83.4902 63.3516 83.2837 63.3516 83.0683V80.6312C63.3516 80.1832 63.7147 79.8191 64.1636 79.8191Z" fill="url(#paint12_linear_767_172)"/>
<defs>
<linearGradient id="paint0_linear_767_172" x1="78" y1="24" x2="78.2177" y2="52.0367" gradientUnits="userSpaceOnUse">
<stop stop-color="#D8DEFF"/>
<stop offset="1" stop-color="#F1F1FF" stop-opacity="0"/>
</linearGradient>
<linearGradient id="paint1_linear_767_172" x1="177" y1="42" x2="177.212" y2="60.5769" gradientUnits="userSpaceOnUse">
<stop stop-color="#E3E7FF"/>
<stop offset="1" stop-color="#F0F4FF" stop-opacity="0"/>
</linearGradient>
<linearGradient id="paint2_linear_767_172" x1="121.114" y1="-11.435" x2="121.114" y2="82.7081" gradientUnits="userSpaceOnUse">
<stop stop-color="#E6ECFF"/>
<stop offset="1" stop-color="#F5F7FF"/>
</linearGradient>
<linearGradient id="paint3_linear_767_172" x1="103.003" y1="80.306" x2="103.003" y2="59.3654" gradientUnits="userSpaceOnUse">
<stop stop-color="#EEEEF8"/>
<stop offset="1" stop-color="#7D9AFF"/>
</linearGradient>
<linearGradient id="paint4_linear_767_172" x1="86.1553" y1="56.4692" x2="86" y2="109" gradientUnits="userSpaceOnUse">
<stop stop-color="#D5DEFF"/>
<stop offset="1" stop-color="#E8EDFF"/>
</linearGradient>
<linearGradient id="paint5_linear_767_172" x1="74.9321" y1="93.9756" x2="75" y2="109" gradientUnits="userSpaceOnUse">
<stop stop-color="#F5F7FF"/>
<stop offset="1" stop-color="#D9E1FF"/>
</linearGradient>
<linearGradient id="paint6_linear_767_172" x1="170.949" y1="73.6315" x2="170.949" y2="105.123" gradientUnits="userSpaceOnUse">
<stop stop-color="#D9E1FF"/>
<stop offset="1" stop-color="#F9FAFF"/>
</linearGradient>
<linearGradient id="paint7_linear_767_172" x1="196.765" y1="74" x2="196.765" y2="93.781" gradientUnits="userSpaceOnUse">
<stop stop-color="#D9E1FF"/>
<stop offset="1" stop-color="#FAFBFF"/>
</linearGradient>
<linearGradient id="paint8_linear_767_172" x1="98.7681" y1="23.5918" x2="98.7681" y2="36.5859" gradientUnits="userSpaceOnUse">
<stop stop-color="white"/>
<stop offset="1" stop-color="#FDFDFF"/>
</linearGradient>
<linearGradient id="paint9_linear_767_172" x1="125.569" y1="23.5918" x2="125.569" y2="27.6522" gradientUnits="userSpaceOnUse">
<stop stop-color="white"/>
<stop offset="1" stop-color="#FAFAFC"/>
</linearGradient>
<linearGradient id="paint10_linear_767_172" x1="125.569" y1="32.5254" x2="125.569" y2="36.5857" gradientUnits="userSpaceOnUse">
<stop stop-color="white"/>
<stop offset="1" stop-color="#F9F9FF"/>
</linearGradient>
<linearGradient id="paint11_linear_767_172" x1="86.9035" y1="69.208" x2="86.9035" y2="73.2693" gradientUnits="userSpaceOnUse">
<stop stop-color="white"/>
<stop offset="1" stop-color="#FAFAFC"/>
</linearGradient>
<linearGradient id="paint12_linear_767_172" x1="86.9035" y1="79.8191" x2="86.9035" y2="83.8804" gradientUnits="userSpaceOnUse">
<stop stop-color="white"/>
<stop offset="1" stop-color="#FAFAFC"/>
</linearGradient>
</defs>
</svg>
