<svg width="17" height="16" viewBox="0 0 17 16" fill="none" xmlns="http://www.w3.org/2000/svg">
<g id="Frame">
<path id="Vector" fill-rule="evenodd" clip-rule="evenodd" d="M8.38188 14.6663C11.0974 14.6663 13.9997 14.3365 13.9997 10.0597C13.9997 7.98777 13.5025 6.30107 12.5082 4.99967C11.5794 6.55524 10.891 7.33301 10.443 7.33301C9.77098 7.33301 10.443 5.30324 9.66591 3.76347C9.14784 2.73699 8.22898 1.92683 6.90931 1.33301C7.09281 2.81198 7.05311 3.88481 6.79018 4.55147C6.39574 5.55147 3.05006 7.30301 3.35229 10.3113C3.65452 13.3196 5.66634 14.6663 8.38188 14.6663Z" fill="#274FEE" stroke="#274FEE" stroke-width="1.2" stroke-linejoin="round"/>
<path id="Vector_2" d="M7.90238 8.00293C6.63411 9.1557 6.09354 10.2226 6.28074 11.2038C6.44188 12.0484 7.08274 12.459 7.56548 12.5913C7.93971 12.694 8.58768 12.7514 9.16664 12.2357C9.77991 11.6896 9.53554 10.9131 8.64624 9.95253C8.27111 9.54733 8.02314 8.89746 7.90238 8.00293Z" fill="white" stroke="white" stroke-width="1.2" stroke-linejoin="round"/>
</g>
</svg>
