<svg width="268" height="36" viewBox="0 0 268 36" fill="none" xmlns="http://www.w3.org/2000/svg">
<path d="M3.06361 27.9594C2.97927 27.9117 2.90103 27.8497 2.83397 27.7724C1.0497 25.7523 0.764172 22.839 2.1227 20.5241L11.6974 4.20864C11.9464 3.7849 12.4971 3.63958 12.9279 3.88448C13.3587 4.12937 13.5061 4.67099 13.2581 5.09575L3.68343 21.4113C2.70899 23.0717 2.91424 25.1609 4.19453 26.6099C4.5207 26.9798 4.48107 27.5397 4.10511 27.8608C3.80739 28.1159 3.38673 28.1433 3.06361 27.9594ZM1.12082 19.2733L10.9374 2.54518C11.2808 1.95987 11.735 1.46296 12.2868 1.06869C12.555 0.876637 12.615 0.50777 12.4199 0.243568C12.2248 -0.0206348 11.8488 -0.0785561 11.5806 0.112483C10.8916 0.604305 10.3247 1.22416 9.89688 1.95377L0.0803368 18.6818C-0.0852876 18.9643 0.0132741 19.3261 0.299815 19.4887C0.586355 19.6513 0.954183 19.5547 1.12082 19.2722V19.2733ZM15.7232 26.6262L19.2704 20.5811C19.685 19.8748 19.4391 18.9704 18.7207 18.563C18.0023 18.1545 17.0838 18.3973 16.6692 19.1036L13.122 25.1487C12.4585 26.2787 10.9841 26.6679 9.83592 26.0155C8.68671 25.3631 8.29145 23.912 8.95496 22.7821L16.7637 9.47643C17.1783 8.77019 16.9324 7.86581 16.214 7.45832C15.4956 7.04983 14.577 7.29269 14.1625 7.99892L6.35374 21.3046C4.86211 23.846 5.75018 27.1069 8.33412 28.5742C10.917 30.0415 14.2326 29.1676 15.7232 26.6262ZM33.9978 8.13915C33.6218 8.46026 33.5822 9.02017 33.9084 9.39005C35.1886 10.8391 35.3939 12.9283 34.4195 14.5887L24.8447 30.9043C24.5958 31.328 24.7431 31.8706 25.175 32.1155C25.6058 32.3604 26.1565 32.2151 26.4055 31.7914L35.9802 15.4759C37.3387 13.16 37.0532 10.2477 35.2689 8.22756C35.2019 8.15135 35.1236 8.08936 35.0393 8.04059C34.7151 7.85666 34.2955 7.88511 33.9978 8.13915ZM36.9821 16.7267L27.1655 33.4548C26.8221 34.0401 26.3679 34.537 25.8161 34.9313C25.5479 35.1234 25.4879 35.4922 25.683 35.7564C25.8781 36.0206 26.2541 36.0786 26.5223 35.8875C27.2112 35.3957 27.7782 34.7758 28.206 34.0462L38.0226 17.3182C38.1882 17.0357 38.0896 16.6739 37.8031 16.5113C37.5155 16.3477 37.1487 16.4453 36.9821 16.7278V16.7267ZM22.3797 9.37379L18.8325 15.4189C18.4179 16.1252 18.6638 17.0296 19.3822 17.437C20.1006 17.8455 21.0191 17.6027 21.4337 16.8964L24.9809 10.8513C25.6444 9.72132 27.1188 9.33213 28.267 9.98451C29.4162 10.6369 29.8114 12.088 29.1479 13.2179L21.3392 26.5236C20.9246 27.2298 21.1705 28.1342 21.8889 28.5417C22.6073 28.9502 23.5258 28.7073 23.9404 28.0011L31.7491 14.6954C33.2408 12.154 32.3527 8.89315 29.7688 7.42581C27.1858 5.95847 23.8703 6.83237 22.3797 9.37379Z" fill="url(#paint0_linear_3719_955)"/>
<path d="M74.1976 26.7366V19.3655C74.1976 17.6725 72.8835 16.2292 71.192 16.1654C69.4139 16.0987 67.9452 17.5249 67.9452 19.2889V26.738C67.9452 27.0459 67.6955 27.2957 67.3875 27.2957H65.6052C65.2973 27.2957 65.0475 27.0459 65.0475 26.738V19.2889C65.0475 18.4261 65.2263 17.5916 65.5797 16.8082C66.5531 14.6554 68.7087 13.2646 71.07 13.2646C73.4313 13.2646 75.5868 14.6554 76.5603 16.8082C76.9137 17.5916 77.0925 18.4261 77.0925 19.2889V26.738C77.0925 27.0459 76.8427 27.2957 76.5348 27.2957H74.7524C74.4445 27.2957 74.1947 27.0459 74.1947 26.738L74.1976 26.7366Z" fill="#0F172A"/>
<path d="M91.4434 27.6389C88.9175 27.6389 87.2473 25.8352 86.4767 22.2803C86.1007 20.5447 85.2464 16.3823 84.8207 14.3075C84.7497 13.9613 85.0137 13.6391 85.367 13.6391H87.0798C87.3508 13.6391 87.5836 13.8335 87.629 14.1018C87.9582 16.0148 88.76 20.6582 89.0863 22.4591C89.3602 23.9733 90.1535 24.7411 91.442 24.7411C93.0413 24.7411 93.4599 23.5206 93.6458 22.4562C93.9736 20.5887 94.869 15.9736 95.238 14.089C95.289 13.8264 95.5189 13.6377 95.7857 13.6377H97.5141C97.8675 13.6377 98.1314 13.9627 98.0605 14.3089L96.4073 22.2831C96.1873 23.5504 95.1854 27.6375 91.442 27.6375L91.4434 27.6389Z" fill="#0F172A"/>
<path d="M55.3017 27.5959C55.2265 27.5959 55.1512 27.5959 55.0775 27.5917C54.3353 27.569 53.6101 27.4342 52.9177 27.1886C52.5019 27.0411 52.1003 26.8566 51.7256 26.638C50.6344 26.0093 49.7276 25.1025 49.1004 24.0126C48.8819 23.6337 48.696 23.2321 48.5498 22.8177C48.2788 22.0542 48.1411 21.251 48.1411 20.4279V8.73839C48.1411 8.43043 48.3909 8.18066 48.6988 8.18066H50.4811C50.7891 8.18066 51.0388 8.43043 51.0388 8.73839V20.337C51.0388 22.6602 52.8566 24.6271 55.1796 24.6966C57.5934 24.7676 59.5787 22.8262 59.5787 20.4279V8.73839C59.5787 8.43043 59.8285 8.18066 60.1364 8.18066H61.9187C62.2267 8.18066 62.4764 8.43043 62.4764 8.73839V20.4279C62.4764 21.2453 62.3388 22.0499 62.0677 22.8177C61.9216 23.2321 61.7357 23.6337 61.5171 24.0098C60.8885 25.0997 59.9817 26.0065 58.8933 26.6338C58.5172 26.8537 58.1156 27.0396 57.6984 27.1872C57.0074 27.4327 56.2822 27.5676 55.5443 27.5903C55.4649 27.5931 55.3882 27.5945 55.3102 27.5945H55.3045L55.3017 27.5959Z" fill="#0F172A"/>
<path d="M115.89 27.292C115.582 27.292 115.332 27.0422 115.332 26.7342V18.5103C115.332 17.9143 115.43 17.3296 115.625 16.7733C115.627 16.7676 115.629 16.7619 115.63 16.7563C116.155 15.2718 117.354 14.0727 118.839 13.5476C118.842 13.5476 118.844 13.5462 118.847 13.5447C119.384 13.356 119.946 13.2581 120.516 13.251H121.492C121.8 13.251 122.05 13.5007 122.05 13.8087V15.5926C122.05 15.8991 121.802 16.1489 121.495 16.1503L120.603 16.1545C120.571 16.1545 120.54 16.1574 120.51 16.1645C120.272 16.173 120.039 16.2184 119.816 16.2979C119.15 16.532 118.61 17.0713 118.375 17.7397C118.295 17.9639 118.251 18.1953 118.241 18.4294C118.234 18.4606 118.23 18.4947 118.23 18.5288V26.7371C118.23 27.045 117.98 27.2948 117.672 27.2948H115.89V27.292Z" fill="#0F172A"/>
<path d="M79.6863 16.7864V26.7346C79.6863 27.0426 79.9361 27.2923 80.244 27.2923H82.0235C82.3314 27.2923 82.5812 27.0426 82.5812 26.7346V16.7836C82.5812 16.6445 82.4478 16.5452 82.3144 16.5835C81.9384 16.6928 81.5396 16.7509 81.1281 16.7509C80.7165 16.7509 80.3263 16.6928 79.9531 16.5863C79.8197 16.548 79.6863 16.6473 79.6863 16.7864Z" fill="#0F172A"/>
<path d="M79.6863 14.194V15.8047C79.6863 16.0616 79.8623 16.2858 80.112 16.3483C80.4384 16.4277 80.7776 16.4717 81.1281 16.4717C81.4786 16.4717 81.8277 16.4277 82.1569 16.3454C82.4066 16.283 82.5812 16.0602 82.5812 15.8033V14.1954C82.5812 13.8875 82.3314 13.6377 82.0235 13.6377H80.244C79.9361 13.6377 79.6863 13.8875 79.6863 14.194Z" fill="#0F172A"/>
<path d="M106.257 27.6028C102.495 27.6028 99.4341 24.387 99.4341 20.4347C99.4341 16.4824 102.495 13.2666 106.257 13.2666C109.458 13.2666 112.193 15.5528 112.907 18.8254C113.022 19.3462 113.08 19.8869 113.08 20.4333C113.08 20.4503 113.08 20.4659 113.08 20.4829C113.077 20.8633 112.763 21.1684 112.382 21.1684H102.444C102.299 21.1684 102.163 21.2351 102.076 21.3486C101.988 21.4621 101.96 21.6097 101.998 21.7474C102.563 23.7597 104.249 25.1661 106.298 25.1661C107.416 25.1661 108.496 24.7517 109.336 23.9981C109.481 23.8704 109.619 23.7299 109.748 23.5823C109.851 23.4631 110.005 23.3964 110.162 23.3964H111.817C112.262 23.3964 112.529 23.8931 112.282 24.2649C111.475 25.4755 110.216 26.4746 108.842 27.0663C108.024 27.4211 107.154 27.5999 106.257 27.5999V27.6028ZM106.298 15.5826C104.486 15.5826 102.85 16.7194 102.13 18.4791C102.072 18.6224 102.086 18.7856 102.171 18.9148C102.255 19.0439 102.397 19.122 102.549 19.122H110.049C110.2 19.122 110.342 19.0439 110.426 18.9148C110.51 18.7856 110.525 18.621 110.467 18.4791C109.746 16.7194 108.11 15.5826 106.298 15.5826Z" fill="#0F172A"/>
<path d="M201.475 27.2282C200.669 27.5885 199.717 27.7686 198.619 27.7686C197.503 27.7686 196.499 27.5712 195.607 27.1766C194.732 26.7647 194.037 26.2154 193.522 25.5291C193.187 25.0718 192.95 24.5224 192.817 23.9553C192.723 23.5554 193.054 23.1867 193.501 23.1867H195.027C195.422 23.1867 195.763 23.5043 195.956 23.9061C196.099 24.2059 196.309 24.4841 196.583 24.7039L196.587 24.7069C197.119 25.1006 197.779 25.2975 198.567 25.2975C199.39 25.2975 200.025 25.1431 200.471 24.8344C200.935 24.5084 201.167 24.096 201.167 23.5986C201.167 23.3326 201.102 23.1009 200.974 22.9036C200.845 22.7062 200.652 22.5432 200.395 22.4145C199.897 22.1572 199.099 21.8738 198.001 21.5652C196.937 21.2735 196.07 20.9901 195.401 20.7156C194.732 20.441 194.148 20.0206 193.651 19.4543C193.171 18.8881 192.93 18.1411 192.93 17.2149C192.93 16.4601 193.153 15.7739 193.599 15.1562L193.6 15.1549C194.046 14.5204 194.68 14.0231 195.503 13.6628C196.344 13.3026 197.306 13.1221 198.387 13.1221C199.999 13.1221 201.295 13.5337 202.273 14.3569L202.275 14.3584C203.045 14.9834 203.543 15.8705 203.76 16.8968C203.846 17.3056 203.508 17.6782 203.06 17.6782H201.647C201.251 17.6782 200.914 17.3608 200.74 16.9532C200.609 16.6441 200.416 16.3659 200.163 16.1595C199.7 15.782 199.073 15.5932 198.284 15.5932C197.512 15.5932 196.92 15.7391 196.508 16.0308C196.096 16.3225 195.89 16.7086 195.89 17.1891C195.89 17.5667 196.027 17.8841 196.302 18.1415C196.576 18.3984 196.91 18.604 197.303 18.7584L197.308 18.7601C197.703 18.8972 198.285 19.077 199.055 19.2995L199.057 19.3002C200.085 19.5744 200.925 19.8572 201.577 20.1485L201.581 20.1501C202.249 20.4246 202.823 20.8362 203.303 21.3849C203.784 21.934 204.033 22.6633 204.05 23.5728C204.05 24.3789 203.827 25.1004 203.381 25.7351C202.934 26.3699 202.299 26.8679 201.475 27.2282Z" fill="#0F172A"/>
<path d="M169.892 27.5107C169.584 27.5107 169.334 27.2609 169.334 26.953V18.7291C169.334 18.133 169.432 17.5483 169.626 16.992C169.629 16.9864 169.631 16.9807 169.632 16.975C170.157 15.4906 171.356 14.2914 172.84 13.7663C172.843 13.7663 172.846 13.7649 172.849 13.7635C173.385 13.5747 173.947 13.4768 174.518 13.4697H175.494C175.802 13.4697 176.052 13.7195 176.052 14.0275V15.8113C176.052 16.1178 175.803 16.3676 175.497 16.369L174.604 16.3733C174.573 16.3733 174.542 16.3761 174.512 16.3832C174.274 16.3917 174.041 16.4372 173.818 16.5166C173.151 16.7508 172.612 17.2901 172.376 17.9585C172.297 18.1827 172.253 18.414 172.243 18.6482C172.236 18.6794 172.232 18.7135 172.232 18.7475V26.9558C172.232 27.2638 171.982 27.5136 171.674 27.5136H169.892V27.5107Z" fill="#0F172A"/>
<path fill-rule="evenodd" clip-rule="evenodd" d="M166.675 20.4741C166.675 24.3665 163.636 27.5136 159.896 27.5136C156.157 27.5136 153.118 24.3665 153.118 20.4741C153.118 16.5817 156.157 13.4346 159.896 13.4346C163.636 13.4346 166.675 16.5817 166.675 20.4741ZM159.896 24.8779C162.088 24.8779 164.039 23.0048 164.039 20.4741C164.039 17.9434 162.088 16.0703 159.896 16.0703C157.705 16.0703 155.754 17.9434 155.754 20.4741C155.754 23.0048 157.705 24.8779 159.896 24.8779Z" fill="#0F172A"/>
<path fill-rule="evenodd" clip-rule="evenodd" d="M233.887 27.0314V25.8714L233.678 26.0399C232.531 26.9641 231.091 27.5136 229.527 27.5136C225.788 27.5136 222.749 24.3665 222.749 20.4741C222.749 16.5817 225.788 13.4346 229.527 13.4346C231.091 13.4346 232.531 13.9842 233.678 14.9083L233.887 15.0768V13.9231C233.887 13.6533 234.106 13.4346 234.376 13.4346H236.034C236.304 13.4346 236.523 13.6533 236.523 13.9231V27.0313C236.523 27.3012 236.304 27.5199 236.034 27.5199H234.376C234.106 27.5199 233.887 27.3012 233.887 27.0314ZM229.527 24.8779C231.718 24.8779 233.67 23.0048 233.67 20.4741C233.67 17.9434 231.718 16.0703 229.527 16.0703C227.336 16.0703 225.385 17.9434 225.385 20.4741C225.385 23.0048 227.336 24.8779 229.527 24.8779Z" fill="#0F172A"/>
<path d="M179.094 27.0536V8.7957C179.094 8.54718 179.295 8.3457 179.544 8.3457H181.279C181.528 8.3457 181.729 8.54717 181.729 8.7957L181.729 16.186C181.729 16.8022 182.463 17.1236 182.916 16.7059L186.712 13.2065C186.795 13.1302 186.903 13.0877 187.016 13.0874L189.381 13.0805C189.781 13.0793 189.984 13.5604 189.704 13.8455L184.565 19.0856C184.292 19.3641 184.296 19.8111 184.574 20.0847L191.335 26.7388C191.622 27.0217 191.421 27.5106 191.018 27.5095L188.182 27.5022C188.065 27.5019 187.953 27.4558 187.869 27.3738L182.931 22.5403C182.483 22.1022 181.729 22.4193 181.729 23.0457L181.729 27.0536C181.729 27.3021 181.528 27.5036 181.279 27.5036H179.544C179.295 27.5036 179.094 27.3021 179.094 27.0536Z" fill="#0F172A"/>
<path d="M141.49 11.9965L143.677 25.4039C144.206 28.1439 148.092 28.2435 148.761 25.5332L152.846 8.96787C152.922 8.65989 152.689 8.3623 152.372 8.3623H150.664C150.439 8.3623 150.243 8.51565 150.19 8.73388L146.377 24.1911L146.125 24.1816L143.696 9.75617C143.561 8.95151 142.864 8.3623 142.048 8.3623H140.882C140.099 8.3623 139.421 8.90624 139.251 9.67083L136.022 24.1882L135.77 24.1846L132.799 8.75847C132.754 8.52849 132.553 8.3623 132.319 8.3623H130.63C130.323 8.3623 130.092 8.64193 130.15 8.94329L133.32 25.4021C133.848 28.1432 137.734 28.244 138.404 25.5354L141.238 11.9909L141.49 11.9965Z" fill="#0F172A"/>
<path fill-rule="evenodd" clip-rule="evenodd" d="M209.565 26.2055L209.36 26.0525L209.36 34.2862C209.36 34.5561 209.141 34.7748 208.871 34.7748H207.212C206.943 34.7748 206.724 34.5561 206.724 34.2862V13.6634C206.724 13.3935 206.943 13.1748 207.212 13.1748H208.871C209.141 13.1748 209.36 13.3935 209.36 13.6634V14.8947L209.565 14.7418C210.674 13.9159 212.037 13.4259 213.527 13.4259C217.338 13.4259 220.331 16.6356 220.331 20.4736C220.331 24.3116 217.338 27.5213 213.527 27.5213C212.037 27.5213 210.674 27.0314 209.565 26.2055ZM213.527 16.0616C211.28 16.0616 209.36 17.9808 209.36 20.4719V20.4754C209.36 22.9664 211.28 24.8856 213.527 24.8856C215.775 24.8856 217.695 22.9655 217.695 20.4736C217.695 17.9817 215.775 16.0616 213.527 16.0616Z" fill="#0F172A"/>
<path d="M245.744 16.207C243.497 16.207 241.577 18.1271 241.577 20.619C241.577 23.1109 243.497 25.031 245.744 25.031C246.958 25.031 248.076 24.4708 248.848 23.564C248.975 23.4144 249.158 23.319 249.354 23.319H251.116C251.553 23.319 251.849 23.7606 251.636 24.1421C250.468 26.2362 248.289 27.6667 245.744 27.6667C241.934 27.6667 238.941 24.457 238.941 20.619C238.941 16.781 241.934 13.5713 245.744 13.5713C248.289 13.5713 250.468 15.0018 251.636 17.0958C251.849 17.4774 251.553 17.919 251.116 17.919H249.354C249.158 17.919 248.975 17.8236 248.848 17.674C248.076 16.7672 246.958 16.207 245.744 16.207Z" fill="#0F172A"/>
<path d="M260.947 27.6037C257.185 27.6037 254.125 24.388 254.125 20.4357C254.125 16.4834 257.185 13.2676 260.947 13.2676C264.149 13.2676 266.883 15.5538 267.597 18.8264C267.712 19.3472 267.77 19.8879 267.77 20.4342C267.77 20.4513 267.77 20.4669 267.77 20.4839C267.767 20.8642 267.454 21.1694 267.072 21.1694H257.134C256.99 21.1694 256.853 21.2361 256.767 21.3496C256.679 21.4631 256.65 21.6107 256.689 21.7484C257.254 23.7607 258.939 25.1671 260.988 25.1671C262.107 25.1671 263.187 24.7527 264.027 23.9991C264.171 23.8714 264.309 23.7309 264.438 23.5833C264.542 23.4641 264.695 23.3974 264.853 23.3974H266.507C266.953 23.3974 267.22 23.8941 266.973 24.2659C266.165 25.4765 264.906 26.4755 263.533 27.0673C262.714 27.4221 261.844 27.6009 260.947 27.6009V27.6037ZM260.988 15.5836C259.176 15.5836 257.54 16.7203 256.821 18.4801C256.763 18.6234 256.777 18.7866 256.862 18.9158C256.946 19.0449 257.087 19.123 257.239 19.123H264.739C264.891 19.123 265.033 19.0449 265.117 18.9158C265.2 18.7866 265.216 18.622 265.158 18.4801C264.437 16.7203 262.801 15.5836 260.988 15.5836Z" fill="#0F172A"/>
<defs>
<linearGradient id="paint0_linear_3719_955" x1="-6.10352e-05" y1="18" x2="39.784" y2="18" gradientUnits="userSpaceOnUse">
<stop stop-color="#5357ED"/>
<stop offset="1" stop-color="#40B9FF"/>
</linearGradient>
</defs>
</svg>
