<svg width="24" height="24" viewBox="0 0 24 24" fill="none" xmlns="http://www.w3.org/2000/svg">
<path d="M15 6.5H9C5.13401 6.5 2 9.63401 2 13.5C2 17.366 5.13401 20.5 9 20.5H15C18.866 20.5 22 17.366 22 13.5C22 9.63401 18.866 6.5 15 6.5Z" stroke="url(#paint0_linear_1544_664)" stroke-width="2" stroke-linejoin="round"/>
<path d="M15.5 12C16.0523 12 16.5 11.5523 16.5 11C16.5 10.4477 16.0523 10 15.5 10C14.9477 10 14.5 10.4477 14.5 11C14.5 11.5523 14.9477 12 15.5 12Z" fill="url(#paint1_linear_1544_664)"/>
<path d="M17.5 14.5C18.0523 14.5 18.5 14.0523 18.5 13.5C18.5 12.9477 18.0523 12.5 17.5 12.5C16.9477 12.5 16.5 12.9477 16.5 13.5C16.5 14.0523 16.9477 14.5 17.5 14.5Z" fill="url(#paint2_linear_1544_664)"/>
<path d="M6 13.5H11" stroke="url(#paint3_linear_1544_664)" stroke-width="2" stroke-linecap="round" stroke-linejoin="round"/>
<path d="M12 3.5V6.5" stroke="url(#paint4_linear_1544_664)" stroke-width="2" stroke-linecap="round" stroke-linejoin="round"/>
<path d="M8.5 11V16" stroke="url(#paint5_linear_1544_664)" stroke-width="2" stroke-linecap="round" stroke-linejoin="round"/>
<defs>
<linearGradient id="paint0_linear_1544_664" x1="2" y1="14.753" x2="12.1873" y2="23.7485" gradientUnits="userSpaceOnUse">
<stop stop-color="#E22FFF"/>
<stop offset="1" stop-color="#602CFF"/>
</linearGradient>
<linearGradient id="paint1_linear_1544_664" x1="14.5" y1="11.179" x2="15.8118" y2="11.9899" gradientUnits="userSpaceOnUse">
<stop stop-color="#E22FFF"/>
<stop offset="1" stop-color="#602CFF"/>
</linearGradient>
<linearGradient id="paint2_linear_1544_664" x1="16.5" y1="13.679" x2="17.8118" y2="14.4899" gradientUnits="userSpaceOnUse">
<stop stop-color="#E22FFF"/>
<stop offset="1" stop-color="#602CFF"/>
</linearGradient>
<linearGradient id="paint3_linear_1544_664" x1="6" y1="14.0895" x2="6.42957" y2="15.4171" gradientUnits="userSpaceOnUse">
<stop stop-color="#E22FFF"/>
<stop offset="1" stop-color="#602CFF"/>
</linearGradient>
<linearGradient id="paint4_linear_1544_664" x1="12" y1="5.26851" x2="12.8696" y2="5.44768" gradientUnits="userSpaceOnUse">
<stop stop-color="#E22FFF"/>
<stop offset="1" stop-color="#602CFF"/>
</linearGradient>
<linearGradient id="paint5_linear_1544_664" x1="8.5" y1="13.9475" x2="9.39288" y2="14.0579" gradientUnits="userSpaceOnUse">
<stop stop-color="#E22FFF"/>
<stop offset="1" stop-color="#602CFF"/>
</linearGradient>
</defs>
</svg>
