<svg xmlns="http://www.w3.org/2000/svg" width="166" height="36" viewBox="0 0 166 36" fill="none">
  <path d="M3.06367 27.9594C2.97933 27.9117 2.90109 27.8497 2.83403 27.7724C1.04976 25.7523 0.764233 22.839 2.12276 20.5241L11.6975 4.20864C11.9464 3.7849 12.4971 3.63958 12.928 3.88448C13.3588 4.12937 13.5061 4.67099 13.2582 5.09575L3.68349 21.4113C2.70905 23.0717 2.9143 25.1609 4.19459 26.6099C4.52076 26.9798 4.48113 27.5397 4.10517 27.8608C3.80746 28.1159 3.38679 28.1433 3.06367 27.9594ZM1.12088 19.2733L10.9374 2.54518C11.2809 1.95987 11.7351 1.46296 12.2868 1.06869C12.5551 0.876637 12.615 0.50777 12.4199 0.243568C12.2248 -0.0206348 11.8489 -0.0785561 11.5806 0.112483C10.8917 0.604305 10.3247 1.22416 9.89694 1.95377L0.0803978 18.6818C-0.0852266 18.9643 0.0133352 19.3261 0.299876 19.4887C0.586416 19.6513 0.954244 19.5547 1.12088 19.2722V19.2733ZM15.7233 26.6262L19.2705 20.5811C19.685 19.8748 19.4391 18.9704 18.7208 18.563C18.0024 18.1545 17.0838 18.3973 16.6693 19.1036L13.122 25.1487C12.4585 26.2787 10.9842 26.6679 9.83598 26.0155C8.68677 25.3631 8.29151 23.912 8.95502 22.7821L16.7638 9.47643C17.1783 8.77019 16.9324 7.86581 16.214 7.45832C15.4957 7.04983 14.5771 7.29269 14.1625 7.99892L6.3538 21.3046C4.86217 23.846 5.75024 27.1069 8.33418 28.5742C10.9171 30.0415 14.2326 29.1676 15.7233 26.6262ZM33.9978 8.13915C33.6219 8.46026 33.5822 9.02017 33.9084 9.39005C35.1887 10.8391 35.394 12.9283 34.4195 14.5887L24.8448 30.9043C24.5959 31.328 24.7432 31.8706 25.175 32.1155C25.6059 32.3604 26.1566 32.2151 26.4055 31.7914L35.9802 15.4759C37.3388 13.16 37.0532 10.2477 35.269 8.22756C35.2019 8.15135 35.1237 8.08936 35.0393 8.04059C34.7152 7.85666 34.2956 7.88511 33.9978 8.13915ZM36.9821 16.7267L27.1656 33.4548C26.8221 34.0401 26.3679 34.537 25.8162 34.9313C25.5479 35.1234 25.488 35.4922 25.6831 35.7564C25.8782 36.0206 26.2541 36.0786 26.5224 35.8875C27.2113 35.3957 27.7783 34.7758 28.2061 34.0462L38.0226 17.3182C38.1882 17.0357 38.0897 16.6739 37.8031 16.5113C37.5156 16.3477 37.1488 16.4453 36.9821 16.7278V16.7267ZM22.3797 9.37379L18.8325 15.4189C18.418 16.1252 18.6639 17.0296 19.3822 17.437C20.1006 17.8455 21.0192 17.6027 21.4338 16.8964L24.981 10.8513C25.6445 9.72132 27.1188 9.33213 28.267 9.98451C29.4162 10.6369 29.8115 12.088 29.148 13.2179L21.3393 26.5236C20.9247 27.2298 21.1706 28.1342 21.889 28.5417C22.6073 28.9502 23.5259 28.7073 23.9405 28.0011L31.7492 14.6954C33.2408 12.154 32.3528 8.89315 29.7688 7.42581C27.1859 5.95847 23.8704 6.83237 22.3797 9.37379Z" fill="url(#paint0_linear_3719_775)"/>
  <path d="M106.324 27.677C102.562 27.677 99.501 24.4612 99.501 20.5089C99.501 16.5566 102.562 13.3408 106.324 13.3408C109.525 13.3408 112.26 15.6271 112.973 18.8996C113.088 19.4204 113.147 19.9611 113.147 20.5075C113.147 20.5245 113.147 20.5401 113.147 20.5572C113.144 20.9375 112.83 21.2426 112.448 21.2426H102.511C102.366 21.2426 102.23 21.3093 102.143 21.4228C102.055 21.5364 102.027 21.684 102.065 21.8216C102.63 23.834 104.316 25.2403 106.365 25.2403C107.483 25.2403 108.563 24.8259 109.403 24.0724C109.548 23.9446 109.686 23.8041 109.815 23.6566C109.918 23.5374 110.072 23.4707 110.229 23.4707H111.884C112.329 23.4707 112.596 23.9674 112.349 24.3392C111.542 25.5497 110.283 26.5488 108.909 27.1406C108.091 27.4953 107.221 27.6741 106.324 27.6741V27.677ZM106.365 15.6569C104.553 15.6569 102.917 16.7936 102.197 18.5533C102.139 18.6967 102.153 18.8599 102.238 18.989C102.322 19.1181 102.464 19.1962 102.616 19.1962H110.116C110.267 19.1962 110.409 19.1181 110.493 18.989C110.577 18.8599 110.592 18.6952 110.534 18.5533C109.813 16.7936 108.177 15.6569 106.365 15.6569Z" fill="#0F172A"/>
  <path d="M74.1979 26.8264V19.4554C74.1979 17.7623 72.8839 16.3191 71.1924 16.2552C69.4143 16.1885 67.9456 17.6148 67.9456 19.3787V26.8278C67.9456 27.1358 67.6958 27.3855 67.3879 27.3855H65.6055C65.2976 27.3855 65.0479 27.1358 65.0479 26.8278V19.3787C65.0479 18.5159 65.2267 17.6815 65.58 16.8981C66.5535 14.7453 68.709 13.3545 71.0703 13.3545C73.4316 13.3545 75.5872 14.7453 76.5606 16.8981C76.914 17.6815 77.0928 18.5159 77.0928 19.3787V26.8278C77.0928 27.1358 76.843 27.3855 76.5351 27.3855H74.7528C74.4448 27.3855 74.1951 27.1358 74.1951 26.8278L74.1979 26.8264Z" fill="#0F172A"/>
  <path d="M91.4439 27.7288C88.918 27.7288 87.2477 25.9251 86.4772 22.3701C86.1011 20.6345 85.2469 16.4722 84.8212 14.3974C84.7502 14.0511 85.0142 13.729 85.3675 13.729H87.0803C87.3513 13.729 87.5841 13.9234 87.6295 14.1916C87.9587 16.1046 88.7605 20.748 89.0868 22.5489C89.3607 24.0631 90.154 24.8309 91.4425 24.8309C93.0417 24.8309 93.4604 23.6104 93.6463 22.5461C93.9741 20.6785 94.8695 16.0634 95.2384 14.1788C95.2895 13.9163 95.5194 13.7275 95.7862 13.7275H97.5146C97.8679 13.7275 98.1319 14.0525 98.0609 14.3988L96.4077 22.3729C96.1878 23.6402 95.1859 27.7274 91.4425 27.7274L91.4439 27.7288Z" fill="#0F172A"/>
  <path d="M55.3022 27.6858C55.2269 27.6858 55.1517 27.6858 55.0779 27.6815C54.3358 27.6588 53.6106 27.524 52.9181 27.2785C52.5024 27.1309 52.1008 26.9464 51.7261 26.7279C50.6349 26.0992 49.7281 25.1924 49.1009 24.1024C48.8823 23.7235 48.6965 23.3219 48.5503 22.9075C48.2793 22.144 48.1416 21.3408 48.1416 20.5177V8.82823C48.1416 8.52028 48.3914 8.27051 48.6993 8.27051H50.4816C50.7896 8.27051 51.0393 8.52028 51.0393 8.82823V20.4269C51.0393 22.75 52.8571 24.7169 55.1801 24.7865C57.5939 24.8574 59.5792 22.916 59.5792 20.5177V8.82823C59.5792 8.52028 59.8289 8.27051 60.1369 8.27051H61.9192C62.2271 8.27051 62.4769 8.52028 62.4769 8.82823V20.5177C62.4769 21.3351 62.3392 22.1398 62.0682 22.9075C61.922 23.3219 61.7361 23.7235 61.5176 24.0996C60.889 25.1895 59.9822 26.0963 58.8938 26.7236C58.5177 26.9436 58.1161 27.1295 57.6989 27.2771C57.0079 27.5226 56.2827 27.6574 55.5448 27.6801C55.4653 27.6829 55.3887 27.6844 55.3107 27.6844H55.305L55.3022 27.6858Z" fill="#0F172A"/>
  <path d="M115.89 27.3818C115.582 27.3818 115.333 27.132 115.333 26.8241V18.6002C115.333 18.0041 115.43 17.4194 115.625 16.8631C115.628 16.8575 115.629 16.8518 115.631 16.8461C116.156 15.3617 117.355 14.1625 118.839 13.6374C118.842 13.6374 118.845 13.636 118.848 13.6346C119.384 13.4458 119.946 13.3479 120.516 13.3408H121.493C121.801 13.3408 122.05 13.5906 122.05 13.8985V15.6824C122.05 15.9889 121.802 16.2387 121.495 16.2401L120.603 16.2444C120.572 16.2444 120.54 16.2472 120.511 16.2543C120.272 16.2628 120.04 16.3082 119.817 16.3877C119.15 16.6219 118.611 17.1612 118.375 17.8296C118.296 18.0538 118.252 18.2851 118.242 18.5193C118.234 18.5505 118.23 18.5845 118.23 18.6186V26.8269C118.23 27.1349 117.98 27.3846 117.673 27.3846H115.89V27.3818Z" fill="#0F172A"/>
  <path d="M79.6865 16.8763V26.8244C79.6865 27.1324 79.9363 27.3822 80.2442 27.3822H82.0237C82.3316 27.3822 82.5814 27.1324 82.5814 26.8244V16.8734C82.5814 16.7343 82.448 16.635 82.3146 16.6733C81.9386 16.7826 81.5398 16.8408 81.1283 16.8408C80.7168 16.8408 80.3265 16.7826 79.9533 16.6762C79.8199 16.6378 79.6865 16.7372 79.6865 16.8763Z" fill="#0F172A"/>
  <path d="M79.6865 14.2838V15.8946C79.6865 16.1514 79.8625 16.3757 80.1122 16.4381C80.4386 16.5176 80.7778 16.5616 81.1283 16.5616C81.4788 16.5616 81.8279 16.5176 82.1571 16.4353C82.4068 16.3728 82.5814 16.15 82.5814 15.8932V14.2853C82.5814 13.9773 82.3316 13.7275 82.0237 13.7275H80.2442C79.9363 13.7275 79.6865 13.9773 79.6865 14.2838Z" fill="#0F172A"/>
  <path d="M144.182 27.4326C143.874 27.4326 143.625 27.1828 143.625 26.8749V18.6509C143.625 18.0549 143.722 17.4702 143.917 16.9139C143.92 16.9082 143.921 16.9026 143.923 16.8969C144.448 15.4125 145.647 14.2133 147.131 13.6882C147.134 13.6882 147.137 13.6868 147.14 13.6854C147.676 13.4966 148.238 13.3987 148.808 13.3916H149.785C150.093 13.3916 150.342 13.6414 150.342 13.9493V15.7332C150.342 16.0397 150.094 16.2895 149.787 16.2909L148.895 16.2952C148.864 16.2952 148.832 16.298 148.803 16.3051C148.564 16.3136 148.332 16.359 148.109 16.4385C147.442 16.6727 146.903 17.2119 146.667 17.8803C146.587 18.1046 146.544 18.3359 146.534 18.5701C146.526 18.6013 146.522 18.6353 146.522 18.6694V26.8777C146.522 27.1857 146.272 27.4354 145.965 27.4354H144.182V27.4326Z" fill="#0F172A"/>
  <path fill-rule="evenodd" clip-rule="evenodd" d="M137.15 18.7515H132.806L132.806 26.8194C132.806 27.0892 132.587 27.308 132.317 27.308H130.659C130.389 27.308 130.17 27.0893 130.17 26.8194L130.17 9.17379C130.17 8.74768 130.515 8.40227 130.941 8.40234L137.15 8.40344C140.008 8.40344 142.324 10.7199 142.324 13.5775C142.324 16.435 140.008 18.7515 137.15 18.7515ZM137.15 10.9106H132.806L132.806 16.2443H137.15C138.552 16.2443 139.817 14.9793 139.817 13.5775C139.817 12.1756 138.552 10.9106 137.15 10.9106Z" fill="#0F172A"/>
  <path fill-rule="evenodd" clip-rule="evenodd" d="M165.073 20.689C165.073 24.5813 162.034 27.7285 158.294 27.7285C154.555 27.7285 151.516 24.5813 151.516 20.689C151.516 16.7966 154.555 13.6494 158.294 13.6494C162.034 13.6494 165.073 16.7966 165.073 20.689ZM158.294 25.0928C160.486 25.0928 162.437 23.2197 162.437 20.689C162.437 18.1582 160.486 16.2851 158.294 16.2851C156.103 16.2851 154.152 18.1582 154.152 20.689C154.152 23.2197 156.103 25.0928 158.294 25.0928Z" fill="#0F172A"/>
  <defs>
    <linearGradient id="paint0_linear_3719_775" x1="-3.78382e-07" y1="21.2221" x2="24.1885" y2="37.0466" gradientUnits="userSpaceOnUse">
      <stop stop-color="#E22FFF"/>
      <stop offset="1" stop-color="#602CFF"/>
    </linearGradient>
  </defs>
</svg>
