<svg width="20" height="20" viewBox="0 0 20 20" fill="none" xmlns="http://www.w3.org/2000/svg">
<g id="resolved-single">
<path id="Subtract" fill-rule="evenodd" clip-rule="evenodd" d="M10 18.75C14.8325 18.75 18.75 14.8325 18.75 10C18.75 5.16751 14.8325 1.25 10 1.25C5.16751 1.25 1.25 5.16751 1.25 10C1.25 14.8325 5.16751 18.75 10 18.75ZM14.6556 8.03021C14.9485 7.73731 14.9485 7.26244 14.6556 6.96955C14.3627 6.67665 13.8878 6.67665 13.5949 6.96955L9.12524 11.4392L7.15557 9.46955C6.86268 9.17665 6.38781 9.17665 6.09491 9.46955C5.80202 9.76244 5.80202 10.2373 6.09491 10.5302L8.59491 13.0302C8.88781 13.3231 9.36268 13.3231 9.65557 13.0302L14.6556 8.03021Z" fill="#0FCC65"/>
</g>
</svg>
