<svg width="123" height="36" viewBox="0 0 123 36" fill="none" xmlns="http://www.w3.org/2000/svg">
<g id="read-me-light">
<path id="Vector" d="M3.06367 27.9594C2.97933 27.9117 2.90109 27.8497 2.83403 27.7724C1.04976 25.7523 0.764233 22.839 2.12276 20.5241L11.6975 4.20864C11.9464 3.7849 12.4971 3.63958 12.928 3.88448C13.3588 4.12937 13.5061 4.67099 13.2582 5.09575L3.68349 21.4113C2.70905 23.0717 2.9143 25.1609 4.19459 26.6099C4.52076 26.9798 4.48113 27.5397 4.10517 27.8608C3.80746 28.1159 3.38679 28.1433 3.06367 27.9594ZM1.12088 19.2733L10.9374 2.54518C11.2809 1.95987 11.7351 1.46296 12.2868 1.06869C12.5551 0.876637 12.615 0.50777 12.4199 0.243568C12.2248 -0.0206348 11.8489 -0.0785561 11.5806 0.112483C10.8917 0.604305 10.3247 1.22416 9.89695 1.95377L0.0803978 18.6818C-0.0852266 18.9643 0.0133352 19.3261 0.299876 19.4887C0.586416 19.6513 0.954244 19.5547 1.12088 19.2722V19.2733ZM15.7233 26.6262L19.2705 20.5811C19.685 19.8748 19.4391 18.9704 18.7208 18.563C18.0024 18.1545 17.0838 18.3973 16.6693 19.1036L13.122 25.1487C12.4585 26.2787 10.9842 26.6679 9.83598 26.0155C8.68677 25.3631 8.29151 23.912 8.95502 22.7821L16.7638 9.47643C17.1783 8.77019 16.9324 7.86581 16.214 7.45832C15.4957 7.04983 14.5771 7.29269 14.1625 7.99892L6.3538 21.3046C4.86217 23.846 5.75024 27.1069 8.33418 28.5742C10.9171 30.0415 14.2326 29.1676 15.7233 26.6262ZM33.9978 8.13915C33.6219 8.46026 33.5823 9.02017 33.9084 9.39005C35.1887 10.8391 35.394 12.9283 34.4195 14.5887L24.8448 30.9043C24.5959 31.328 24.7432 31.8706 25.175 32.1155C25.6059 32.3604 26.1566 32.2151 26.4055 31.7914L35.9803 15.4759C37.3388 13.16 37.0533 10.2477 35.269 8.22756C35.2019 8.15135 35.1237 8.08936 35.0393 8.04059C34.7152 7.85666 34.2956 7.88511 33.9978 8.13915ZM36.9821 16.7267L27.1656 33.4548C26.8221 34.0401 26.3679 34.537 25.8162 34.9313C25.5479 35.1234 25.488 35.4922 25.6831 35.7564C25.8782 36.0206 26.2541 36.0786 26.5224 35.8875C27.2113 35.3957 27.7783 34.7758 28.2061 34.0462L38.0226 17.3182C38.1882 17.0357 38.0897 16.6739 37.8031 16.5113C37.5156 16.3477 37.1488 16.4453 36.9821 16.7278V16.7267ZM22.3797 9.37379L18.8325 15.4189C18.418 16.1252 18.6639 17.0296 19.3822 17.437C20.1006 17.8455 21.0192 17.6027 21.4338 16.8964L24.981 10.8513C25.6445 9.72132 27.1188 9.33213 28.267 9.98451C29.4162 10.6369 29.8115 12.088 29.148 13.2179L21.3393 26.5236C20.9247 27.2298 21.1706 28.1342 21.889 28.5417C22.6073 28.9502 23.5259 28.7073 23.9405 28.0011L31.7492 14.6954C33.2408 12.154 32.3528 8.89315 29.7688 7.42581C27.1859 5.95847 23.8704 6.83237 22.3797 9.37379Z" fill="url(#paint0_linear_1027_244)"/>
<g id="Group">
<path id="Vector_2" d="M106.324 27.6731C102.562 27.6731 99.5011 24.4573 99.5011 20.505C99.5011 16.5527 102.562 13.3369 106.324 13.3369C109.525 13.3369 112.26 15.6232 112.974 18.8957C113.089 19.4165 113.147 19.9572 113.147 20.5036C113.147 20.5206 113.147 20.5362 113.147 20.5532C113.144 20.9336 112.83 21.2387 112.449 21.2387H102.511C102.366 21.2387 102.23 21.3054 102.143 21.4189C102.055 21.5325 102.027 21.68 102.065 21.8177C102.63 23.83 104.316 25.2364 106.365 25.2364C107.483 25.2364 108.563 24.822 109.403 24.0685C109.548 23.9407 109.686 23.8002 109.815 23.6527C109.918 23.5334 110.072 23.4667 110.229 23.4667H111.884C112.329 23.4667 112.596 23.9634 112.349 24.3353C111.542 25.5458 110.283 26.5449 108.909 27.1366C108.091 27.4914 107.221 27.6702 106.324 27.6702V27.6731ZM106.365 15.653C104.553 15.653 102.917 16.7897 102.197 18.5494C102.139 18.6928 102.153 18.856 102.238 18.9851C102.322 19.1142 102.464 19.1923 102.616 19.1923H110.116C110.267 19.1923 110.409 19.1142 110.493 18.9851C110.577 18.856 110.592 18.6913 110.534 18.5494C109.813 16.7897 108.177 15.653 106.365 15.653Z" fill="#0F172A"/>
<path id="Vector_3" d="M74.198 26.8235V19.4525C74.198 17.7594 72.884 16.3161 71.1925 16.2523C69.4144 16.1856 67.9457 17.6118 67.9457 19.3758V26.8249C67.9457 27.1328 67.6959 27.3826 67.388 27.3826H65.6057C65.2977 27.3826 65.048 27.1328 65.048 26.8249V19.3758C65.048 18.513 65.2268 17.6785 65.5801 16.8952C66.5536 14.7423 68.7091 13.3516 71.0704 13.3516C73.4318 13.3516 75.5873 14.7423 76.5608 16.8952C76.9141 17.6785 77.0929 18.513 77.0929 19.3758V26.8249C77.0929 27.1328 76.8432 27.3826 76.5352 27.3826H74.7529C74.4449 27.3826 74.1952 27.1328 74.1952 26.8249L74.198 26.8235Z" fill="#0F172A"/>
<path id="Vector_4" d="M91.4436 27.7249C88.9177 27.7249 87.2475 25.9212 86.477 22.3662C86.1009 20.6306 85.2466 16.4683 84.8209 14.3935C84.75 14.0472 85.0139 13.7251 85.3673 13.7251H87.0801C87.3511 13.7251 87.5838 13.9195 87.6292 14.1877C87.9584 16.1007 88.7602 20.7441 89.0866 22.545C89.3605 24.0592 90.1537 24.827 91.4422 24.827C93.0415 24.827 93.4601 23.6065 93.646 22.5422C93.9738 20.6746 94.8692 16.0595 95.2382 14.1749C95.2893 13.9124 95.5192 13.7236 95.7859 13.7236H97.5144C97.8677 13.7236 98.1317 14.0486 98.0607 14.3949L96.4075 22.369C96.1875 23.6363 95.1857 27.7235 91.4422 27.7235L91.4436 27.7249Z" fill="#0F172A"/>
<path id="Vector_5" d="M55.3019 27.6829C55.2267 27.6829 55.1515 27.6829 55.0777 27.6786C54.3355 27.6559 53.6104 27.5211 52.9179 27.2756C52.5021 27.128 52.1005 26.9435 51.7259 26.7249C50.6346 26.0963 49.7279 25.1894 49.1006 24.0995C48.8821 23.7206 48.6962 23.319 48.55 22.9046C48.279 22.1411 48.1414 21.3379 48.1414 20.5148V8.8253C48.1414 8.51735 48.3911 8.26758 48.699 8.26758H50.4814C50.7893 8.26758 51.0391 8.51735 51.0391 8.8253V20.4239C51.0391 22.7471 52.8569 24.714 55.1799 24.7835C57.5937 24.8545 59.5789 22.9131 59.5789 20.5148V8.8253C59.5789 8.51735 59.8287 8.26758 60.1366 8.26758H61.919C62.2269 8.26758 62.4766 8.51735 62.4766 8.8253V20.5148C62.4766 21.3322 62.339 22.1368 62.068 22.9046C61.9218 23.319 61.7359 23.7206 61.5174 24.0967C60.8887 25.1866 59.982 26.0934 58.8935 26.7207C58.5175 26.9406 58.1159 27.1265 57.6987 27.2741C57.0076 27.5196 56.2825 27.6545 55.5446 27.6772C55.4651 27.68 55.3885 27.6814 55.3104 27.6814H55.3047L55.3019 27.6829Z" fill="#0F172A"/>
<path id="Vector_6" d="M115.89 27.3779C115.582 27.3779 115.332 27.1281 115.332 26.8202V18.5963C115.332 18.0002 115.43 17.4155 115.624 16.8592C115.627 16.8535 115.629 16.8479 115.63 16.8422C116.155 15.3578 117.354 14.1586 118.839 13.6335C118.841 13.6335 118.844 13.6321 118.847 13.6307C119.383 13.4419 119.945 13.344 120.516 13.3369H121.492C121.8 13.3369 122.05 13.5867 122.05 13.8946V15.6785C122.05 15.985 121.801 16.2348 121.495 16.2362L120.602 16.2405C120.571 16.2405 120.54 16.2433 120.51 16.2504C120.272 16.2589 120.039 16.3043 119.816 16.3838C119.149 16.618 118.61 17.1572 118.374 17.8257C118.295 18.0499 118.251 18.2812 118.241 18.5154C118.234 18.5466 118.23 18.5806 118.23 18.6147V26.823C118.23 27.131 117.98 27.3807 117.672 27.3807H115.89V27.3779Z" fill="#0F172A"/>
<path id="Vector_7" d="M79.687 16.8743V26.8225C79.687 27.1304 79.9368 27.3802 80.2447 27.3802H82.0242C82.3321 27.3802 82.5819 27.1304 82.5819 26.8225V16.8715C82.5819 16.7324 82.4485 16.6331 82.3151 16.6714C81.9391 16.7806 81.5403 16.8388 81.1288 16.8388C80.7172 16.8388 80.327 16.7806 79.9538 16.6742C79.8204 16.6359 79.687 16.7352 79.687 16.8743Z" fill="#0F172A"/>
<path id="Vector_8" d="M79.687 14.2799V15.8907C79.687 16.1475 79.863 16.3718 80.1127 16.4342C80.4391 16.5137 80.7783 16.5577 81.1288 16.5577C81.4793 16.5577 81.8284 16.5137 82.1576 16.4314C82.4073 16.3689 82.5819 16.1461 82.5819 15.8892V14.2814C82.5819 13.9734 82.3321 13.7236 82.0242 13.7236H80.2447C79.9368 13.7236 79.687 13.9734 79.687 14.2799Z" fill="#0F172A"/>
</g>
</g>
<defs>
<linearGradient id="paint0_linear_1027_244" x1="5.56177" y1="9.35721" x2="32.9018" y2="26.8722" gradientUnits="userSpaceOnUse">
<stop stop-color="#0048FF"/>
<stop offset="0.328125" stop-color="#0C81ED"/>
<stop offset="0.65" stop-color="#029DCE"/>
<stop offset="0.88" stop-color="#00BBB0"/>
<stop offset="0.963542" stop-color="#00C5A8"/>
</linearGradient>
</defs>
</svg>
