<svg width="24" height="23" viewBox="0 0 24 23" fill="none" xmlns="http://www.w3.org/2000/svg">
<path fill-rule="evenodd" clip-rule="evenodd" d="M0.833008 10.2501C0.833008 4.77323 5.27286 0.333374 10.7497 0.333374C16.2265 0.333374 20.6664 4.77323 20.6664 10.2501C20.6664 12.568 19.871 14.7003 18.5385 16.3888L22.7995 20.6499C23.2551 21.1054 23.2551 21.8442 22.7995 22.2998C22.3439 22.7553 21.6052 22.7553 21.1496 22.2998L16.8886 18.0387C15.2001 19.3714 13.0677 20.1667 10.7497 20.1667C5.27286 20.1667 0.833008 15.7269 0.833008 10.2501ZM10.7497 2.66671C6.56152 2.66671 3.16634 6.06189 3.16634 10.2501C3.16634 14.4383 6.56152 17.8334 10.7497 17.8334C14.9379 17.8334 18.333 14.4383 18.333 10.2501C18.333 6.06189 14.9379 2.66671 10.7497 2.66671Z" fill="#999999"/>
</svg>
