<svg width="72" height="73" viewBox="0 0 72 73" fill="none" xmlns="http://www.w3.org/2000/svg">
<rect x="0.000976562" y="0.735352" width="72" height="72" rx="16" fill="#274FEE"/>
<path fill-rule="evenodd" clip-rule="evenodd" d="M31.2304 30.6157C30.4848 30.6157 29.8804 31.2201 29.8804 31.9657V41.5049C29.8804 42.2505 30.4848 42.8549 31.2304 42.8549H40.7695C41.5151 42.8549 42.1195 42.2505 42.1195 41.5049V31.9657C42.1195 31.2201 41.5151 30.6157 40.7695 30.6157H31.2304ZM32.5804 40.1549V33.3157H39.4195V40.1549H32.5804Z" fill="white"/>
<path fill-rule="evenodd" clip-rule="evenodd" d="M28.7738 17.897C29.5194 17.897 30.1238 18.5014 30.1238 19.247V22.6665H34.6504V19.247C34.6504 18.5014 35.2548 17.897 36.0004 17.897C36.746 17.897 37.3504 18.5014 37.3504 19.247V22.6665H41.877V19.247C41.877 18.5014 42.4814 17.897 43.227 17.897C43.9725 17.897 44.577 18.5014 44.577 19.247V22.6665H47.13C48.7537 22.6665 50.0699 23.9827 50.0699 25.6064V28.1587H53.4882C54.2338 28.1587 54.8382 28.7631 54.8382 29.5087C54.8382 30.2543 54.2338 30.8587 53.4882 30.8587H50.0699V35.3853H53.4882C54.2338 35.3853 54.8382 35.9897 54.8382 36.7353C54.8382 37.4808 54.2338 38.0853 53.4882 38.0853H50.0699V42.6118H53.4882C54.2338 42.6118 54.8382 43.2162 54.8382 43.9618C54.8382 44.7074 54.2338 45.3118 53.4882 45.3118H50.0699V47.8644C50.0699 49.4881 48.7537 50.8043 47.13 50.8043H44.577V54.2238C44.577 54.9694 43.9725 55.5738 43.227 55.5738C42.4814 55.5738 41.877 54.9694 41.877 54.2238V50.8043H37.3504V54.2238C37.3504 54.9694 36.746 55.5738 36.0004 55.5738C35.2548 55.5738 34.6504 54.9694 34.6504 54.2238V50.8043H30.1238V54.2238C30.1238 54.9694 29.5194 55.5738 28.7738 55.5738C28.0282 55.5738 27.4238 54.9694 27.4238 54.2238V50.8043H24.872C23.2484 50.8043 21.9321 49.4881 21.9321 47.8644V45.3118H18.5116C17.766 45.3118 17.1616 44.7074 17.1616 43.9618C17.1616 43.2162 17.766 42.6118 18.5116 42.6118H21.9321V38.0853H18.5116C17.766 38.0853 17.1616 37.4808 17.1616 36.7353C17.1616 35.9897 17.766 35.3853 18.5116 35.3853H21.9321V30.8587H18.5116C17.766 30.8587 17.1616 30.2543 17.1616 29.5087C17.1616 28.7631 17.766 28.1587 18.5116 28.1587H21.9321V25.6064C21.9321 23.9827 23.2483 22.6665 24.872 22.6665H27.4238V19.247C27.4238 18.5014 28.0282 17.897 28.7738 17.897ZM47.3699 43.9036C47.3691 43.9229 47.3687 43.9423 47.3687 43.9618C47.3687 43.9813 47.3691 44.0007 47.3699 44.02V47.8644C47.3699 47.9969 47.2625 48.1043 47.13 48.1043H43.2326L43.227 48.1042L43.2213 48.1043H36.006L36.0004 48.1042L35.9948 48.1043H28.7794L28.7738 48.1042L28.7682 48.1043H24.872C24.7395 48.1043 24.6321 47.9969 24.6321 47.8644V25.6064C24.6321 25.4739 24.7395 25.3665 24.872 25.3665H28.7622L28.7738 25.3666L28.7854 25.3665H35.9888L36.0004 25.3666L36.012 25.3665H43.2154L43.227 25.3666L43.2385 25.3665H47.13C47.2625 25.3665 47.3699 25.4739 47.3699 25.6064V29.4505C47.3691 29.4698 47.3687 29.4892 47.3687 29.5087C47.3687 29.5282 47.3691 29.5476 47.3699 29.5669V36.677C47.3694 36.6875 47.3691 36.698 47.3689 36.7085C47.3687 36.7174 47.3687 36.7263 47.3687 36.7353C47.3687 36.7548 47.3691 36.7742 47.3699 36.7935V43.9036Z" fill="white"/>
</svg>
