<svg width="73" height="73" viewBox="0 0 73 73" fill="none" xmlns="http://www.w3.org/2000/svg">
<rect x="0.289551" y="0.735352" width="72" height="72" rx="16" fill="#2DAEFF"/>
<path d="M27.881 19.3529C26.538 18.7966 25.0601 18.6511 23.6344 18.9347C22.2086 19.2183 20.8989 19.9183 19.871 20.9462C18.8431 21.9741 18.1431 23.2838 17.8595 24.7095C17.5759 26.1353 17.7214 27.6131 18.2778 28.9562C18.8341 30.2992 19.7761 31.4471 20.9848 32.2548C22.1935 33.0624 23.6146 33.4935 25.0683 33.4935C25.8138 33.4935 26.4183 32.889 26.4183 32.1435C26.4183 31.3979 25.8138 30.7935 25.0683 30.7935C24.1486 30.7935 23.2496 30.5207 22.4849 30.0098C21.7202 29.4988 21.1242 28.7726 20.7722 27.9229C20.4203 27.0733 20.3282 26.1383 20.5076 25.2363C20.687 24.3343 21.1299 23.5057 21.7802 22.8554C22.4305 22.2051 23.2591 21.7622 24.1611 21.5828C25.0631 21.4034 25.9981 21.4955 26.8477 21.8474C27.6974 22.1994 28.4236 22.7954 28.9346 23.5601C29.4455 24.3247 29.7183 25.2238 29.7183 26.1435C29.7183 26.889 30.3227 27.4935 31.0683 27.4935C31.8138 27.4935 32.4183 26.889 32.4183 26.1435C32.4183 24.6898 31.9872 23.2687 31.1796 22.06C30.3719 20.8513 29.224 19.9093 27.881 19.3529Z" fill="white"/>
<path d="M44.6996 55.3776C46.0426 55.9339 47.5205 56.0795 48.9462 55.7959C50.372 55.5123 51.6816 54.8123 52.7095 53.7844C53.7375 52.7565 54.4375 51.4468 54.7211 50.021C55.0047 48.5953 54.8591 47.1174 54.3028 45.7744C53.7465 44.4314 52.8044 43.2835 51.5957 42.4758C50.387 41.6682 48.966 41.2371 47.5123 41.2371C46.7667 41.2371 46.1623 41.8415 46.1623 42.5871C46.1623 43.3327 46.7667 43.9371 47.5123 43.9371C48.432 43.9371 49.331 44.2098 50.0957 44.7208C50.8604 45.2317 51.4564 45.958 51.8083 46.8077C52.1603 47.6573 52.2524 48.5923 52.073 49.4943C51.8935 50.3963 51.4507 51.2249 50.8003 51.8752C50.15 52.5255 49.3215 52.9684 48.4195 53.1478C47.5175 53.3272 46.5825 53.2351 45.7328 52.8832C44.8831 52.5312 44.1569 51.9352 43.646 51.1705C43.135 50.4058 42.8623 49.5068 42.8623 48.5871C42.8623 47.8415 42.2579 47.2371 41.5123 47.2371C40.7667 47.2371 40.1623 47.8415 40.1623 48.5871C40.1623 50.0408 40.5934 51.4619 41.401 52.6706C42.2086 53.8793 43.3565 54.8213 44.6996 55.3776Z" fill="white"/>
<path fill-rule="evenodd" clip-rule="evenodd" d="M25.244 26.3194C25.7712 25.7921 26.626 25.7921 27.1532 26.3194L32.6445 31.8107H39.9352L45.4265 26.3194C45.9537 25.7921 46.8085 25.7921 47.3357 26.3194C47.8629 26.8466 47.8629 27.7013 47.3357 28.2285L41.8447 33.7195V41.0108L47.3357 46.5018C47.8629 47.029 47.8629 47.8838 47.3357 48.411C46.8085 48.9382 45.9537 48.9382 45.4265 48.411L39.9355 42.92H32.6442L27.1532 48.411C26.626 48.9382 25.7712 48.9382 25.244 48.411C24.7168 47.8838 24.7168 47.029 25.244 46.5018L30.7354 41.0105V33.7199L25.244 28.2285C24.7168 27.7013 24.7168 26.8466 25.244 26.3194ZM33.4354 40.22V34.5107H39.1447V40.22H33.4354Z" fill="white"/>
<path d="M54.7211 24.7098C55.0047 26.1356 54.8591 27.6134 54.3028 28.9564C53.7465 30.2995 52.8044 31.4474 51.5957 32.255C50.387 33.0626 48.966 33.4937 47.5123 33.4937C46.7667 33.4937 46.1623 32.8893 46.1623 32.1437C46.1623 31.3981 46.7667 30.7937 47.5123 30.7937C48.432 30.7937 49.331 30.521 50.0957 30.01C50.8604 29.4991 51.4564 28.7729 51.8083 27.9232C52.1603 27.0735 52.2524 26.1385 52.073 25.2365C51.8935 24.3345 51.4507 23.506 50.8003 22.8557C50.15 22.2053 49.3215 21.7625 48.4195 21.5831C47.5175 21.4036 46.5825 21.4957 45.7328 21.8477C44.8831 22.1996 44.1569 22.7956 43.646 23.5603C43.135 24.325 42.8623 25.224 42.8623 26.1437C42.8623 26.8893 42.2579 27.4937 41.5123 27.4937C40.7667 27.4937 40.1623 26.8893 40.1623 26.1437C40.1623 24.69 40.5934 23.269 41.401 22.0603C42.2086 20.8516 43.3565 19.9095 44.6996 19.3532C46.0426 18.7969 47.5205 18.6513 48.9462 18.9349C50.372 19.2185 51.6816 19.9186 52.7095 20.9465C53.7375 21.9744 54.4375 23.284 54.7211 24.7098Z" fill="white"/>
<path d="M17.8595 50.0209C17.5759 48.5952 17.7214 47.1173 18.2778 45.7743C18.8341 44.4312 19.7761 43.2833 20.9848 42.4757C22.1935 41.6681 23.6146 41.237 25.0683 41.237C25.8138 41.237 26.4183 41.8414 26.4183 42.587C26.4183 43.3326 25.8138 43.937 25.0683 43.937C24.1486 43.937 23.2496 44.2097 22.4849 44.7207C21.7202 45.2316 21.1242 45.9579 20.7722 46.8075C20.4203 47.6572 20.3282 48.5922 20.5076 49.4942C20.687 50.3962 21.1299 51.2247 21.7802 51.8751C22.4305 52.5254 23.2591 52.9682 24.1611 53.1477C25.0631 53.3271 25.9981 53.235 26.8477 52.883C27.6974 52.5311 28.4237 51.9351 28.9346 51.1704C29.4455 50.4057 29.7183 49.5067 29.7183 48.587C29.7183 47.8414 30.3227 47.237 31.0683 47.237C31.8138 47.237 32.4183 47.8414 32.4183 48.587C32.4183 50.0407 31.9872 51.4617 31.1796 52.6704C30.3719 53.8792 29.224 54.8212 27.881 55.3775C26.538 55.9338 25.0601 56.0794 23.6344 55.7958C22.2086 55.5122 20.8989 54.8122 19.871 53.7842C18.8431 52.7563 18.1431 51.4467 17.8595 50.0209Z" fill="white"/>
</svg>
