<svg width="72" height="73" viewBox="0 0 72 73" fill="none" xmlns="http://www.w3.org/2000/svg">
<rect x="0.000488281" y="0.735352" width="72" height="72" rx="16" fill="#FF8C51"/>
<path d="M30.7769 29.531C30.7769 30.9612 29.6075 32.1206 28.1651 32.1206C26.7226 32.1206 25.5532 30.9612 25.5532 29.531C25.5532 28.1008 26.7226 26.9414 28.1651 26.9414C29.6075 26.9414 30.7769 28.1008 30.7769 29.531Z" fill="white"/>
<path d="M24.6826 39.0264C26.1251 39.0264 27.2945 37.867 27.2945 36.4368C27.2945 35.0066 26.1251 33.8472 24.6826 33.8472C23.2402 33.8472 22.0708 35.0066 22.0708 36.4368C22.0708 37.867 23.2402 39.0264 24.6826 39.0264Z" fill="white"/>
<path d="M38.6124 26.0784C38.6124 27.5086 37.443 28.668 36.0005 28.668C34.558 28.668 33.3887 27.5086 33.3887 26.0784C33.3887 24.6482 34.558 23.4888 36.0005 23.4888C37.443 23.4888 38.6124 24.6482 38.6124 26.0784Z" fill="white"/>
<path d="M43.836 32.1206C45.2784 32.1206 46.4478 30.9612 46.4478 29.531C46.4478 28.1008 45.2784 26.9414 43.836 26.9414C42.3935 26.9414 41.2241 28.1008 41.2241 29.531C41.2241 30.9612 42.3935 32.1206 43.836 32.1206Z" fill="white"/>
<path d="M49.9302 36.4368C49.9302 37.867 48.7609 39.0264 47.3184 39.0264C45.8759 39.0264 44.7065 37.867 44.7065 36.4368C44.7065 35.0066 45.8759 33.8472 47.3184 33.8472C48.7609 33.8472 49.9302 35.0066 49.9302 36.4368Z" fill="white"/>
<path fill-rule="evenodd" clip-rule="evenodd" d="M36.0001 18.6858C25.6488 18.6858 17.2378 27.0087 17.2378 37.2999C17.2378 46.6136 24.1271 54.3153 33.1089 55.6942C33.1986 55.708 33.2884 55.7211 33.3785 55.7336C34.2357 55.8526 35.1112 55.9141 36.0008 55.9141C38.8477 55.9141 41.5503 55.2842 43.9715 54.1554C43.9834 54.1499 43.9953 54.1441 44.0071 54.1382C50.3607 51.1593 54.7623 44.7446 54.7623 37.2999C54.7623 27.0087 46.3513 18.6858 36.0001 18.6858ZM29.171 51.7083C29.5991 51.9079 30.0375 52.0893 30.4854 52.2515C31.1309 49.8186 33.3628 48.0349 36.0004 48.0349C38.638 48.0349 40.8698 49.8185 41.5154 52.2513C47.6742 50.0209 52.0623 44.1623 52.0623 37.2999C52.0623 28.5216 44.8819 21.3858 36.0001 21.3858C27.1182 21.3858 19.9378 28.5216 19.9378 37.2999C19.9378 43.655 23.7012 49.1493 29.149 51.6983L29.171 51.7083ZM33.0936 52.9542C34.0361 53.1248 35.0074 53.214 36.0001 53.214C36.9929 53.214 37.9645 53.1248 38.9072 52.9541C38.5729 51.6835 37.4056 50.7349 36.0004 50.7349C34.5952 50.7349 33.4279 51.6835 33.0936 52.9542Z" fill="white"/>
</svg>
